<?xml version="1.0" standalone="no"?>
 <!DOCTYPE svg PUBLIC "-//W3C//DTD SVG 1.1//EN" 
 "http://www.w3.org/Graphics/SVG/1.1/DTD/svg11.dtd"> 
<svg
  xmlns:svg="http://www.w3.org/2000/svg"
  xmlns="http://www.w3.org/2000/svg"
  xmlns:xlink="http://www.w3.org/1999/xlink"
  version="1.1"
  width="4.785360cm" height="4.785360cm" viewBox="0 0 18840 18840">
<title>SVG Picture created as Breath_PCB-brd.svg date 2020/07/30 20:01:16 </title>
  <desc>Picture generated by PCBNEW </desc>
<g style="fill:#000000; fill-opacity:1;stroke:#000000; stroke-opacity:1;
stroke-linecap:round; stroke-linejoin:round;"
 transform="translate(0 0) scale(1 1)">
</g>
<g style="fill:#000000; fill-opacity:0.0; 
stroke:#000000; stroke-width:-0.000393701; stroke-opacity:1; 
stroke-linecap:round; stroke-linejoin:round;">
<g >
</g>
<g style="fill:#000000; fill-opacity:0.0; 
stroke:#000000; stroke-width:944.882; stroke-opacity:1; 
stroke-linecap:round; stroke-linejoin:round;">
<path d="M2306 12501
L2306 12501
" />
</g>
<g style="fill:#000000; fill-opacity:1.0; 
stroke:#000000; stroke-width:0; stroke-opacity:1; 
stroke-linecap:round; stroke-linejoin:round;">
<circle cx="3348.68" cy="6592.82" r="472.441" /> 
</g>
<g style="fill:#000000; fill-opacity:1.0; 
stroke:#000000; stroke-width:98.4252; stroke-opacity:1; 
stroke-linecap:round; stroke-linejoin:round;">
</g>
<g >
</g>
<g style="fill:#000000; fill-opacity:1.0; 
stroke:#000000; stroke-width:98.4252; stroke-opacity:1; 
stroke-linecap:round; stroke-linejoin:round;">
</g>
<g style="fill:#000000; fill-opacity:1.0; 
stroke:#000000; stroke-width:0; stroke-opacity:1; 
stroke-linecap:round; stroke-linejoin:round;">
<path style="fill:#000000; fill-opacity:1.0; 
stroke:#000000; stroke-width:0; stroke-opacity:1; 
stroke-linecap:round; stroke-linejoin:round;fill-rule:evenodd;"
d="M 7612.65,11317.8
7612.65,12380.8
6234.7,12380.8
6234.7,11317.8
Z" /> 
<path style="fill:#000000; fill-opacity:1.0; 
stroke:#000000; stroke-width:0; stroke-opacity:1; 
stroke-linecap:round; stroke-linejoin:round;fill-rule:evenodd;"
d="M 12612.7,10254.8
12612.7,11317.8
11234.7,11317.8
11234.7,10254.8
Z" /> 
<circle cx="9423.68" cy="11317.8" r="1122.05" /> 
</g>
<g style="fill:#000000; fill-opacity:1.0; 
stroke:#000000; stroke-width:98.4252; stroke-opacity:1; 
stroke-linecap:round; stroke-linejoin:round;">
</g>
<g >
</g>
<g style="fill:#000000; fill-opacity:1.0; 
stroke:#000000; stroke-width:98.4252; stroke-opacity:1; 
stroke-linecap:round; stroke-linejoin:round;">
</g>
<g style="fill:#000000; fill-opacity:1.0; 
stroke:#000000; stroke-width:0; stroke-opacity:1; 
stroke-linecap:round; stroke-linejoin:round;">
<circle cx="6648.68" cy="17192.8" r="511.811" /> 
</g>
<g style="fill:#000000; fill-opacity:1.0; 
stroke:#000000; stroke-width:98.4252; stroke-opacity:1; 
stroke-linecap:round; stroke-linejoin:round;">
</g>
<g >
</g>
<g style="fill:#000000; fill-opacity:1.0; 
stroke:#000000; stroke-width:98.4252; stroke-opacity:1; 
stroke-linecap:round; stroke-linejoin:round;">
</g>
<g style="fill:#000000; fill-opacity:1.0; 
stroke:#000000; stroke-width:0; stroke-opacity:1; 
stroke-linecap:round; stroke-linejoin:round;">
<path style="fill:#000000; fill-opacity:1.0; 
stroke:#000000; stroke-width:0; stroke-opacity:1; 
stroke-linecap:round; stroke-linejoin:round;fill-rule:evenodd;"
d="M 10964.2,16652.3
10964.2,17833.4
9783.12,17833.4
9783.12,16652.3
Z" /> 
<circle cx="8846.12" cy="17242.8" r="590.551" /> 
</g>
<g style="fill:#000000; fill-opacity:1.0; 
stroke:#000000; stroke-width:98.4252; stroke-opacity:1; 
stroke-linecap:round; stroke-linejoin:round;">
</g>
<g >
</g>
<g style="fill:#000000; fill-opacity:1.0; 
stroke:#000000; stroke-width:98.4252; stroke-opacity:1; 
stroke-linecap:round; stroke-linejoin:round;">
</g>
<g style="fill:#000000; fill-opacity:1.0; 
stroke:#000000; stroke-width:0; stroke-opacity:1; 
stroke-linecap:round; stroke-linejoin:round;">
<circle cx="6598.68" cy="15317.8" r="511.811" /> 
</g>
<g style="fill:#000000; fill-opacity:1.0; 
stroke:#000000; stroke-width:98.4252; stroke-opacity:1; 
stroke-linecap:round; stroke-linejoin:round;">
</g>
<g >
</g>
<g style="fill:#000000; fill-opacity:1.0; 
stroke:#000000; stroke-width:98.4252; stroke-opacity:1; 
stroke-linecap:round; stroke-linejoin:round;">
</g>
<g style="fill:#000000; fill-opacity:1.0; 
stroke:#000000; stroke-width:0; stroke-opacity:1; 
stroke-linecap:round; stroke-linejoin:round;">
<circle cx="6673.68" cy="13442.8" r="511.811" /> 
</g>
<g style="fill:#000000; fill-opacity:1.0; 
stroke:#000000; stroke-width:98.4252; stroke-opacity:1; 
stroke-linecap:round; stroke-linejoin:round;">
</g>
<g >
</g>
<g style="fill:#000000; fill-opacity:1.0; 
stroke:#000000; stroke-width:98.4252; stroke-opacity:1; 
stroke-linecap:round; stroke-linejoin:round;">
</g>
<g style="fill:#000000; fill-opacity:1.0; 
stroke:#000000; stroke-width:0; stroke-opacity:1; 
stroke-linecap:round; stroke-linejoin:round;">
<path style="fill:#000000; fill-opacity:1.0; 
stroke:#000000; stroke-width:0; stroke-opacity:1; 
stroke-linecap:round; stroke-linejoin:round;fill-rule:evenodd;"
d="M 12215.8,6832
12215.8,8603.65
11231.5,8603.65
11231.5,6832
Z" /> 
</g>
<g style="fill:#000000; fill-opacity:1.0; 
stroke:#000000; stroke-width:984.252; stroke-opacity:1; 
stroke-linecap:round; stroke-linejoin:round;">
</g>
<g style="fill:#000000; fill-opacity:0.0; 
stroke:#000000; stroke-width:984.252; stroke-opacity:1; 
stroke-linecap:round; stroke-linejoin:round;">
<path d="M9578 8111
L9578 7324
" />
<path d="M7432 8111
L7432 7324
" />
</g>
<g >
</g>
<g style="fill:#000000; fill-opacity:0.0; 
stroke:#000000; stroke-width:984.252; stroke-opacity:1; 
stroke-linecap:round; stroke-linejoin:round;">
</g>
<g style="fill:#000000; fill-opacity:1.0; 
stroke:#000000; stroke-width:0; stroke-opacity:1; 
stroke-linecap:round; stroke-linejoin:round;">
<circle cx="8948.68" cy="1267.82" r="314.961" /> 
</g>
<g style="fill:#000000; fill-opacity:1.0; 
stroke:#000000; stroke-width:98.4252; stroke-opacity:1; 
stroke-linecap:round; stroke-linejoin:round;">
</g>
<g style="fill:#000000; fill-opacity:1.0; 
stroke:#000000; stroke-width:0; stroke-opacity:1; 
stroke-linecap:round; stroke-linejoin:round;">
<circle cx="10326.6" cy="1267.82" r="314.961" /> 
</g>
<g style="fill:#000000; fill-opacity:1.0; 
stroke:#000000; stroke-width:98.4252; stroke-opacity:1; 
stroke-linecap:round; stroke-linejoin:round;">
</g>
<g >
</g>
<g style="fill:#000000; fill-opacity:1.0; 
stroke:#000000; stroke-width:98.4252; stroke-opacity:1; 
stroke-linecap:round; stroke-linejoin:round;">
</g>
<g style="fill:#000000; fill-opacity:1.0; 
stroke:#000000; stroke-width:0; stroke-opacity:1; 
stroke-linecap:round; stroke-linejoin:round;">
<circle cx="15834.7" cy="15336.2" r="314.961" /> 
</g>
<g style="fill:#000000; fill-opacity:1.0; 
stroke:#000000; stroke-width:98.4252; stroke-opacity:1; 
stroke-linecap:round; stroke-linejoin:round;">
</g>
<g style="fill:#000000; fill-opacity:1.0; 
stroke:#000000; stroke-width:0; stroke-opacity:1; 
stroke-linecap:round; stroke-linejoin:round;">
<circle cx="16523.7" cy="14142.8" r="314.961" /> 
</g>
<g style="fill:#000000; fill-opacity:1.0; 
stroke:#000000; stroke-width:98.4252; stroke-opacity:1; 
stroke-linecap:round; stroke-linejoin:round;">
</g>
<g >
</g>
<g style="fill:#000000; fill-opacity:1.0; 
stroke:#000000; stroke-width:98.4252; stroke-opacity:1; 
stroke-linecap:round; stroke-linejoin:round;">
</g>
<g style="fill:#000000; fill-opacity:1.0; 
stroke:#000000; stroke-width:944.882; stroke-opacity:1; 
stroke-linecap:round; stroke-linejoin:round;">
</g>
<g style="fill:#000000; fill-opacity:0.0; 
stroke:#000000; stroke-width:944.882; stroke-opacity:1; 
stroke-linecap:round; stroke-linejoin:round;">
<path d="M14173 2817
L14173 2817
" />
</g>
<g style="fill:#000000; fill-opacity:1.0; 
stroke:#000000; stroke-width:0; stroke-opacity:1; 
stroke-linecap:round; stroke-linejoin:round;">
<circle cx="14173.7" cy="8817.82" r="472.441" /> 
</g>
<g style="fill:#000000; fill-opacity:1.0; 
stroke:#000000; stroke-width:98.4252; stroke-opacity:1; 
stroke-linecap:round; stroke-linejoin:round;">
</g>
<g >
</g>
<g style="fill:#000000; fill-opacity:1.0; 
stroke:#000000; stroke-width:98.4252; stroke-opacity:1; 
stroke-linecap:round; stroke-linejoin:round;">
</g>
<g style="fill:#000000; fill-opacity:1.0; 
stroke:#000000; stroke-width:0; stroke-opacity:1; 
stroke-linecap:round; stroke-linejoin:round;">
<circle cx="3164.04" cy="15246.6" r="314.961" /> 
</g>
<g style="fill:#000000; fill-opacity:1.0; 
stroke:#000000; stroke-width:98.4252; stroke-opacity:1; 
stroke-linecap:round; stroke-linejoin:round;">
</g>
<g style="fill:#000000; fill-opacity:1.0; 
stroke:#000000; stroke-width:0; stroke-opacity:1; 
stroke-linecap:round; stroke-linejoin:round;">
<circle cx="2373.68" cy="14117.8" r="314.961" /> 
</g>
<g style="fill:#000000; fill-opacity:1.0; 
stroke:#000000; stroke-width:98.4252; stroke-opacity:1; 
stroke-linecap:round; stroke-linejoin:round;">
</g>
<g >
</g>
<g style="fill:#000000; fill-opacity:1.0; 
stroke:#000000; stroke-width:98.4252; stroke-opacity:1; 
stroke-linecap:round; stroke-linejoin:round;">
</g>
<g style="fill:#000000; fill-opacity:1.0; 
stroke:#000000; stroke-width:0; stroke-opacity:1; 
stroke-linecap:round; stroke-linejoin:round;">
<circle cx="5298.68" cy="8892.82" r="472.441" /> 
</g>
<g style="fill:#000000; fill-opacity:1.0; 
stroke:#000000; stroke-width:98.4252; stroke-opacity:1; 
stroke-linecap:round; stroke-linejoin:round;">
</g>
<g style="fill:#000000; fill-opacity:1.0; 
stroke:#000000; stroke-width:944.882; stroke-opacity:1; 
stroke-linecap:round; stroke-linejoin:round;">
</g>
<g style="fill:#000000; fill-opacity:0.0; 
stroke:#000000; stroke-width:944.882; stroke-opacity:1; 
stroke-linecap:round; stroke-linejoin:round;">
<path d="M5298 2892
L5298 2892
" />
</g>
<g >
</g>
<g style="fill:#000000; fill-opacity:0.0; 
stroke:#000000; stroke-width:944.882; stroke-opacity:1; 
stroke-linecap:round; stroke-linejoin:round;">
</g>
<g style="fill:#000000; fill-opacity:1.0; 
stroke:#000000; stroke-width:0; stroke-opacity:1; 
stroke-linecap:round; stroke-linejoin:round;">
<circle cx="4673.68" cy="10067.8" r="472.441" /> 
</g>
<g style="fill:#000000; fill-opacity:1.0; 
stroke:#000000; stroke-width:98.4252; stroke-opacity:1; 
stroke-linecap:round; stroke-linejoin:round;">
</g>
<g style="fill:#000000; fill-opacity:1.0; 
stroke:#000000; stroke-width:944.882; stroke-opacity:1; 
stroke-linecap:round; stroke-linejoin:round;">
</g>
<g style="fill:#000000; fill-opacity:0.0; 
stroke:#000000; stroke-width:944.882; stroke-opacity:1; 
stroke-linecap:round; stroke-linejoin:round;">
<path d="M4673 16067
L4673 16067
" />
</g>
<g >
</g>
<g style="fill:#000000; fill-opacity:0.0; 
stroke:#000000; stroke-width:944.882; stroke-opacity:1; 
stroke-linecap:round; stroke-linejoin:round;">
</g>
<g style="fill:#000000; fill-opacity:1.0; 
stroke:#000000; stroke-width:0; stroke-opacity:1; 
stroke-linecap:round; stroke-linejoin:round;">
<circle cx="16398.7" cy="12617.8" r="472.441" /> 
</g>
<g style="fill:#000000; fill-opacity:1.0; 
stroke:#000000; stroke-width:98.4252; stroke-opacity:1; 
stroke-linecap:round; stroke-linejoin:round;">
</g>
<g style="fill:#000000; fill-opacity:1.0; 
stroke:#000000; stroke-width:944.882; stroke-opacity:1; 
stroke-linecap:round; stroke-linejoin:round;">
</g>
<g style="fill:#000000; fill-opacity:0.0; 
stroke:#000000; stroke-width:944.882; stroke-opacity:1; 
stroke-linecap:round; stroke-linejoin:round;">
<path d="M16398 6617
L16398 6617
" />
</g>
<g >
</g>
<g style="fill:#000000; fill-opacity:0.0; 
stroke:#000000; stroke-width:944.882; stroke-opacity:1; 
stroke-linecap:round; stroke-linejoin:round;">
<path d="M14173 16067
L14173 16067
" />
</g>
<g style="fill:#000000; fill-opacity:1.0; 
stroke:#000000; stroke-width:0; stroke-opacity:1; 
stroke-linecap:round; stroke-linejoin:round;">
<circle cx="14173.7" cy="10067.8" r="472.441" /> 
</g>
<g style="fill:#000000; fill-opacity:1.0; 
stroke:#000000; stroke-width:98.4252; stroke-opacity:1; 
stroke-linecap:round; stroke-linejoin:round;">
</g>
<g >
</g>
<g style="fill:#000000; fill-opacity:1.0; 
stroke:#000000; stroke-width:98.4252; stroke-opacity:1; 
stroke-linecap:round; stroke-linejoin:round;">
</g>
<g style="fill:#000000; fill-opacity:1.0; 
stroke:#000000; stroke-width:0; stroke-opacity:1; 
stroke-linecap:round; stroke-linejoin:round;">
<path style="fill:#000000; fill-opacity:1.0; 
stroke:#000000; stroke-width:0; stroke-opacity:1; 
stroke-linecap:round; stroke-linejoin:round;fill-rule:evenodd;"
d="M 7833.71,2832.78
7833.71,2202.86
8463.64,2202.86
8463.64,2832.78
Z" /> 
</g>
<g style="fill:#000000; fill-opacity:1.0; 
stroke:#000000; stroke-width:629.921; stroke-opacity:1; 
stroke-linecap:round; stroke-linejoin:round;">
</g>
<g style="fill:#000000; fill-opacity:0.0; 
stroke:#000000; stroke-width:629.921; stroke-opacity:1; 
stroke-linecap:round; stroke-linejoin:round;">
<path d="M11148 5517
L11148 5517
" />
<path d="M8148 3517
L8148 3517
" />
<path d="M11148 4517
L11148 4517
" />
<path d="M8148 4517
L8148 4517
" />
<path d="M11148 3517
L11148 3517
" />
<path d="M8148 5517
L8148 5517
" />
<path d="M11148 2517
L11148 2517
" />
</g>
<g >
</g>
<g >
</g>
<g style="fill:#000000; fill-opacity:0.0; 
stroke:#000000; stroke-width:629.921; stroke-opacity:1; 
stroke-linecap:round; stroke-linejoin:round;">
</g>
<g style="fill:#000000; fill-opacity:0.0; 
stroke:#000000; stroke-width:137.795; stroke-opacity:1; 
stroke-linecap:round; stroke-linejoin:round;">
<path d="M6455 11849
L4673 10067
" />
<path d="M6923 11849
L6455 11849
" />
<path d="M3348 8742
L4673 10067
" />
<path d="M3348 6592
L3348 8742
" />
<path d="M9578 8440
L11923 10786
" />
<path d="M9578 7717
L9578 8440
" />
<path d="M2346 12694
L2346 12517
" />
<path d="M4673 16067
L5773 17167
" />
<path d="M6623 17167
L6648 17192
" />
<path d="M5773 17167
L6623 17167
" />
<path d="M8796 17192
L8846 17242
" />
<path d="M6648 17192
L8796 17192
" />
<path d="M8846 17242
L9971 18367
" />
<path d="M11223 18367
L11803 17787
" />
<path d="M9971 18367
L11223 18367
" />
<path d="M14173 17042
L14573 17042
" />
<path d="M14573 17042
L15030 16585
" />
<path d="M15030 16585
L15030 14635
" />
<path d="M15030 14635
L15055 14635
" />
<path d="M15548 14142
L16523 14142
" />
<path d="M15055 14635
L15548 14142
" />
<path d="M3852 15246
L4673 16067
" />
<path d="M3164 15246
L3852 15246
" />
<path d="M2566 15246
L3164 15246
" />
<path d="M1595 14274
L2566 15246
" />
<path d="M2306 12501
L1595 13213
" />
<path d="M1595 13213
L1595 14274
" />
<path d="M10198 2517
L11148 2517
" />
<path d="M8948 1267
L10198 2517
" />
<path d="M11148 2517
L12373 2517
" />
<path d="M12373 2517
L15473 5617
" />
<path d="M15473 5617
L16723 5617
" />
<path d="M16723 5617
L17398 6292
" />
<path d="M17398 6292
L17398 11717
" />
<path d="M17398 11717
L17223 11892
" />
<path d="M17223 11892
L17223 13042
" />
<path d="M16523 13742
L16523 14142
" />
<path d="M17223 13042
L16523 13742
" />
<path d="M13496 17713
L13508 17707
" />
<path d="M13508 17707
L14173 17042
" />
<path d="M11803 17787
L13342 17787
" />
<path d="M13342 17787
L13388 17765
" />
<path d="M13388 17765
L13496 17713
" />
<path d="M14898 12617
L16398 12617
" />
<path d="M12123 15392
L14898 12617
" />
<path d="M6673 13442
L8623 15392
" />
<path d="M8623 15392
L12123 15392
" />
<path d="M6332 8817
L7432 7717
" />
<path d="M6257 8892
L6332 8817
" />
<path d="M5298 8892
L6257 8892
" />
<path d="M10301 1189
L10301 1067
" />
<path d="M12623 1267
L12798 1442
" />
<path d="M10326 1267
L12623 1267
" />
<path d="M12798 1442
L14173 2817
" />
<path d="M7348 3517
L5623 1792
" />
<path d="M3648 12467
L3648 12842
" />
<path d="M5623 1792
L4448 1792
" />
<path d="M8148 3517
L7348 3517
" />
<path d="M3648 12842
L2373 14117
" />
<path d="M4448 1792
L2223 4017
" />
<path d="M2223 11042
L3648 12467
" />
<path d="M2223 4017
L2223 11042
" />
<path d="M6298 1792
L7286 805
" />
<path d="M5623 1792
L6298 1792
" />
<path d="M7286 805
L7223 867
" />
<path d="M7561 530
L7286 805
" />
<path d="M9589 530
L9561 530
" />
<path d="M10326 1267
L9589 530
" />
<path d="M9561 530
L7561 530
" />
<path d="M16285 15336
L15834 15336
" />
<path d="M17174 14447
L16285 15336
" />
<path d="M17673 13443
L17174 13942
" />
<path d="M17348 5442
L17911 6005
" />
<path d="M17911 6005
L17911 6280
" />
<path d="M17911 6280
L18173 6542
" />
<path d="M17673 12718
L17673 13443
" />
<path d="M18173 6542
L18173 12217
" />
<path d="M18173 12217
L17673 12718
" />
<path d="M17174 13942
L17174 14447
" />
<path d="M17348 5017
L15148 2817
" />
<path d="M17348 5442
L17348 5017
" />
<path d="M14173 2817
L15148 2817
" />
<path d="M6723 4317
L5298 2892
" />
<path d="M6923 4517
L6723 4317
" />
<path d="M8148 4517
L6923 4517
" />
<path d="M14173 10067
L15198 10067
" />
<path d="M16398 8867
L16398 6617
" />
<path d="M15198 10067
L16398 8867
" />
<path d="M11148 3517
L12398 3517
" />
<path d="M15498 6617
L16398 6617
" />
<path d="M12398 3517
L15498 6617
" />
</g>
<g >
</g>
<g style="fill:#000000; fill-opacity:0.0; 
stroke:#000000; stroke-width:137.795; stroke-opacity:1; 
stroke-linecap:round; stroke-linejoin:round;">
</g>
<g style="fill:#000000; fill-opacity:1.0; 
stroke:#000000; stroke-width:100; stroke-opacity:1; 
stroke-linecap:round; stroke-linejoin:round;">
<path style="fill:#000000; fill-opacity:1.0; 
stroke:#000000; stroke-width:100; stroke-opacity:1; 
stroke-linecap:round; stroke-linejoin:round;fill-rule:evenodd;"
d="M 8509.84,907.681
8448.01,1000.21
8405.43,1103.03
8383.71,1212.18
8383.71,1323.47
8405.43,1432.61
8448.01,1535.43
8509.84,1627.96
8588.53,1706.66
8681.07,1768.48
8783.88,1811.07
8893.03,1832.78
9004.32,1832.78
9052.97,1823.11
9962.1,2732.24
9972.09,2744.41
9985.37,2755.31
10020.6,2784.26
10022.8,2785.43
10076,2813.87
10136.2,2832.11
10183,2836.72
10183,2836.72
10198.7,2838.26
10214.3,2836.72
10682.3,2836.72
10709.8,2877.96
10788.5,2956.66
10880.1,3017.82
10788.5,3078.99
10709.8,3157.68
10648,3250.21
10605.4,3353.03
10583.7,3462.18
10583.7,3573.47
10605.4,3682.61
10648,3785.43
10709.8,3877.96
10788.5,3956.66
10880.1,4017.82
10788.5,4078.99
10709.8,4157.68
10648,4250.21
10605.4,4353.03
10583.7,4462.18
10583.7,4573.47
10605.4,4682.61
10648,4785.43
10709.8,4877.96
10788.5,4956.66
10880.1,5017.82
10788.5,5078.99
10709.8,5157.68
10648,5250.21
10605.4,5353.03
10583.7,5462.18
10583.7,5573.47
10605.4,5682.61
10648,5785.43
10709.8,5877.96
10788.5,5956.66
10881.1,6018.48
10983.9,6061.07
11093,6082.78
11204.3,6082.78
11313.5,6061.07
11416.3,6018.48
11508.8,5956.66
11587.5,5877.96
11649.3,5785.43
11691.9,5682.61
11713.6,5573.47
11713.6,5462.18
11691.9,5353.03
11649.3,5250.21
11587.5,5157.68
11508.8,5078.99
11417.3,5017.82
11508.8,4956.66
11587.5,4877.96
11649.3,4785.43
11691.9,4682.61
11713.6,4573.47
11713.6,4462.18
11691.9,4353.03
11649.3,4250.21
11587.5,4157.68
11508.8,4078.99
11417.3,4017.82
11508.8,3956.66
11587.5,3877.96
11615.1,3836.72
12266.6,3836.72
15262.1,6832.24
15272.1,6844.41
15295.1,6863.26
15320.6,6884.26
15376,6913.87
15436.2,6932.11
15498.7,6938.26
15514.3,6936.72
15748.8,6936.72
15758.5,6960.03
15837.5,7078.35
15938.1,7178.98
16056.5,7258.04
16079.8,7267.69
16079.8,8735.73
15066.6,9748.92
14823.5,9748.92
14813.9,9725.62
14734.8,9607.29
14634.2,9506.67
14539.6,9443.44
14558.9,9433.11
14606.1,9320.96
14173.7,8888.53
13741.2,9320.96
13788.4,9433.11
13808.4,9443.02
13713.1,9506.67
13612.5,9607.29
13533.5,9725.62
13479,9857.09
13451.2,9996.67
13451.2,10139
13479,10278.6
13533.5,10410
13612.5,10528.4
13713.1,10629
13831.5,10708
13962.9,10762.5
14102.5,10790.3
14244.8,10790.3
14384.4,10762.5
14515.9,10708
14634.2,10629
14734.8,10528.4
14813.9,10410
14823.5,10386.7
15183,10386.7
15198.7,10388.3
15214.3,10386.7
15214.3,10386.7
15261.2,10382.1
15321.3,10363.9
15376.7,10334.3
15425.3,10294.4
15435.2,10282.2
16613.1,9104.39
16625.3,9094.41
16650.8,9063.26
16665.1,9045.85
16684.7,9009.26
16694.7,8990.45
16713,8930.34
16717.6,8883.49
16717.6,8883.49
16719.1,8867.82
16717.6,8852.16
16717.6,7267.69
16740.9,7258.04
16859.2,7178.98
16959.8,7078.35
17038.9,6960.03
17079.8,6861.32
17079.8,11585.7
17009.3,11656.2
16997.1,11666.2
16969.6,11699.7
16957.2,11714.8
16947.2,11733.5
16927.6,11770.2
16909.4,11830.3
16904.8,11877.2
16903.2,11892.8
16904.8,11908.5
16904.8,12102.2
16859.2,12056.7
16740.9,11977.6
16609.4,11923.1
16469.8,11895.4
16327.5,11895.4
16187.9,11923.1
16056.5,11977.6
15938.1,12056.7
15837.5,12157.3
15758.5,12275.6
15748.8,12298.9
14914.3,12298.9
14898.7,12297.4
14883,12298.9
14883,12298.9
14836.2,12303.5
14776,12321.8
14772.6,12323.6
14720.6,12351.4
14698.8,12369.4
14672.1,12391.2
14662.1,12403.4
11991.6,15073.9
8755.77,15073.9
7388.83,13707
7406.21,13665
7435.49,13517.9
7435.49,13367.8
7406.21,13220.6
7348.78,13082
7265.41,12957.2
7159.3,12851.1
7034.53,12767.7
6895.89,12710.3
6748.71,12681
6598.64,12681
6451.46,12710.3
6312.82,12767.7
6188.05,12851.1
6081.94,12957.2
5998.57,13082
5941.14,13220.6
5911.86,13367.8
5911.86,13517.9
5941.14,13665
5998.57,13803.7
6081.94,13928.4
6188.05,14034.6
6312.82,14117.9
6451.46,14175.4
6598.64,14204.6
6748.71,14204.6
6895.89,14175.4
6937.84,14158
8387.1,15607.2
8397.09,15619.4
8445.65,15659.3
8501.05,15688.9
8561.16,15707.1
8608.01,15711.7
8608.01,15711.7
8623.68,15713.3
8639.34,15711.7
12108,15711.7
12123.7,15713.3
12139.3,15711.7
12139.3,15711.7
12186.2,15707.1
12246.3,15688.9
12301.7,15659.3
12350.3,15619.4
12360.2,15607.2
15030.8,12936.7
15748.8,12936.7
15758.5,12960
15837.5,13078.4
15938.1,13179
16056.5,13258
16187.9,13312.5
16327.5,13340.3
16469.8,13340.3
16476.6,13338.9
16309.3,13506.2
16297.1,13516.2
16269.6,13549.7
16257.2,13564.8
16241.4,13594.4
16227.6,13620.2
16212,13671.6
16163.5,13704
16084.8,13782.7
16057.3,13823.9
15564.3,13823.9
15548.7,13822.4
15533,13823.9
15533,13823.9
15486.2,13828.5
15426,13846.8
15400.3,13860.6
15370.6,13876.4
15345.4,13897.1
15322.1,13916.2
15312.1,13928.4
14892.5,14348
14852.8,14369.2
14804.3,14409.1
14764.4,14457.6
14734.8,14513
14716.6,14573.1
14710.4,14635.7
14711.9,14651.3
14711.9,15591.2
14669,15541.9
14556.8,15455.4
14430,15392.4
14335.8,15363.8
14223.7,15409.8
14223.7,16017.8
14231.5,16017.8
14231.5,16117.8
14223.7,16117.8
14223.7,16125.7
14123.7,16125.7
14123.7,16117.8
13515.5,16117.8
13469.7,16230
13514.8,16364.2
13585.3,16487
13678.4,16593.8
13790.5,16680.3
13917.4,16743.3
14006.8,16770.4
13995.6,16776.4
13970.4,16797.1
13947.1,16816.2
13937.1,16828.4
13320.9,17444.6
13271,17468.7
11819.5,17468.7
11803.9,17467.2
11788.2,17468.7
11788.2,17468.7
11741.4,17473.3
11700.9,17485.6
11681.3,17491.6
11640.7,17513.3
11625.9,17521.2
11577.3,17561
11567.3,17573.2
11179.4,17961.1
11196.3,17929.5
11210.6,17882.4
11215.4,17833.4
11214.2,17355.3
11151.7,17292.8
10423.7,17292.8
10423.7,17300.7
10323.7,17300.7
10323.7,17292.8
10315.8,17292.8
10315.8,17192.8
10323.7,17192.8
10323.7,16464.8
10423.7,16464.8
10423.7,17192.8
11151.7,17192.8
11214.2,17130.3
11215.4,16652.3
11210.6,16603.3
11196.3,16556.1
11173.1,16512.7
11141.9,16474.6
11103.8,16443.4
11060.4,16420.2
11013.2,16405.9
10964.2,16401.1
10486.2,16402.3
10423.7,16464.8
10323.7,16464.8
10261.2,16402.3
9783.12,16401.1
9734.12,16405.9
9686.99,16420.2
9643.56,16443.4
9605.49,16474.6
9574.25,16512.7
9551.04,16556.1
9536.74,16603.3
9531.91,16652.3
9532.18,16756.6
9499.01,16707
9381.94,16589.9
9244.27,16497.9
9091.3,16434.6
8928.9,16402.3
8763.33,16402.3
8600.94,16434.6
8447.97,16497.9
8310.3,16589.9
8193.22,16707
8101.23,16844.7
8089.11,16873.9
7341.16,16873.9
7323.78,16832
7240.41,16707.2
7134.3,16601.1
7009.53,16517.7
6870.89,16460.3
6723.71,16431
6573.64,16431
6426.46,16460.3
6287.82,16517.7
6163.05,16601.1
6056.94,16707.2
5973.57,16832
5966.54,16848.9
5905.77,16848.9
5358.7,16301.9
5368.35,16278.6
5396.12,16139
5396.12,15996.7
5368.35,15857.1
5365.01,15849
6138.2,15849
6190.14,15965.2
6324.28,16032.5
6468.97,16072.3
6618.65,16083.1
6767.55,16064.5
6909.97,16017.2
7007.21,15965.2
7033.81,15905.7
13469.7,15905.7
13515.5,16017.8
14123.7,16017.8
14123.7,15409.8
14011.5,15363.8
13917.4,15392.4
13790.5,15455.4
13678.4,15541.9
13585.3,15648.6
13514.8,15771.5
13469.7,15905.7
7033.81,15905.7
7059.16,15849
6598.68,15388.5
6138.2,15849
5365.01,15849
5313.89,15725.6
5234.83,15607.3
5134.2,15506.7
5015.88,15427.6
4884.4,15373.1
4744.83,15345.4
4602.52,15345.4
4462.95,15373.1
4439.64,15382.8
4394.64,15337.8
5833.44,15337.8
5852.04,15486.7
5899.33,15629.1
5951.31,15726.4
6067.48,15778.3
6527.96,15317.8
6669.39,15317.8
7129.87,15778.3
7246.04,15726.4
7313.3,15592.2
7353.1,15447.5
7363.91,15297.9
7345.31,15148.9
7298.02,15006.5
7246.04,14909.3
7129.87,14857.3
6669.39,15317.8
6527.96,15317.8
6067.48,14857.3
5951.31,14909.3
5884.05,15043.4
5844.25,15188.1
5833.44,15337.8
4394.64,15337.8
4089,15032.2
4079.01,15020
4030.46,14980.1
3975.06,14950.5
3914.94,14932.3
3868.09,14927.7
3868.09,14927.7
3852.43,14926.1
3836.76,14927.7
3630.43,14927.7
3602.87,14886.4
3524.18,14807.7
3492.59,14786.6
6138.2,14786.6
6598.68,15247.1
7059.16,14786.6
7007.21,14670.5
6873.07,14603.2
6728.38,14563.4
6578.7,14552.6
6429.8,14571.2
6287.38,14618.5
6190.14,14670.5
6138.2,14786.6
3492.59,14786.6
3431.65,14745.9
3328.83,14703.3
3219.68,14681.6
3108.39,14681.6
2999.24,14703.3
2896.43,14745.9
2803.9,14807.7
2725.2,14886.4
2698.13,14927
2449.87,14678.7
2538.47,14661.1
2641.28,14618.5
2733.82,14556.7
2812.51,14478
2874.34,14385.4
2916.92,14282.6
2938.64,14173.5
2938.64,14062.2
2928.96,14013.5
3863.09,13079.4
3875.26,13069.4
3915.11,13020.8
3933.29,12986.8
3944.72,12965.4
3953.44,12936.7
3962.96,12905.3
3967.57,12858.5
3967.57,12858.5
3969.12,12842.8
3967.57,12827.2
3967.57,12483.5
3969.12,12467.8
3967.57,12452.2
3962.96,12405.3
3944.72,12345.2
3915.11,12289.8
3915.11,12289.8
3903.04,12275.1
3875.26,12241.2
3863.09,12231.2
2542.57,10910.7
2542.57,6521.67
2626.23,6521.67
2626.23,6663.98
2654,6803.55
2708.46,6935.03
2787.52,7053.35
2888.15,7153.98
3006.47,7233.04
3029.78,7242.69
3029.78,8727.15
3028.23,8742.82
3034.39,8805.34
3052.63,8865.45
3082.24,8920.85
3090.03,8930.34
3122.09,8969.41
3134.26,8979.39
3988.65,9833.79
3979,9857.09
3951.23,9996.67
3951.23,10139
3979,10278.6
4033.46,10410
4112.52,10528.4
4213.15,10629
4331.47,10708
4462.95,10762.5
4602.52,10790.3
4744.83,10790.3
4884.4,10762.5
4907.71,10752.8
5983.49,11828.6
5983.49,12380.8
5988.32,12429.8
6002.61,12476.9
6025.83,12520.4
6057.07,12558.4
6095.13,12589.7
6138.56,12612.9
6185.69,12627.2
6234.7,12632
7612.65,12632
7661.66,12627.2
7708.79,12612.9
7752.22,12589.7
7790.28,12558.4
7821.52,12520.4
7844.74,12476.9
7859.03,12429.8
7863.86,12380.8
7863.86,11317.8
7859.03,11268.8
7844.74,11221.7
7823.89,11182.7
8051.63,11182.7
8051.63,11453
8104.36,11718
8207.78,11967.7
8357.94,12192.5
8549.05,12383.6
8773.77,12533.7
9023.46,12637.1
9288.54,12689.9
9558.81,12689.9
9823.89,12637.1
10073.6,12533.7
10298.3,12383.6
10489.4,12192.5
10639.6,11967.7
10743,11718
10795.7,11453
10795.7,11182.7
10743,10917.6
10639.6,10667.9
10489.4,10443.2
10298.3,10252.1
10073.6,10101.9
9823.89,9998.5
9558.81,9945.77
9288.54,9945.77
9023.46,9998.5
8773.77,10101.9
8549.05,10252.1
8357.94,10443.2
8207.78,10667.9
8104.36,10917.6
8051.63,11182.7
7823.89,11182.7
7821.52,11178.3
7790.28,11140.2
7752.22,11108.9
7708.79,11085.7
7661.66,11071.4
7612.65,11066.6
6234.7,11066.6
6185.69,11071.4
6141.64,11084.8
5358.7,10301.9
5368.35,10278.6
5396.12,10139
5396.12,9996.67
5368.35,9857.09
5313.89,9725.62
5240.16,9615.26
5369.83,9615.26
5509.4,9587.5
5640.88,9533.04
5759.2,9453.98
5859.83,9353.35
5938.89,9235.03
5948.55,9211.72
6241.67,9211.72
6257.34,9213.26
6273,9211.72
6273,9211.72
6319.85,9207.11
6379.96,9188.87
6435.36,9159.26
6483.92,9119.41
6493.91,9107.24
6936.5,8664.65
7018.04,8731.56
7146.96,8800.48
7286.85,8842.91
7432.34,8857.24
7577.82,8842.91
7717.71,8800.48
7846.63,8731.56
7959.64,8638.82
8052.38,8525.82
8121.29,8396.9
8163.72,8257
8174.46,8147.98
8174.46,8147.98
8835.88,8147.98
8846.62,8257
8889.05,8396.9
8957.97,8525.82
9050.7,8638.82
9163.71,8731.56
9292.63,8800.48
9432.52,8842.91
9539.84,8853.48
10983.5,10297.1
10983.5,11317.8
10988.3,11366.8
11002.6,11414
11025.8,11457.4
11057.1,11495.5
11095.1,11526.7
11138.6,11549.9
11185.7,11564.2
11234.7,11569
12612.7,11569
12661.7,11564.2
12708.8,11549.9
12752.2,11526.7
12790.3,11495.5
12821.5,11457.4
12844.7,11414
12859,11366.8
12863.9,11317.8
12863.9,10254.8
12859,10205.8
12844.7,10158.7
12821.5,10115.3
12790.3,10077.2
12752.2,10046
12708.8,10022.7
12661.7,10008.4
12612.7,10003.6
11592,10003.6
10192,8603.65
10980.3,8603.65
10985.2,8652.66
10999.5,8699.78
11022.7,8743.21
11053.9,8781.28
11092,8812.52
11135.4,8835.74
11182.5,8850.03
11231.5,8854.86
11611.2,8853.65
11673.7,8791.15
11673.7,7767.82
11773.7,7767.82
11773.7,8791.15
11836.2,8853.65
12215.8,8854.86
12264.8,8850.03
12300,8839.35
13448.1,8839.35
13466.2,8980.5
13511.5,9115.39
13558.4,9203.05
13670.5,9250.25
14103,8817.82
14244.4,8817.82
14676.8,9250.25
14789,9203.05
14852.3,9075.61
14889.5,8938.27
14899.3,8796.29
14881.1,8655.15
14835.8,8520.25
14789,8432.59
14676.8,8385.39
14244.4,8817.82
14103,8817.82
13670.5,8385.39
13558.4,8432.59
13495.1,8560.03
13457.8,8697.38
13448.1,8839.35
12300,8839.35
12311.9,8835.74
12355.4,8812.52
12393.4,8781.28
12424.7,8743.21
12447.9,8699.78
12462.2,8652.66
12467,8603.65
12466.6,8314.68
13741.2,8314.68
14173.7,8747.11
14606.1,8314.68
14558.9,8202.53
14431.5,8139.2
14294.1,8101.95
14152.1,8092.21
14011,8110.35
13876.1,8155.68
13788.4,8202.53
13741.2,8314.68
12466.6,8314.68
12465.8,7830.32
12403.3,7767.82
11773.7,7767.82
11673.7,7767.82
11044,7767.82
10981.5,7830.32
10980.3,8603.65
10192,8603.65
10160.2,8571.9
10198,8525.82
10267,8396.9
10309.4,8257
10320.1,8147.98
10320.1,7287.67
10309.4,7178.64
10267,7038.75
10198,6909.82
10134.2,6832
10980.3,6832
10981.5,7605.32
11044,7667.82
11673.7,7667.82
11673.7,6644.5
11773.7,6644.5
11773.7,7667.82
12403.3,7667.82
12465.8,7605.32
12467,6832
12462.2,6782.99
12447.9,6735.86
12424.7,6692.43
12393.4,6654.36
12355.4,6623.12
12311.9,6599.91
12264.8,6585.61
12215.8,6580.79
11836.2,6582
11773.7,6644.5
11673.7,6644.5
11611.2,6582
11231.5,6580.79
11182.5,6585.61
11135.4,6599.91
11092,6623.12
11053.9,6654.36
11022.7,6692.43
10999.5,6735.86
10985.2,6782.99
10980.3,6832
10134.2,6832
10105.3,6796.82
9992.3,6704.08
9863.38,6635.17
9723.49,6592.73
9578.01,6578.4
9432.52,6592.73
9292.63,6635.17
9163.71,6704.08
9050.71,6796.82
8957.97,6909.82
8889.05,7038.75
8846.62,7178.64
8835.88,7287.67
8835.88,8147.98
8174.46,8147.98
8174.46,7287.67
8163.72,7178.64
8121.29,7038.75
8052.38,6909.82
7959.64,6796.82
7846.63,6704.08
7717.71,6635.17
7577.82,6592.73
7432.34,6578.4
7286.86,6592.73
7146.96,6635.17
7018.04,6704.08
6905.04,6796.82
6812.3,6909.82
6743.38,7038.75
6700.95,7178.64
6690.21,7287.67
6690.21,8008.96
6125.25,8573.92
5948.55,8573.92
5938.89,8550.62
5859.83,8432.29
5759.2,8331.67
5640.88,8252.6
5509.4,8198.14
5369.83,8170.38
5227.52,8170.38
5087.95,8198.14
4956.47,8252.6
4838.15,8331.67
4737.52,8432.29
4658.46,8550.62
4604,8682.09
4576.23,8821.67
4576.23,8963.98
4604,9103.55
4658.46,9235.03
4732.19,9345.38
4602.52,9345.38
4462.95,9373.14
4439.64,9382.8
3667.57,8610.73
3667.57,7242.69
3690.88,7233.04
3809.2,7153.98
3909.83,7053.35
3988.89,6935.03
4043.35,6803.55
4071.12,6663.98
4071.12,6521.67
4043.35,6382.09
3988.89,6250.62
3909.83,6132.29
3809.2,6031.67
3690.88,5952.6
3559.4,5898.14
3419.83,5870.38
3277.52,5870.38
3137.95,5898.14
3006.47,5952.6
2888.15,6031.67
2787.52,6132.29
2708.46,6250.62
2654,6382.09
2626.23,6521.67
2542.57,6521.67
2542.57,5655.24
7600.68,5655.24
7616.69,5708.01
7664.01,5808.14
7729.97,5897.12
7812.01,5971.52
7906.99,6028.48
8011.26,6065.82
8098.68,6018.07
8098.68,5567.82
8198.68,5567.82
8198.68,6018.07
8286.09,6065.82
8390.36,6028.48
8485.34,5971.52
8567.38,5897.12
8633.34,5808.14
8680.66,5708.01
8696.67,5655.24
8648.64,5567.82
8198.68,5567.82
8098.68,5567.82
7648.71,5567.82
7600.68,5655.24
2542.57,5655.24
2542.57,4149.91
4580.77,2111.72
5491.58,2111.72
5626.52,2246.65
5509.4,2198.14
5369.83,2170.38
5227.52,2170.38
5087.95,2198.14
4956.47,2252.6
4838.15,2331.67
4737.52,2432.29
4658.46,2550.62
4604,2682.09
4576.23,2821.67
4576.23,2963.98
4604,3103.55
4658.46,3235.03
4737.52,3353.35
4838.15,3453.98
4956.47,3533.04
5087.95,3587.5
5227.52,3615.26
5369.83,3615.26
5509.4,3587.5
5532.71,3577.85
6687.1,4732.24
6697.09,4744.41
6745.65,4784.26
6801.05,4813.87
6861.16,4832.11
6908.01,4836.72
6908.01,4836.72
6923.67,4838.26
6939.34,4836.72
7682.28,4836.72
7709.84,4877.96
7788.53,4956.66
7881.07,5018.48
7885.24,5020.21
7812.01,5064.13
7729.97,5138.53
7664.01,5227.5
7616.69,5327.63
7600.68,5380.41
7648.71,5467.82
8098.68,5467.82
8098.68,5459.95
8198.68,5459.95
8198.68,5467.82
8648.64,5467.82
8696.67,5380.41
8680.66,5327.63
8633.34,5227.5
8567.38,5138.53
8485.34,5064.13
8412.11,5020.21
8416.28,5018.48
8508.82,4956.66
8587.51,4877.96
8649.34,4785.43
8691.92,4682.61
8713.64,4573.47
8713.64,4462.18
8691.92,4353.03
8649.34,4250.21
8587.51,4157.68
8508.82,4078.99
8417.27,4017.82
8508.82,3956.66
8587.51,3877.96
8649.34,3785.43
8691.92,3682.61
8713.64,3573.47
8713.64,3462.18
8691.92,3353.03
8649.34,3250.21
8587.51,3157.68
8509.32,3079.49
8512.64,3079.17
8559.77,3064.87
8603.2,3041.66
8641.27,3010.41
8672.51,2972.35
8695.72,2928.92
8710.02,2881.79
8714.85,2832.78
8714.85,2202.86
8710.02,2153.85
8695.72,2106.73
8672.51,2063.3
8641.27,2025.23
8603.2,1993.99
8559.77,1970.77
8512.64,1956.48
8463.64,1951.65
7833.71,1951.65
7784.71,1956.48
7737.58,1970.77
7694.15,1993.99
7656.08,2025.23
7624.84,2063.3
7601.63,2106.73
7587.33,2153.85
7582.51,2202.86
7582.51,2832.78
7587.33,2881.79
7601.63,2928.92
7624.84,2972.35
7656.08,3010.41
7694.15,3041.66
7737.58,3064.87
7784.71,3079.17
7788.03,3079.49
7709.84,3157.68
7682.28,3198.92
7480.77,3198.92
6382.49,2100.64
6421.3,2088.87
6476.7,2059.26
6525.26,2019.41
6535.25,2007.24
7522.75,1019.74
7522.75,1019.74
7693.27,849.22
8568.3,849.22
Z" /> 
<path style="fill:#000000; fill-opacity:1.0; 
stroke:#000000; stroke-width:100; stroke-opacity:1; 
stroke-linecap:round; stroke-linejoin:round;fill-rule:evenodd;"
d="M 1898.68,11166.1
1090.04,13108.3
1057.21,13040.1
790.28,12346.1
580.799,11632.7
430.166,10904.6
339.383,10166.6
309.056,9423.68
339.383,8680.75
430.166,7942.77
580.799,7214.64
790.28,6501.21
1057.21,5807.24
1379.83,5137.33
1755.97,4495.94
1898.68,4292.63
Z" /> 
<path style="fill:#000000; fill-opacity:1.0; 
stroke:#000000; stroke-width:100; stroke-opacity:1; 
stroke-linecap:round; stroke-linejoin:round;fill-rule:evenodd;"
d="M 6152.96,1417.82
5074.96,1417.82
5637.33,1132.73
6325.71,851.69
6900.77,670.018
Z" /> 
<path style="fill:#000000; fill-opacity:1.0; 
stroke:#000000; stroke-width:100; stroke-opacity:1; 
stroke-linecap:round; stroke-linejoin:round;fill-rule:evenodd;"
d="M 16515.4,4893.65
16515.4,5240.26
15615.4,5240.26
15615.4,5187.9
15614.4,5178.15
15611.6,5168.77
15607,5160.12
15600.8,5152.55
14427.5,3979.24
15014.2,3392.47
Z" /> 
<path style="fill:#000000; fill-opacity:1.0; 
stroke:#000000; stroke-width:100; stroke-opacity:1; 
stroke-linecap:round; stroke-linejoin:round;fill-rule:evenodd;"
d="M 13196.7,2502.57
13196.7,2874.28
12553.7,2231.29
12546.1,2225.07
12537.5,2220.45
12528.1,2217.6
12518.3,2216.64
12479.4,2216.64
12436.2,2203.54
12389.3,2198.92
12389.3,2198.92
12373.7,2197.38
12358,2198.92
11879.6,2198.92
11267.4,1586.72
12360.3,1586.72
Z" /> 
</g>
</g>
<g style="fill:#FFFFFF; fill-opacity:1.0; 
stroke:#FFFFFF; stroke-width:100; stroke-opacity:1; 
stroke-linecap:round; stroke-linejoin:round;">
</g>
<g style="fill:#FFFFFF; fill-opacity:1.0; 
stroke:#FFFFFF; stroke-width:0; stroke-opacity:1; 
stroke-linecap:round; stroke-linejoin:round;">
<circle cx="2306.79" cy="12501.7" r="236.22" /> 
</g>
<g style="fill:#FFFFFF; fill-opacity:1.0; 
stroke:#FFFFFF; stroke-width:98.4252; stroke-opacity:1; 
stroke-linecap:round; stroke-linejoin:round;">
</g>
<g style="fill:#FFFFFF; fill-opacity:1.0; 
stroke:#FFFFFF; stroke-width:0; stroke-opacity:1; 
stroke-linecap:round; stroke-linejoin:round;">
<circle cx="3348.68" cy="6592.82" r="236.22" /> 
</g>
<g style="fill:#FFFFFF; fill-opacity:1.0; 
stroke:#FFFFFF; stroke-width:98.4252; stroke-opacity:1; 
stroke-linecap:round; stroke-linejoin:round;">
</g>
<g style="fill:#FFFFFF; fill-opacity:1.0; 
stroke:#FFFFFF; stroke-width:0; stroke-opacity:1; 
stroke-linecap:round; stroke-linejoin:round;">
<circle cx="6648.68" cy="17192.8" r="255.906" /> 
</g>
<g style="fill:#FFFFFF; fill-opacity:1.0; 
stroke:#FFFFFF; stroke-width:98.4252; stroke-opacity:1; 
stroke-linecap:round; stroke-linejoin:round;">
</g>
<g style="fill:#FFFFFF; fill-opacity:1.0; 
stroke:#FFFFFF; stroke-width:0; stroke-opacity:1; 
stroke-linecap:round; stroke-linejoin:round;">
<circle cx="10373.7" cy="17242.8" r="344.488" /> 
</g>
<g style="fill:#FFFFFF; fill-opacity:1.0; 
stroke:#FFFFFF; stroke-width:98.4252; stroke-opacity:1; 
stroke-linecap:round; stroke-linejoin:round;">
</g>
<g style="fill:#FFFFFF; fill-opacity:1.0; 
stroke:#FFFFFF; stroke-width:0; stroke-opacity:1; 
stroke-linecap:round; stroke-linejoin:round;">
<circle cx="8846.12" cy="17242.8" r="344.488" /> 
</g>
<g style="fill:#FFFFFF; fill-opacity:1.0; 
stroke:#FFFFFF; stroke-width:98.4252; stroke-opacity:1; 
stroke-linecap:round; stroke-linejoin:round;">
</g>
<g style="fill:#FFFFFF; fill-opacity:1.0; 
stroke:#FFFFFF; stroke-width:0; stroke-opacity:1; 
stroke-linecap:round; stroke-linejoin:round;">
<circle cx="6598.68" cy="15317.8" r="255.906" /> 
</g>
<g style="fill:#FFFFFF; fill-opacity:1.0; 
stroke:#FFFFFF; stroke-width:98.4252; stroke-opacity:1; 
stroke-linecap:round; stroke-linejoin:round;">
</g>
<g style="fill:#FFFFFF; fill-opacity:1.0; 
stroke:#FFFFFF; stroke-width:0; stroke-opacity:1; 
stroke-linecap:round; stroke-linejoin:round;">
<circle cx="6673.68" cy="13442.8" r="255.906" /> 
</g>
<g style="fill:#FFFFFF; fill-opacity:1.0; 
stroke:#FFFFFF; stroke-width:98.4252; stroke-opacity:1; 
stroke-linecap:round; stroke-linejoin:round;">
</g>
<g style="fill:#FFFFFF; fill-opacity:1.0; 
stroke:#FFFFFF; stroke-width:0; stroke-opacity:1; 
stroke-linecap:round; stroke-linejoin:round;">
<circle cx="11723.7" cy="7717.82" r="295.276" /> 
</g>
<g style="fill:#FFFFFF; fill-opacity:1.0; 
stroke:#FFFFFF; stroke-width:98.4252; stroke-opacity:1; 
stroke-linecap:round; stroke-linejoin:round;">
</g>
<g style="fill:#FFFFFF; fill-opacity:1.0; 
stroke:#FFFFFF; stroke-width:0; stroke-opacity:1; 
stroke-linecap:round; stroke-linejoin:round;">
<circle cx="9578.01" cy="7717.82" r="295.276" /> 
</g>
<g style="fill:#FFFFFF; fill-opacity:1.0; 
stroke:#FFFFFF; stroke-width:98.4252; stroke-opacity:1; 
stroke-linecap:round; stroke-linejoin:round;">
</g>
<g style="fill:#FFFFFF; fill-opacity:1.0; 
stroke:#FFFFFF; stroke-width:0; stroke-opacity:1; 
stroke-linecap:round; stroke-linejoin:round;">
<circle cx="7432.34" cy="7717.82" r="295.276" /> 
</g>
<g style="fill:#FFFFFF; fill-opacity:1.0; 
stroke:#FFFFFF; stroke-width:98.4252; stroke-opacity:1; 
stroke-linecap:round; stroke-linejoin:round;">
</g>
<g style="fill:#FFFFFF; fill-opacity:1.0; 
stroke:#FFFFFF; stroke-width:0; stroke-opacity:1; 
stroke-linecap:round; stroke-linejoin:round;">
<circle cx="8948.68" cy="1267.82" r="157.48" /> 
</g>
<g style="fill:#FFFFFF; fill-opacity:1.0; 
stroke:#FFFFFF; stroke-width:98.4252; stroke-opacity:1; 
stroke-linecap:round; stroke-linejoin:round;">
</g>
<g style="fill:#FFFFFF; fill-opacity:1.0; 
stroke:#FFFFFF; stroke-width:0; stroke-opacity:1; 
stroke-linecap:round; stroke-linejoin:round;">
<circle cx="10326.6" cy="1267.82" r="157.48" /> 
</g>
<g style="fill:#FFFFFF; fill-opacity:1.0; 
stroke:#FFFFFF; stroke-width:98.4252; stroke-opacity:1; 
stroke-linecap:round; stroke-linejoin:round;">
</g>
<g style="fill:#FFFFFF; fill-opacity:1.0; 
stroke:#FFFFFF; stroke-width:0; stroke-opacity:1; 
stroke-linecap:round; stroke-linejoin:round;">
<circle cx="15834.7" cy="15336.2" r="157.48" /> 
</g>
<g style="fill:#FFFFFF; fill-opacity:1.0; 
stroke:#FFFFFF; stroke-width:98.4252; stroke-opacity:1; 
stroke-linecap:round; stroke-linejoin:round;">
</g>
<g style="fill:#FFFFFF; fill-opacity:1.0; 
stroke:#FFFFFF; stroke-width:0; stroke-opacity:1; 
stroke-linecap:round; stroke-linejoin:round;">
<circle cx="16523.7" cy="14142.8" r="157.48" /> 
</g>
<g style="fill:#FFFFFF; fill-opacity:1.0; 
stroke:#FFFFFF; stroke-width:98.4252; stroke-opacity:1; 
stroke-linecap:round; stroke-linejoin:round;">
</g>
<g style="fill:#FFFFFF; fill-opacity:1.0; 
stroke:#FFFFFF; stroke-width:0; stroke-opacity:1; 
stroke-linecap:round; stroke-linejoin:round;">
<circle cx="14173.7" cy="2817.82" r="236.22" /> 
</g>
<g style="fill:#FFFFFF; fill-opacity:1.0; 
stroke:#FFFFFF; stroke-width:98.4252; stroke-opacity:1; 
stroke-linecap:round; stroke-linejoin:round;">
</g>
<g style="fill:#FFFFFF; fill-opacity:1.0; 
stroke:#FFFFFF; stroke-width:0; stroke-opacity:1; 
stroke-linecap:round; stroke-linejoin:round;">
<circle cx="14173.7" cy="8817.82" r="236.22" /> 
</g>
<g style="fill:#FFFFFF; fill-opacity:1.0; 
stroke:#FFFFFF; stroke-width:98.4252; stroke-opacity:1; 
stroke-linecap:round; stroke-linejoin:round;">
</g>
<g style="fill:#FFFFFF; fill-opacity:1.0; 
stroke:#FFFFFF; stroke-width:0; stroke-opacity:1; 
stroke-linecap:round; stroke-linejoin:round;">
<circle cx="3164.04" cy="15246.6" r="157.48" /> 
</g>
<g style="fill:#FFFFFF; fill-opacity:1.0; 
stroke:#FFFFFF; stroke-width:98.4252; stroke-opacity:1; 
stroke-linecap:round; stroke-linejoin:round;">
</g>
<g style="fill:#FFFFFF; fill-opacity:1.0; 
stroke:#FFFFFF; stroke-width:0; stroke-opacity:1; 
stroke-linecap:round; stroke-linejoin:round;">
<circle cx="2373.68" cy="14117.8" r="157.48" /> 
</g>
<g style="fill:#FFFFFF; fill-opacity:1.0; 
stroke:#FFFFFF; stroke-width:98.4252; stroke-opacity:1; 
stroke-linecap:round; stroke-linejoin:round;">
</g>
<g style="fill:#FFFFFF; fill-opacity:1.0; 
stroke:#FFFFFF; stroke-width:0; stroke-opacity:1; 
stroke-linecap:round; stroke-linejoin:round;">
<circle cx="5298.68" cy="8892.82" r="236.22" /> 
</g>
<g style="fill:#FFFFFF; fill-opacity:1.0; 
stroke:#FFFFFF; stroke-width:98.4252; stroke-opacity:1; 
stroke-linecap:round; stroke-linejoin:round;">
</g>
<g style="fill:#FFFFFF; fill-opacity:1.0; 
stroke:#FFFFFF; stroke-width:0; stroke-opacity:1; 
stroke-linecap:round; stroke-linejoin:round;">
<circle cx="5298.68" cy="2892.82" r="236.22" /> 
</g>
<g style="fill:#FFFFFF; fill-opacity:1.0; 
stroke:#FFFFFF; stroke-width:98.4252; stroke-opacity:1; 
stroke-linecap:round; stroke-linejoin:round;">
</g>
<g style="fill:#FFFFFF; fill-opacity:1.0; 
stroke:#FFFFFF; stroke-width:0; stroke-opacity:1; 
stroke-linecap:round; stroke-linejoin:round;">
<circle cx="4673.68" cy="10067.8" r="236.22" /> 
</g>
<g style="fill:#FFFFFF; fill-opacity:1.0; 
stroke:#FFFFFF; stroke-width:98.4252; stroke-opacity:1; 
stroke-linecap:round; stroke-linejoin:round;">
</g>
<g style="fill:#FFFFFF; fill-opacity:1.0; 
stroke:#FFFFFF; stroke-width:0; stroke-opacity:1; 
stroke-linecap:round; stroke-linejoin:round;">
<circle cx="4673.68" cy="16067.8" r="236.22" /> 
</g>
<g style="fill:#FFFFFF; fill-opacity:1.0; 
stroke:#FFFFFF; stroke-width:98.4252; stroke-opacity:1; 
stroke-linecap:round; stroke-linejoin:round;">
</g>
<g style="fill:#FFFFFF; fill-opacity:1.0; 
stroke:#FFFFFF; stroke-width:0; stroke-opacity:1; 
stroke-linecap:round; stroke-linejoin:round;">
<circle cx="16398.7" cy="12617.8" r="236.22" /> 
</g>
<g style="fill:#FFFFFF; fill-opacity:1.0; 
stroke:#FFFFFF; stroke-width:98.4252; stroke-opacity:1; 
stroke-linecap:round; stroke-linejoin:round;">
</g>
<g style="fill:#FFFFFF; fill-opacity:1.0; 
stroke:#FFFFFF; stroke-width:0; stroke-opacity:1; 
stroke-linecap:round; stroke-linejoin:round;">
<circle cx="16398.7" cy="6617.82" r="236.22" /> 
</g>
<g style="fill:#FFFFFF; fill-opacity:1.0; 
stroke:#FFFFFF; stroke-width:98.4252; stroke-opacity:1; 
stroke-linecap:round; stroke-linejoin:round;">
</g>
<g style="fill:#FFFFFF; fill-opacity:1.0; 
stroke:#FFFFFF; stroke-width:0; stroke-opacity:1; 
stroke-linecap:round; stroke-linejoin:round;">
<circle cx="14173.7" cy="16067.8" r="236.22" /> 
</g>
<g style="fill:#FFFFFF; fill-opacity:1.0; 
stroke:#FFFFFF; stroke-width:98.4252; stroke-opacity:1; 
stroke-linecap:round; stroke-linejoin:round;">
</g>
<g style="fill:#FFFFFF; fill-opacity:1.0; 
stroke:#FFFFFF; stroke-width:0; stroke-opacity:1; 
stroke-linecap:round; stroke-linejoin:round;">
<circle cx="14173.7" cy="10067.8" r="236.22" /> 
</g>
<g style="fill:#FFFFFF; fill-opacity:1.0; 
stroke:#FFFFFF; stroke-width:98.4252; stroke-opacity:1; 
stroke-linecap:round; stroke-linejoin:round;">
</g>
<g style="fill:#FFFFFF; fill-opacity:1.0; 
stroke:#FFFFFF; stroke-width:0; stroke-opacity:1; 
stroke-linecap:round; stroke-linejoin:round;">
<circle cx="8148.68" cy="2517.82" r="157.48" /> 
</g>
<g style="fill:#FFFFFF; fill-opacity:1.0; 
stroke:#FFFFFF; stroke-width:98.4252; stroke-opacity:1; 
stroke-linecap:round; stroke-linejoin:round;">
</g>
<g style="fill:#FFFFFF; fill-opacity:1.0; 
stroke:#FFFFFF; stroke-width:0; stroke-opacity:1; 
stroke-linecap:round; stroke-linejoin:round;">
<circle cx="11148.7" cy="5517.82" r="157.48" /> 
</g>
<g style="fill:#FFFFFF; fill-opacity:1.0; 
stroke:#FFFFFF; stroke-width:98.4252; stroke-opacity:1; 
stroke-linecap:round; stroke-linejoin:round;">
</g>
<g style="fill:#FFFFFF; fill-opacity:1.0; 
stroke:#FFFFFF; stroke-width:0; stroke-opacity:1; 
stroke-linecap:round; stroke-linejoin:round;">
<circle cx="8148.68" cy="3517.82" r="157.48" /> 
</g>
<g style="fill:#FFFFFF; fill-opacity:1.0; 
stroke:#FFFFFF; stroke-width:98.4252; stroke-opacity:1; 
stroke-linecap:round; stroke-linejoin:round;">
</g>
<g style="fill:#FFFFFF; fill-opacity:1.0; 
stroke:#FFFFFF; stroke-width:0; stroke-opacity:1; 
stroke-linecap:round; stroke-linejoin:round;">
<circle cx="11148.7" cy="4517.82" r="157.48" /> 
</g>
<g style="fill:#FFFFFF; fill-opacity:1.0; 
stroke:#FFFFFF; stroke-width:98.4252; stroke-opacity:1; 
stroke-linecap:round; stroke-linejoin:round;">
</g>
<g style="fill:#FFFFFF; fill-opacity:1.0; 
stroke:#FFFFFF; stroke-width:0; stroke-opacity:1; 
stroke-linecap:round; stroke-linejoin:round;">
<circle cx="8148.68" cy="4517.82" r="157.48" /> 
</g>
<g style="fill:#FFFFFF; fill-opacity:1.0; 
stroke:#FFFFFF; stroke-width:98.4252; stroke-opacity:1; 
stroke-linecap:round; stroke-linejoin:round;">
</g>
<g style="fill:#FFFFFF; fill-opacity:1.0; 
stroke:#FFFFFF; stroke-width:0; stroke-opacity:1; 
stroke-linecap:round; stroke-linejoin:round;">
<circle cx="11148.7" cy="3517.82" r="157.48" /> 
</g>
<g style="fill:#FFFFFF; fill-opacity:1.0; 
stroke:#FFFFFF; stroke-width:98.4252; stroke-opacity:1; 
stroke-linecap:round; stroke-linejoin:round;">
</g>
<g style="fill:#FFFFFF; fill-opacity:1.0; 
stroke:#FFFFFF; stroke-width:0; stroke-opacity:1; 
stroke-linecap:round; stroke-linejoin:round;">
<circle cx="8148.68" cy="5517.82" r="157.48" /> 
</g>
<g style="fill:#FFFFFF; fill-opacity:1.0; 
stroke:#FFFFFF; stroke-width:98.4252; stroke-opacity:1; 
stroke-linecap:round; stroke-linejoin:round;">
</g>
<g style="fill:#FFFFFF; fill-opacity:1.0; 
stroke:#FFFFFF; stroke-width:0; stroke-opacity:1; 
stroke-linecap:round; stroke-linejoin:round;">
<circle cx="11148.7" cy="2517.82" r="157.48" /> 
</g>
<g style="fill:#FFFFFF; fill-opacity:1.0; 
stroke:#FFFFFF; stroke-width:98.4252; stroke-opacity:1; 
stroke-linecap:round; stroke-linejoin:round;">
</g>
<g style="fill:#000000; fill-opacity:1.0; 
stroke:#000000; stroke-width:98.4252; stroke-opacity:1; 
stroke-linecap:round; stroke-linejoin:round;">
</g>
<g style="fill:#000000; fill-opacity:0.0; 
stroke:#000000; stroke-width:59.0551; stroke-opacity:1; 
stroke-linecap:round; stroke-linejoin:round;">
<circle cx="9423.68" cy="9423.68" r="9394.15" /> 
<g >
</g>
<g >
</g>
<g >
</g>
<g >
</g>
<g >
</g>
<g >
</g>
<g >
</g>
<g >
</g>
<g >
</g>
<g >
</g>
<g >
</g>
<g >
</g>
<g >
</g>
<g >
</g>
<g >
</g>
<g >
</g>
<g >
</g>
</g> 
</svg>
