<?xml version="1.0" standalone="no"?>
 <!DOCTYPE svg PUBLIC "-//W3C//DTD SVG 1.1//EN" 
 "http://www.w3.org/Graphics/SVG/1.1/DTD/svg11.dtd"> 
<svg
  xmlns:svg="http://www.w3.org/2000/svg"
  xmlns="http://www.w3.org/2000/svg"
  xmlns:xlink="http://www.w3.org/1999/xlink"
  version="1.1"
  width="4.785360cm" height="4.785360cm" viewBox="0 0 18840 18840">
<title>SVG Picture created as Breath_PCB-brd.svg date 2020/08/01 12:15:21 </title>
  <desc>Picture generated by PCBNEW </desc>
<g style="fill:#000000; fill-opacity:1;stroke:#000000; stroke-opacity:1;
stroke-linecap:round; stroke-linejoin:round;"
 transform="translate(0 0) scale(1 1)">
</g>
<g style="fill:#000000; fill-opacity:0.0; 
stroke:#000000; stroke-width:-0.000393701; stroke-opacity:1; 
stroke-linecap:round; stroke-linejoin:round;">
<g >
</g>
<g style="fill:#000000; fill-opacity:0.0; 
stroke:#000000; stroke-width:944.882; stroke-opacity:1; 
stroke-linecap:round; stroke-linejoin:round;">
<path d="M2306 12501
L2306 12501
" />
</g>
<g style="fill:#000000; fill-opacity:1.0; 
stroke:#000000; stroke-width:0; stroke-opacity:1; 
stroke-linecap:round; stroke-linejoin:round;">
<circle cx="3348.68" cy="6592.82" r="472.441" /> 
</g>
<g style="fill:#000000; fill-opacity:1.0; 
stroke:#000000; stroke-width:98.4252; stroke-opacity:1; 
stroke-linecap:round; stroke-linejoin:round;">
</g>
<g >
</g>
<g style="fill:#000000; fill-opacity:1.0; 
stroke:#000000; stroke-width:98.4252; stroke-opacity:1; 
stroke-linecap:round; stroke-linejoin:round;">
</g>
<g style="fill:#000000; fill-opacity:1.0; 
stroke:#000000; stroke-width:0; stroke-opacity:1; 
stroke-linecap:round; stroke-linejoin:round;">
<path style="fill:#000000; fill-opacity:1.0; 
stroke:#000000; stroke-width:0; stroke-opacity:1; 
stroke-linecap:round; stroke-linejoin:round;fill-rule:evenodd;"
d="M 7612.65,11317.8
7612.65,12380.8
6234.7,12380.8
6234.7,11317.8
Z" /> 
<path style="fill:#000000; fill-opacity:1.0; 
stroke:#000000; stroke-width:0; stroke-opacity:1; 
stroke-linecap:round; stroke-linejoin:round;fill-rule:evenodd;"
d="M 12612.7,10254.8
12612.7,11317.8
11234.7,11317.8
11234.7,10254.8
Z" /> 
<circle cx="9423.68" cy="11317.8" r="1122.05" /> 
</g>
<g style="fill:#000000; fill-opacity:1.0; 
stroke:#000000; stroke-width:98.4252; stroke-opacity:1; 
stroke-linecap:round; stroke-linejoin:round;">
</g>
<g >
</g>
<g style="fill:#000000; fill-opacity:1.0; 
stroke:#000000; stroke-width:98.4252; stroke-opacity:1; 
stroke-linecap:round; stroke-linejoin:round;">
</g>
<g style="fill:#000000; fill-opacity:1.0; 
stroke:#000000; stroke-width:0; stroke-opacity:1; 
stroke-linecap:round; stroke-linejoin:round;">
<path style="fill:#000000; fill-opacity:1.0; 
stroke:#000000; stroke-width:0; stroke-opacity:1; 
stroke-linecap:round; stroke-linejoin:round;fill-rule:evenodd;"
d="M 10964.2,16652.3
10964.2,17833.4
9783.12,17833.4
9783.12,16652.3
Z" /> 
<circle cx="8846.12" cy="17242.8" r="590.551" /> 
</g>
<g style="fill:#000000; fill-opacity:1.0; 
stroke:#000000; stroke-width:98.4252; stroke-opacity:1; 
stroke-linecap:round; stroke-linejoin:round;">
</g>
<g >
</g>
<g style="fill:#000000; fill-opacity:1.0; 
stroke:#000000; stroke-width:98.4252; stroke-opacity:1; 
stroke-linecap:round; stroke-linejoin:round;">
</g>
<g style="fill:#000000; fill-opacity:1.0; 
stroke:#000000; stroke-width:0; stroke-opacity:1; 
stroke-linecap:round; stroke-linejoin:round;">
<circle cx="6673.68" cy="15317.8" r="511.811" /> 
</g>
<g style="fill:#000000; fill-opacity:1.0; 
stroke:#000000; stroke-width:98.4252; stroke-opacity:1; 
stroke-linecap:round; stroke-linejoin:round;">
</g>
<g >
</g>
<g style="fill:#000000; fill-opacity:1.0; 
stroke:#000000; stroke-width:98.4252; stroke-opacity:1; 
stroke-linecap:round; stroke-linejoin:round;">
</g>
<g style="fill:#000000; fill-opacity:1.0; 
stroke:#000000; stroke-width:0; stroke-opacity:1; 
stroke-linecap:round; stroke-linejoin:round;">
<path style="fill:#000000; fill-opacity:1.0; 
stroke:#000000; stroke-width:0; stroke-opacity:1; 
stroke-linecap:round; stroke-linejoin:round;fill-rule:evenodd;"
d="M 12215.8,6832
12215.8,8603.65
11231.5,8603.65
11231.5,6832
Z" /> 
</g>
<g style="fill:#000000; fill-opacity:1.0; 
stroke:#000000; stroke-width:984.252; stroke-opacity:1; 
stroke-linecap:round; stroke-linejoin:round;">
</g>
<g style="fill:#000000; fill-opacity:0.0; 
stroke:#000000; stroke-width:984.252; stroke-opacity:1; 
stroke-linecap:round; stroke-linejoin:round;">
<path d="M9578 8111
L9578 7324
" />
<path d="M7432 8111
L7432 7324
" />
</g>
<g >
</g>
<g style="fill:#000000; fill-opacity:0.0; 
stroke:#000000; stroke-width:984.252; stroke-opacity:1; 
stroke-linecap:round; stroke-linejoin:round;">
</g>
<g style="fill:#000000; fill-opacity:1.0; 
stroke:#000000; stroke-width:0; stroke-opacity:1; 
stroke-linecap:round; stroke-linejoin:round;">
<circle cx="8948.68" cy="1267.82" r="314.961" /> 
</g>
<g style="fill:#000000; fill-opacity:1.0; 
stroke:#000000; stroke-width:98.4252; stroke-opacity:1; 
stroke-linecap:round; stroke-linejoin:round;">
</g>
<g style="fill:#000000; fill-opacity:1.0; 
stroke:#000000; stroke-width:0; stroke-opacity:1; 
stroke-linecap:round; stroke-linejoin:round;">
<circle cx="10326.6" cy="1267.82" r="314.961" /> 
</g>
<g style="fill:#000000; fill-opacity:1.0; 
stroke:#000000; stroke-width:98.4252; stroke-opacity:1; 
stroke-linecap:round; stroke-linejoin:round;">
</g>
<g >
</g>
<g style="fill:#000000; fill-opacity:1.0; 
stroke:#000000; stroke-width:98.4252; stroke-opacity:1; 
stroke-linecap:round; stroke-linejoin:round;">
</g>
<g style="fill:#000000; fill-opacity:1.0; 
stroke:#000000; stroke-width:0; stroke-opacity:1; 
stroke-linecap:round; stroke-linejoin:round;">
<circle cx="15834.7" cy="15336.2" r="314.961" /> 
</g>
<g style="fill:#000000; fill-opacity:1.0; 
stroke:#000000; stroke-width:98.4252; stroke-opacity:1; 
stroke-linecap:round; stroke-linejoin:round;">
</g>
<g style="fill:#000000; fill-opacity:1.0; 
stroke:#000000; stroke-width:0; stroke-opacity:1; 
stroke-linecap:round; stroke-linejoin:round;">
<circle cx="16523.7" cy="14142.8" r="314.961" /> 
</g>
<g style="fill:#000000; fill-opacity:1.0; 
stroke:#000000; stroke-width:98.4252; stroke-opacity:1; 
stroke-linecap:round; stroke-linejoin:round;">
</g>
<g >
</g>
<g style="fill:#000000; fill-opacity:1.0; 
stroke:#000000; stroke-width:98.4252; stroke-opacity:1; 
stroke-linecap:round; stroke-linejoin:round;">
</g>
<g style="fill:#000000; fill-opacity:1.0; 
stroke:#000000; stroke-width:944.882; stroke-opacity:1; 
stroke-linecap:round; stroke-linejoin:round;">
</g>
<g style="fill:#000000; fill-opacity:0.0; 
stroke:#000000; stroke-width:944.882; stroke-opacity:1; 
stroke-linecap:round; stroke-linejoin:round;">
<path d="M14173 2817
L14173 2817
" />
</g>
<g style="fill:#000000; fill-opacity:1.0; 
stroke:#000000; stroke-width:0; stroke-opacity:1; 
stroke-linecap:round; stroke-linejoin:round;">
<circle cx="14173.7" cy="8817.82" r="472.441" /> 
</g>
<g style="fill:#000000; fill-opacity:1.0; 
stroke:#000000; stroke-width:98.4252; stroke-opacity:1; 
stroke-linecap:round; stroke-linejoin:round;">
</g>
<g >
</g>
<g style="fill:#000000; fill-opacity:1.0; 
stroke:#000000; stroke-width:98.4252; stroke-opacity:1; 
stroke-linecap:round; stroke-linejoin:round;">
</g>
<g style="fill:#000000; fill-opacity:1.0; 
stroke:#000000; stroke-width:0; stroke-opacity:1; 
stroke-linecap:round; stroke-linejoin:round;">
<circle cx="3164.04" cy="15246.6" r="314.961" /> 
</g>
<g style="fill:#000000; fill-opacity:1.0; 
stroke:#000000; stroke-width:98.4252; stroke-opacity:1; 
stroke-linecap:round; stroke-linejoin:round;">
</g>
<g style="fill:#000000; fill-opacity:1.0; 
stroke:#000000; stroke-width:0; stroke-opacity:1; 
stroke-linecap:round; stroke-linejoin:round;">
<circle cx="2373.68" cy="14117.8" r="314.961" /> 
</g>
<g style="fill:#000000; fill-opacity:1.0; 
stroke:#000000; stroke-width:98.4252; stroke-opacity:1; 
stroke-linecap:round; stroke-linejoin:round;">
</g>
<g >
</g>
<g style="fill:#000000; fill-opacity:1.0; 
stroke:#000000; stroke-width:98.4252; stroke-opacity:1; 
stroke-linecap:round; stroke-linejoin:round;">
</g>
<g style="fill:#000000; fill-opacity:1.0; 
stroke:#000000; stroke-width:0; stroke-opacity:1; 
stroke-linecap:round; stroke-linejoin:round;">
<circle cx="5298.68" cy="8892.82" r="472.441" /> 
</g>
<g style="fill:#000000; fill-opacity:1.0; 
stroke:#000000; stroke-width:98.4252; stroke-opacity:1; 
stroke-linecap:round; stroke-linejoin:round;">
</g>
<g style="fill:#000000; fill-opacity:1.0; 
stroke:#000000; stroke-width:944.882; stroke-opacity:1; 
stroke-linecap:round; stroke-linejoin:round;">
</g>
<g style="fill:#000000; fill-opacity:0.0; 
stroke:#000000; stroke-width:944.882; stroke-opacity:1; 
stroke-linecap:round; stroke-linejoin:round;">
<path d="M5298 2892
L5298 2892
" />
</g>
<g >
</g>
<g style="fill:#000000; fill-opacity:0.0; 
stroke:#000000; stroke-width:944.882; stroke-opacity:1; 
stroke-linecap:round; stroke-linejoin:round;">
</g>
<g style="fill:#000000; fill-opacity:1.0; 
stroke:#000000; stroke-width:0; stroke-opacity:1; 
stroke-linecap:round; stroke-linejoin:round;">
<circle cx="4673.68" cy="10067.8" r="472.441" /> 
</g>
<g style="fill:#000000; fill-opacity:1.0; 
stroke:#000000; stroke-width:98.4252; stroke-opacity:1; 
stroke-linecap:round; stroke-linejoin:round;">
</g>
<g style="fill:#000000; fill-opacity:1.0; 
stroke:#000000; stroke-width:944.882; stroke-opacity:1; 
stroke-linecap:round; stroke-linejoin:round;">
</g>
<g style="fill:#000000; fill-opacity:0.0; 
stroke:#000000; stroke-width:944.882; stroke-opacity:1; 
stroke-linecap:round; stroke-linejoin:round;">
<path d="M4673 16067
L4673 16067
" />
</g>
<g >
</g>
<g style="fill:#000000; fill-opacity:0.0; 
stroke:#000000; stroke-width:944.882; stroke-opacity:1; 
stroke-linecap:round; stroke-linejoin:round;">
</g>
<g style="fill:#000000; fill-opacity:1.0; 
stroke:#000000; stroke-width:0; stroke-opacity:1; 
stroke-linecap:round; stroke-linejoin:round;">
<circle cx="16398.7" cy="12617.8" r="472.441" /> 
</g>
<g style="fill:#000000; fill-opacity:1.0; 
stroke:#000000; stroke-width:98.4252; stroke-opacity:1; 
stroke-linecap:round; stroke-linejoin:round;">
</g>
<g style="fill:#000000; fill-opacity:1.0; 
stroke:#000000; stroke-width:944.882; stroke-opacity:1; 
stroke-linecap:round; stroke-linejoin:round;">
</g>
<g style="fill:#000000; fill-opacity:0.0; 
stroke:#000000; stroke-width:944.882; stroke-opacity:1; 
stroke-linecap:round; stroke-linejoin:round;">
<path d="M16398 6617
L16398 6617
" />
</g>
<g >
</g>
<g style="fill:#000000; fill-opacity:0.0; 
stroke:#000000; stroke-width:944.882; stroke-opacity:1; 
stroke-linecap:round; stroke-linejoin:round;">
<path d="M14173 16067
L14173 16067
" />
</g>
<g style="fill:#000000; fill-opacity:1.0; 
stroke:#000000; stroke-width:0; stroke-opacity:1; 
stroke-linecap:round; stroke-linejoin:round;">
<circle cx="14173.7" cy="10067.8" r="472.441" /> 
</g>
<g style="fill:#000000; fill-opacity:1.0; 
stroke:#000000; stroke-width:98.4252; stroke-opacity:1; 
stroke-linecap:round; stroke-linejoin:round;">
</g>
<g >
</g>
<g style="fill:#000000; fill-opacity:1.0; 
stroke:#000000; stroke-width:98.4252; stroke-opacity:1; 
stroke-linecap:round; stroke-linejoin:round;">
</g>
<g style="fill:#000000; fill-opacity:1.0; 
stroke:#000000; stroke-width:0; stroke-opacity:1; 
stroke-linecap:round; stroke-linejoin:round;">
<path style="fill:#000000; fill-opacity:1.0; 
stroke:#000000; stroke-width:0; stroke-opacity:1; 
stroke-linecap:round; stroke-linejoin:round;fill-rule:evenodd;"
d="M 11338.6,2402.86
11338.6,3032.78
10708.7,3032.78
10708.7,2402.86
Z" /> 
</g>
<g style="fill:#000000; fill-opacity:1.0; 
stroke:#000000; stroke-width:629.921; stroke-opacity:1; 
stroke-linecap:round; stroke-linejoin:round;">
</g>
<g style="fill:#000000; fill-opacity:0.0; 
stroke:#000000; stroke-width:629.921; stroke-opacity:1; 
stroke-linecap:round; stroke-linejoin:round;">
<path d="M8023 5717
L8023 5717
" />
<path d="M11023 3717
L11023 3717
" />
<path d="M8023 4717
L8023 4717
" />
<path d="M11023 4717
L11023 4717
" />
<path d="M8023 3717
L8023 3717
" />
<path d="M11023 5717
L11023 5717
" />
<path d="M8023 2717
L8023 2717
" />
</g>
<g >
</g>
<g >
</g>
<g style="fill:#000000; fill-opacity:0.0; 
stroke:#000000; stroke-width:629.921; stroke-opacity:1; 
stroke-linecap:round; stroke-linejoin:round;">
</g>
<g style="fill:#000000; fill-opacity:0.0; 
stroke:#000000; stroke-width:137.795; stroke-opacity:1; 
stroke-linecap:round; stroke-linejoin:round;">
<path d="M6455 11849
L4673 10067
" />
<path d="M6923 11849
L6455 11849
" />
<path d="M3348 8742
L4673 10067
" />
<path d="M3348 6592
L3348 8742
" />
<path d="M9578 8440
L11923 10786
" />
<path d="M9578 7717
L9578 8440
" />
<path d="M2346 12694
L2346 12517
" />
<path d="M2566 15246
L3164 15246
" />
<path d="M1595 14274
L2566 15246
" />
<path d="M2306 12501
L1595 13213
" />
<path d="M1595 13213
L1595 14274
" />
<path d="M15239 16472
L15289 16430
" />
<path d="M15147 16547
L15239 16472
" />
<path d="M14866 16764
L14961 16692
" />
<path d="M14771 16834
L14866 16764
" />
<path d="M14674 16902
L14771 16834
" />
<path d="M14479 17036
L14577 16970
" />
<path d="M14379 17101
L14479 17036
" />
<path d="M14280 17164
L14379 17101
" />
<path d="M14179 17226
L14280 17164
" />
<path d="M13975 17347
L14077 17287
" />
<path d="M13872 17405
L13975 17347
" />
<path d="M13768 17462
L13872 17405
" />
<path d="M13664 17518
L13768 17462
" />
<path d="M13559 17572
L13664 17518
" />
<path d="M13453 17625
L13559 17572
" />
<path d="M11793 18249
L11907 18217
" />
<path d="M11679 18279
L11793 18249
" />
<path d="M12359 18077
L12471 18038
" />
<path d="M11564 18307
L11679 18279
" />
<path d="M12471 18038
L12583 17998
" />
<path d="M11448 18334
L11564 18307
" />
<path d="M12021 18184
L12134 18150
" />
<path d="M12247 18114
L12359 18077
" />
<path d="M9971 18367
L11223 18367
" />
<path d="M14077 17287
L14179 17226
" />
<path d="M11907 18217
L12021 18184
" />
<path d="M11236 18380
L11333 18360
" />
<path d="M15054 16620
L15147 16547
" />
<path d="M11223 18367
L11236 18380
" />
<path d="M12693 17956
L12804 17913
" />
<path d="M13239 17727
L13346 17677
" />
<path d="M12134 18150
L12247 18114
" />
<path d="M14577 16970
L14674 16902
" />
<path d="M12583 17998
L12693 17956
" />
<path d="M12804 17913
L12913 17869
" />
<path d="M12913 17869
L13023 17823
" />
<path d="M13023 17823
L13131 17775
" />
<path d="M14961 16692
L15054 16620
" />
<path d="M13131 17775
L13239 17727
" />
<path d="M11333 18360
L11448 18334
" />
<path d="M13346 17677
L13453 17625
" />
<path d="M16055 14142
L16523 14142
" />
<path d="M15289 14908
L16055 14142
" />
<path d="M15289 16430
L15289 14908
" />
<path d="M9415 1809
L8923 1317
" />
<path d="M11665 1809
L9415 1809
" />
<path d="M15473 5617
L11665 1809
" />
<path d="M17850 7244
L17523 6917
" />
<path d="M17223 13042
L17226 13042
" />
<path d="M17640 12628
L17640 11255
" />
<path d="M16523 14142
L16523 13742
" />
<path d="M17226 13042
L17640 12628
" />
<path d="M16523 13742
L17223 13042
" />
<path d="M17640 11255
L17850 11044
" />
<path d="M17523 6917
L17523 6417
" />
<path d="M17850 11044
L17850 7244
" />
<path d="M17523 6417
L16723 5617
" />
<path d="M16723 5617
L15473 5617
" />
<path d="M8923 1817
L8023 2717
" />
<path d="M8923 1317
L8923 1817
" />
<path d="M14898 12617
L16398 12617
" />
<path d="M12123 15392
L14898 12617
" />
<path d="M6748 15392
L6673 15317
" />
<path d="M8998 15392
L6748 15392
" />
<path d="M8998 15392
L12123 15392
" />
<path d="M6332 8817
L7432 7717
" />
<path d="M6257 8892
L6332 8817
" />
<path d="M5298 8892
L6257 8892
" />
<path d="M10301 1189
L10301 1067
" />
<path d="M6298 1792
L7286 805
" />
<path d="M5623 1792
L6298 1792
" />
<path d="M7286 805
L7223 867
" />
<path d="M14173 1617
L14173 2817
" />
<path d="M13872 1441
L13975 1499
" />
<path d="M13768 1384
L13872 1441
" />
<path d="M13559 1274
L13664 1329
" />
<path d="M12134 696
L12247 732
" />
<path d="M12021 662
L12134 696
" />
<path d="M13975 1499
L14077 1559
" />
<path d="M11564 539
L11679 568
" />
<path d="M11679 568
L11793 598
" />
<path d="M11793 598
L11907 629
" />
<path d="M11907 629
L12021 662
" />
<path d="M11448 512
L11564 539
" />
<path d="M13664 1329
L13768 1384
" />
<path d="M10326 1267
L11145 449
" />
<path d="M12693 890
L12804 933
" />
<path d="M11217 463
L11333 487
" />
<path d="M13453 1221
L13559 1274
" />
<path d="M11333 487
L11448 512
" />
<path d="M12247 732
L12359 770
" />
<path d="M12359 770
L12471 808
" />
<path d="M12471 808
L12583 848
" />
<path d="M12583 848
L12693 890
" />
<path d="M14077 1559
L14173 1617
" />
<path d="M12804 933
L12913 978
" />
<path d="M13131 1071
L13239 1120
" />
<path d="M12913 978
L13023 1024
" />
<path d="M13023 1024
L13131 1071
" />
<path d="M13346 1170
L13453 1221
" />
<path d="M11145 449
L11217 463
" />
<path d="M13239 1120
L13346 1170
" />
<path d="M7804 430
L7688 451
" />
<path d="M7688 451
L7627 463
" />
<path d="M9571 286
L9453 285
" />
<path d="M8272 358
L8155 373
" />
<path d="M9334 285
L9216 287
" />
<path d="M8743 310
L8625 320
" />
<path d="M9689 289
L9571 286
" />
<path d="M9926 299
L9808 293
" />
<path d="M8038 391
L7921 409
" />
<path d="M9453 285
L9334 285
" />
<path d="M8861 302
L8743 310
" />
<path d="M10326 330
L10280 325
" />
<path d="M10326 1267
L10326 330
" />
<path d="M10044 306
L9926 299
" />
<path d="M10280 325
L10162 315
" />
<path d="M8390 344
L8272 358
" />
<path d="M10162 315
L10044 306
" />
<path d="M9216 287
L9098 291
" />
<path d="M7627 463
L7286 805
" />
<path d="M9098 291
L8979 296
" />
<path d="M9808 293
L9689 289
" />
<path d="M7921 409
L7804 430
" />
<path d="M8979 296
L8861 302
" />
<path d="M8155 373
L8038 391
" />
<path d="M8625 320
L8507 331
" />
<path d="M8507 331
L8390 344
" />
<path d="M3037 13453
L2373 14117
" />
<path d="M3037 11856
L3037 13453
" />
<path d="M2223 11042
L3037 11856
" />
<path d="M2318 3676
L2244 3769
" />
<path d="M2393 3585
L2318 3676
" />
<path d="M2470 3494
L2393 3585
" />
<path d="M3933 2118
L3839 2190
" />
<path d="M4028 2048
L3933 2118
" />
<path d="M3745 2263
L3653 2337
" />
<path d="M3839 2190
L3745 2263
" />
<path d="M3382 2567
L3294 2645
" />
<path d="M2626 3316
L2547 3404
" />
<path d="M3653 2337
L3562 2412
" />
<path d="M4124 1978
L4028 2048
" />
<path d="M2951 2972
L2868 3056
" />
<path d="M5623 1792
L4396 1792
" />
<path d="M3562 2412
L3472 2489
" />
<path d="M3035 2889
L2951 2972
" />
<path d="M4319 1844
L4221 1910
" />
<path d="M4221 1910
L4124 1978
" />
<path d="M2705 3228
L2626 3316
" />
<path d="M4396 1792
L4319 1844
" />
<path d="M3472 2489
L3382 2567
" />
<path d="M3294 2645
L3207 2725
" />
<path d="M3207 2725
L3120 2806
" />
<path d="M2244 3769
L2223 3796
" />
<path d="M3120 2806
L3035 2889
" />
<path d="M2868 3056
L2786 3142
" />
<path d="M2786 3142
L2705 3228
" />
<path d="M2223 3796
L2223 11042
" />
<path d="M2547 3404
L2470 3494
" />
<path d="M17638 13426
L17585 13532
" />
<path d="M17689 13319
L17638 13426
" />
<path d="M17739 13212
L17689 13319
" />
<path d="M17787 13104
L17739 13212
" />
<path d="M17834 12995
L17787 13104
" />
<path d="M17880 12886
L17834 12995
" />
<path d="M17924 12776
L17880 12886
" />
<path d="M17967 12666
L17924 12776
" />
<path d="M18008 12555
L17967 12666
" />
<path d="M18048 12443
L18008 12555
" />
<path d="M18086 12331
L18048 12443
" />
<path d="M18123 12219
L18086 12331
" />
<path d="M18159 12106
L18123 12219
" />
<path d="M18193 11993
L18159 12106
" />
<path d="M18225 11879
L18193 11993
" />
<path d="M18256 11764
L18225 11879
" />
<path d="M18286 11650
L18256 11764
" />
<path d="M18314 11535
L18286 11650
" />
<path d="M18366 11304
L18341 11420
" />
<path d="M18403 11114
L18389 11188
" />
<path d="M18403 7733
L18403 11114
" />
<path d="M18366 7543
L18389 7659
" />
<path d="M18341 7427
L18366 7543
" />
<path d="M18314 7311
L18341 7427
" />
<path d="M17585 13532
L17532 13638
" />
<path d="M18256 7082
L18286 7196
" />
<path d="M18193 6854
L18225 6968
" />
<path d="M18159 6740
L18193 6854
" />
<path d="M18086 6515
L18123 6627
" />
<path d="M18048 6403
L18086 6515
" />
<path d="M18008 6292
L18048 6403
" />
<path d="M17967 6181
L18008 6292
" />
<path d="M17924 6070
L17967 6181
" />
<path d="M17880 5960
L17924 6070
" />
<path d="M17834 5851
L17880 5960
" />
<path d="M17689 5527
L17739 5634
" />
<path d="M17638 5420
L17689 5527
" />
<path d="M17532 5209
L17585 5314
" />
<path d="M17476 5104
L17532 5209
" />
<path d="M17420 5000
L17476 5104
" />
<path d="M18389 11188
L18366 11304
" />
<path d="M18389 7659
L18403 7733
" />
<path d="M15737 2817
L15769 2847
" />
<path d="M16638 3815
L16710 3909
" />
<path d="M17585 5314
L17638 5420
" />
<path d="M15937 3014
L16019 3099
" />
<path d="M18286 7196
L18314 7311
" />
<path d="M14173 2817
L15737 2817
" />
<path d="M16260 3360
L16338 3449
" />
<path d="M17787 5742
L17834 5851
" />
<path d="M18123 6627
L18159 6740
" />
<path d="M17739 5634
L17787 5742
" />
<path d="M15769 2847
L15853 2930
" />
<path d="M18225 6968
L18256 7082
" />
<path d="M17052 4392
L17117 4492
" />
<path d="M18341 11420
L18314 11535
" />
<path d="M16919 4197
L16986 4294
" />
<path d="M15853 2930
L15937 3014
" />
<path d="M16415 3539
L16491 3630
" />
<path d="M16019 3099
L16101 3185
" />
<path d="M16101 3185
L16181 3272
" />
<path d="M17532 13638
L17476 13742
" />
<path d="M16181 3272
L16260 3360
" />
<path d="M16710 3909
L16781 4004
" />
<path d="M16338 3449
L16415 3539
" />
<path d="M16491 3630
L16565 3722
" />
<path d="M16565 3722
L16638 3815
" />
<path d="M16781 4004
L16851 4100
" />
<path d="M16851 4100
L16919 4197
" />
<path d="M17117 4492
L17180 4592
" />
<path d="M16986 4294
L17052 4392
" />
<path d="M17180 4592
L17242 4693
" />
<path d="M17242 4693
L17302 4794
" />
<path d="M17302 4794
L17362 4897
" />
<path d="M17362 4897
L17420 5000
" />
<path d="M17476 13742
L17420 13846
" />
<path d="M17420 13846
L17362 13949
" />
<path d="M17362 13949
L17302 14052
" />
<path d="M17302 14052
L17242 14154
" />
<path d="M17242 14154
L17180 14255
" />
<path d="M17180 14255
L17117 14355
" />
<path d="M17117 14355
L17106 14371
" />
<path d="M17106 14371
L16141 15336
" />
<path d="M16141 15336
L15834 15336
" />
<path d="M5623 1792
L7348 3517
" />
<path d="M7733 6310
L8431 6310
" />
<path d="M7348 3517
L7348 5925
" />
<path d="M10708 4032
L11023 3717
" />
<path d="M7348 5925
L7733 6310
" />
<path d="M8431 6310
L10708 4032
" />
<path d="M10623 4717
L11023 4717
" />
<path d="M7023 6017
L7611 6605
" />
<path d="M8735 6605
L10623 4717
" />
<path d="M5423 3017
L6423 3017
" />
<path d="M7023 3617
L7023 6017
" />
<path d="M6423 3017
L7023 3617
" />
<path d="M7611 6605
L8735 6605
" />
<path d="M14173 10067
L15198 10067
" />
<path d="M16398 8867
L16398 6617
" />
<path d="M15198 10067
L16398 8867
" />
<path d="M16056 6617
L16323 6617
" />
<path d="M11556 2117
L16056 6617
" />
<path d="M9623 2117
L11556 2117
" />
<path d="M8023 3817
L8023 3717
" />
<path d="M8023 3717
L9623 2117
" />
</g>
<g >
</g>
<g style="fill:#000000; fill-opacity:0.0; 
stroke:#000000; stroke-width:137.795; stroke-opacity:1; 
stroke-linecap:round; stroke-linejoin:round;">
</g>
<g style="fill:#000000; fill-opacity:1.0; 
stroke:#000000; stroke-width:100; stroke-opacity:1; 
stroke-linecap:round; stroke-linejoin:round;">
<path style="fill:#000000; fill-opacity:1.0; 
stroke:#000000; stroke-width:100; stroke-opacity:1; 
stroke-linecap:round; stroke-linejoin:round;fill-rule:evenodd;"
d="M 1898.68,11166.1
1007.44,13306.7
909.77,13103.8
638.131,12397.6
424.958,11671.6
271.671,10930.7
179.288,10179.7
148.426,9423.68
179.288,8667.66
271.671,7916.67
424.958,7175.71
638.131,6449.71
909.77,5743.5
1238.07,5061.79
1620.84,4409.1
1898.68,4013.26
Z" /> 
<path style="fill:#000000; fill-opacity:1.0; 
stroke:#000000; stroke-width:100; stroke-opacity:1; 
stroke-linecap:round; stroke-linejoin:round;fill-rule:evenodd;"
d="M 6152.96,1417.82
4750.69,1417.82
4895.72,1328.75
5570.6,986.611
6271.12,700.623
6992.62,472.686
7129.3,441.489
Z" /> 
<path style="fill:#000000; fill-opacity:1.0; 
stroke:#000000; stroke-width:100; stroke-opacity:1; 
stroke-linecap:round; stroke-linejoin:round;fill-rule:evenodd;"
d="M 4429.72,15388.6
4417.35,15392.4
4290.5,15455.4
4178.38,15541.9
4085.29,15648.6
4014.82,15771.5
3969.66,15905.7
4015.46,16017.8
4623.68,16017.8
4623.68,16009.9
4723.68,16009.9
4723.68,16017.8
4731.55,16017.8
4731.55,16117.8
4723.68,16117.8
4723.68,16725.9
4835.8,16771.8
4930,16743.3
5056.85,16680.3
5168.97,16593.8
5262.06,16487
5332.53,16364.2
5377.69,16230
5337.29,16131.1
5718.79,16443.1
5726.95,16448.6
5736.01,16452.3
5746.14,16454.2
8225.93,16668.9
8213.7,16681.1
8258.85,16726.3
8134.61,16787.7
8059.49,16935.2
8014.6,17094.6
8001.67,17259.7
8021.18,17424.1
8072.4,17581.6
8134.61,17698
8258.85,17759.4
8775.41,17242.8
8769.84,17237.3
8840.55,17166.5
8846.12,17172.1
8851.68,17166.5
8922.39,17237.3
8916.83,17242.8
8922.39,17248.4
8851.68,17319.1
8846.12,17313.5
8329.56,17830.1
8390.98,17954.3
8538.54,18029.4
8697.91,18074.3
8862.98,18087.3
9027.4,18067.8
9184.85,18016.5
9293.11,17958.7
9350.84,18279.4
9353.52,18288.9
9357.98,18297.6
9364.06,18305.3
9371.52,18311.6
9380.08,18316.4
9389.41,18319.4
9400.39,18320.6
10519.3,18313
10519.3,18607.7
9989.76,18661.9
9234.88,18677.3
8509.15,18632.8
8288.78,18603.5
7733.89,18523.7
6997.78,18355.7
6277.81,18128.2
5578.77,17842.8
4905.33,17501.4
4341.62,17155.2
3190.21,16230
3969.66,16230
4014.82,16364.2
4085.29,16487
4178.38,16593.8
4290.5,16680.3
4417.35,16743.3
4511.55,16771.8
4623.68,16725.9
4623.68,16117.8
4015.46,16117.8
3969.66,16230
3190.21,16230
2987.48,16067
2974.32,16055.3
2553.88,15626.2
2541.55,15611.4
2639.19,15455.8
2656.22,15500.3
2715.49,15594.5
2791.99,15675.4
2882.79,15739.7
2932.66,15765
2976.04,15750.3
3125.98,15750.3
3204.16,15812.8
3313.86,15794.1
3417.81,15754.4
3512,15695.1
3592.82,15618.6
3657.17,15527.8
3682.44,15478
3650.43,15383.1
3204.59,15304.5
3125.98,15750.3
2976.04,15750.3
3027.5,15733
3106.11,15287.1
2781.02,15229.8
2838.4,15138.4
3016.55,15169.8
3087.76,15241
3122.75,15206
3221.96,15206
3667.8,15284.6
3730.31,15206.5
3711.6,15096.7
3671.85,14992.8
3612.59,14898.6
3536.08,14817.8
3445.28,14753.4
3395.42,14728.2
3300.57,14760.2
3221.96,15206
3122.75,15206
3158.47,15170.3
3131.48,15143.3
3202.09,14742.8
3125.24,14681.4
3274.47,14443.6
Z" /> 
<path style="fill:#000000; fill-opacity:1.0; 
stroke:#000000; stroke-width:100; stroke-opacity:1; 
stroke-linecap:round; stroke-linejoin:round;fill-rule:evenodd;"
d="M 5626.52,2246.65
5509.4,2198.14
5369.83,2170.38
5227.52,2170.38
5087.95,2198.14
4956.47,2252.6
4838.15,2331.67
4737.52,2432.29
4658.46,2550.62
4604,2682.09
4576.23,2821.67
4576.23,2963.98
4604,3103.55
4658.46,3235.03
4737.52,3353.35
4838.15,3453.98
4956.47,3533.04
5087.95,3587.5
5227.52,3615.26
5369.83,3615.26
5509.4,3587.5
5640.88,3533.04
5759.2,3453.98
5859.83,3353.35
5870.94,3336.72
6291.58,3336.72
6704.78,3749.91
6704.78,6002.15
6703.23,6017.82
6706.85,6054.54
6709.39,6080.34
6725.16,6132.31
6727.63,6140.45
6757.24,6195.85
6775.47,6218.07
6797.09,6244.41
6809.26,6254.39
7180.01,6625.14
7146.96,6635.17
7018.04,6704.08
6905.04,6796.82
6812.3,6909.82
6743.38,7038.75
6700.95,7178.64
6690.21,7287.67
6690.21,8008.96
6125.25,8573.92
5948.55,8573.92
5938.89,8550.62
5859.83,8432.29
5759.2,8331.67
5640.88,8252.6
5509.4,8198.14
5369.83,8170.38
5227.52,8170.38
5087.95,8198.14
4956.47,8252.6
4838.15,8331.67
4737.52,8432.29
4658.46,8550.62
4604,8682.09
4576.23,8821.67
4576.23,8963.98
4604,9103.55
4658.46,9235.03
4732.19,9345.38
4602.52,9345.38
4462.95,9373.14
4439.64,9382.8
3667.57,8610.73
3667.57,7242.69
3690.88,7233.04
3809.2,7153.98
3909.83,7053.35
3988.89,6935.03
4043.35,6803.55
4071.12,6663.98
4071.12,6521.67
4043.35,6382.09
3988.89,6250.62
3909.83,6132.29
3809.2,6031.67
3690.88,5952.6
3559.4,5898.14
3419.83,5870.38
3277.52,5870.38
3137.95,5898.14
3006.47,5952.6
2888.15,6031.67
2787.52,6132.29
2708.46,6250.62
2654,6382.09
2626.23,6521.67
2626.23,6663.98
2654,6803.55
2708.46,6935.03
2787.52,7053.35
2888.15,7153.98
3006.47,7233.04
3029.78,7242.69
3029.78,8727.15
3028.23,8742.82
3034.39,8805.34
3052.63,8865.45
3082.24,8920.85
3090.03,8930.34
3122.09,8969.41
3134.26,8979.39
3988.65,9833.79
3979,9857.09
3951.23,9996.67
3951.23,10139
3979,10278.6
4033.46,10410
4112.52,10528.4
4213.15,10629
4331.47,10708
4462.95,10762.5
4602.52,10790.3
4744.83,10790.3
4884.4,10762.5
4907.71,10752.8
5983.49,11828.6
5983.49,12380.8
5988.32,12429.8
6002.61,12476.9
6025.83,12520.4
6057.07,12558.4
6095.13,12589.7
6138.56,12612.9
6185.69,12627.2
6234.7,12632
7612.65,12632
7661.66,12627.2
7708.79,12612.9
7752.22,12589.7
7790.28,12558.4
7821.52,12520.4
7844.74,12476.9
7859.03,12429.8
7863.86,12380.8
7863.86,11317.8
7859.03,11268.8
7844.74,11221.7
7823.89,11182.7
8051.63,11182.7
8051.63,11453
8104.36,11718
8207.78,11967.7
8357.94,12192.5
8549.05,12383.6
8773.77,12533.7
9023.46,12637.1
9288.54,12689.9
9558.81,12689.9
9823.89,12637.1
10073.6,12533.7
10298.3,12383.6
10489.4,12192.5
10639.6,11967.7
10743,11718
10795.7,11453
10795.7,11182.7
10743,10917.6
10639.6,10667.9
10489.4,10443.2
10298.3,10252.1
10073.6,10101.9
9823.89,9998.5
9558.81,9945.77
9288.54,9945.77
9023.46,9998.5
8773.77,10101.9
8549.05,10252.1
8357.94,10443.2
8207.78,10667.9
8104.36,10917.6
8051.63,11182.7
7823.89,11182.7
7821.52,11178.3
7790.28,11140.2
7752.22,11108.9
7708.79,11085.7
7661.66,11071.4
7612.65,11066.6
6234.7,11066.6
6185.69,11071.4
6141.64,11084.8
5358.7,10301.9
5368.35,10278.6
5396.12,10139
5396.12,9996.67
5368.35,9857.09
5313.89,9725.62
5240.16,9615.26
5369.83,9615.26
5509.4,9587.5
5640.88,9533.04
5759.2,9453.98
5859.83,9353.35
5938.89,9235.03
5948.55,9211.72
6241.67,9211.72
6257.34,9213.26
6273,9211.72
6273,9211.72
6319.85,9207.11
6379.96,9188.87
6435.36,9159.26
6483.92,9119.41
6493.91,9107.24
6936.5,8664.65
7018.04,8731.56
7146.96,8800.48
7286.85,8842.91
7432.34,8857.24
7577.82,8842.91
7717.71,8800.48
7846.63,8731.56
7959.64,8638.82
8052.38,8525.82
8121.29,8396.9
8163.72,8257
8174.46,8147.98
8174.46,8147.98
8835.88,8147.98
8846.62,8257
8889.05,8396.9
8957.97,8525.82
9050.7,8638.82
9163.71,8731.56
9292.63,8800.48
9432.52,8842.91
9539.84,8853.48
10983.5,10297.1
10983.5,11317.8
10988.3,11366.8
11002.6,11414
11025.8,11457.4
11057.1,11495.5
11095.1,11526.7
11138.6,11549.9
11185.7,11564.2
11234.7,11569
12612.7,11569
12661.7,11564.2
12708.8,11549.9
12752.2,11526.7
12790.3,11495.5
12821.5,11457.4
12844.7,11414
12859,11366.8
12863.9,11317.8
12863.9,10254.8
12859,10205.8
12844.7,10158.7
12821.5,10115.3
12790.3,10077.2
12752.2,10046
12708.8,10022.7
12661.7,10008.4
12612.7,10003.6
11592,10003.6
10192,8603.65
10980.3,8603.65
10985.2,8652.66
10999.5,8699.78
11022.7,8743.21
11053.9,8781.28
11092,8812.52
11135.4,8835.74
11182.5,8850.03
11231.5,8854.86
11611.2,8853.65
11673.7,8791.15
11673.7,7767.82
11773.7,7767.82
11773.7,8791.15
11836.2,8853.65
12215.8,8854.86
12264.8,8850.03
12300,8839.35
13448.1,8839.35
13466.2,8980.5
13511.5,9115.39
13558.4,9203.05
13670.5,9250.25
14103,8817.82
14244.4,8817.82
14676.8,9250.25
14789,9203.05
14852.3,9075.61
14889.5,8938.27
14899.3,8796.29
14881.1,8655.15
14835.8,8520.25
14789,8432.59
14676.8,8385.39
14244.4,8817.82
14103,8817.82
13670.5,8385.39
13558.4,8432.59
13495.1,8560.03
13457.8,8697.38
13448.1,8839.35
12300,8839.35
12311.9,8835.74
12355.4,8812.52
12393.4,8781.28
12424.7,8743.21
12447.9,8699.78
12462.2,8652.66
12467,8603.65
12466.6,8314.68
13741.2,8314.68
14173.7,8747.11
14606.1,8314.68
14558.9,8202.53
14431.5,8139.2
14294.1,8101.95
14152.1,8092.21
14011,8110.35
13876.1,8155.68
13788.4,8202.53
13741.2,8314.68
12466.6,8314.68
12465.8,7830.32
12403.3,7767.82
11773.7,7767.82
11673.7,7767.82
11044,7767.82
10981.5,7830.32
10980.3,8603.65
10192,8603.65
10160.2,8571.9
10198,8525.82
10267,8396.9
10309.4,8257
10320.1,8147.98
10320.1,7287.67
10309.4,7178.64
10267,7038.75
10198,6909.82
10134.2,6832
10980.3,6832
10981.5,7605.32
11044,7667.82
11673.7,7667.82
11673.7,6644.5
11773.7,6644.5
11773.7,7667.82
12403.3,7667.82
12465.8,7605.32
12467,6832
12462.2,6782.99
12447.9,6735.86
12424.7,6692.43
12393.4,6654.36
12355.4,6623.12
12311.9,6599.91
12264.8,6585.61
12215.8,6580.79
11836.2,6582
11773.7,6644.5
11673.7,6644.5
11611.2,6582
11231.5,6580.79
11182.5,6585.61
11135.4,6599.91
11092,6623.12
11053.9,6654.36
11022.7,6692.43
10999.5,6735.86
10985.2,6782.99
10980.3,6832
10134.2,6832
10105.3,6796.82
9992.3,6704.08
9863.38,6635.17
9723.49,6592.73
9578.01,6578.4
9432.52,6592.73
9292.63,6635.17
9163.71,6704.08
9050.71,6796.82
8957.97,6909.82
8889.05,7038.75
8846.62,7178.64
8835.88,7287.67
8835.88,8147.98
8174.46,8147.98
8174.46,7287.67
8163.72,7178.64
8121.29,7038.75
8060.23,6924.51
8720.22,6924.51
8735.88,6926.05
8751.55,6924.51
8751.55,6924.51
8798.4,6919.9
8858.51,6901.66
8913.91,6872.05
8962.47,6832.2
8972.46,6820.03
9937.25,5855.24
10475.7,5855.24
10491.7,5908.01
10539,6008.14
10605,6097.12
10687,6171.52
10782,6228.48
10886.3,6265.82
10973.7,6218.07
10973.7,5767.82
11073.7,5767.82
11073.7,6218.07
11161.1,6265.82
11265.4,6228.48
11360.3,6171.52
11442.4,6097.12
11508.3,6008.14
11555.7,5908.01
11571.7,5855.24
11523.6,5767.82
11073.7,5767.82
10973.7,5767.82
10523.7,5767.82
10475.7,5855.24
9937.25,5855.24
10649.7,5142.8
10663.5,5156.66
10756.1,5218.48
10760.2,5220.21
10687,5264.13
10605,5338.53
10539,5427.5
10491.7,5527.63
10475.7,5580.41
10523.7,5667.82
10973.7,5667.82
10973.7,5659.95
11073.7,5659.95
11073.7,5667.82
11523.6,5667.82
11571.7,5580.41
11555.7,5527.63
11508.3,5427.5
11442.4,5338.53
11360.3,5264.13
11287.1,5220.21
11291.3,5218.48
11383.8,5156.66
11462.5,5077.96
11524.3,4985.43
11566.9,4882.61
11588.6,4773.47
11588.6,4662.18
11566.9,4553.03
11524.3,4450.21
11462.5,4357.68
11383.8,4278.99
11292.3,4217.82
11383.8,4156.66
11462.5,4077.96
11524.3,3985.43
11566.9,3882.61
11588.6,3773.47
11588.6,3662.18
11566.9,3553.03
11524.3,3450.21
11462.5,3357.68
11384.3,3279.49
11387.6,3279.17
11434.8,3264.87
11478.2,3241.66
11516.3,3210.41
11547.5,3172.35
11570.7,3128.92
11585,3081.79
11589.8,3032.78
11589.8,2602.57
15676.2,6688.96
15676.2,6688.98
15704,6828.55
15758.5,6960.03
15837.5,7078.35
15938.1,7178.98
16056.5,7258.04
16079.8,7267.69
16079.8,8735.73
15066.6,9748.92
14823.5,9748.92
14813.9,9725.62
14734.8,9607.29
14634.2,9506.67
14539.6,9443.44
14558.9,9433.11
14606.1,9320.96
14173.7,8888.53
13741.2,9320.96
13788.4,9433.11
13808.4,9443.02
13713.1,9506.67
13612.5,9607.29
13533.5,9725.62
13479,9857.09
13451.2,9996.67
13451.2,10139
13479,10278.6
13533.5,10410
13612.5,10528.4
13713.1,10629
13831.5,10708
13962.9,10762.5
14102.5,10790.3
14244.8,10790.3
14384.4,10762.5
14515.9,10708
14634.2,10629
14734.8,10528.4
14813.9,10410
14823.5,10386.7
15183,10386.7
15198.7,10388.3
15214.3,10386.7
15214.3,10386.7
15261.2,10382.1
15321.3,10363.9
15376.7,10334.3
15425.3,10294.4
15435.2,10282.2
16613.1,9104.39
16625.3,9094.41
16650.8,9063.26
16665.1,9045.85
16684.7,9009.26
16694.7,8990.45
16713,8930.34
16717.6,8883.49
16717.6,8883.49
16719.1,8867.82
16717.6,8852.16
16717.6,7267.69
16740.9,7258.04
16859.2,7178.98
16959.8,7078.35
17038.9,6960.03
17093.4,6828.55
17121.1,6688.98
17121.1,6546.67
17101.1,6446.29
17204.8,6549.91
17204.8,6902.16
17203.2,6917.82
17204.8,6933.49
17204.8,6933.49
17209.4,6980.34
17227.6,7040.45
17231.9,7048.46
17257.2,7095.85
17265.6,7106.08
17297.1,7144.41
17309.3,7154.4
17531.8,7376.91
17531.8,10912.7
17425.8,11018.7
17413.6,11028.7
17402,11042.8
17373.8,11077.3
17355.5,11111.5
17344.2,11132.7
17327.7,11186.9
17325.9,11192.8
17319.8,11255.3
17321.3,11271
17321.3,12496.8
17119.1,12698.9
17121.1,12689
17121.1,12546.7
17093.4,12407.1
17038.9,12275.6
16959.8,12157.3
16859.2,12056.7
16740.9,11977.6
16609.4,11923.1
16469.8,11895.4
16327.5,11895.4
16187.9,11923.1
16056.5,11977.6
15938.1,12056.7
15837.5,12157.3
15758.5,12275.6
15748.8,12298.9
14914.3,12298.9
14898.7,12297.4
14883,12298.9
14883,12298.9
14836.2,12303.5
14776,12321.8
14750.3,12335.6
14720.6,12351.4
14700.8,12367.7
14672.1,12391.2
14662.1,12403.4
11991.6,15073.9
7397.23,15073.9
7348.78,14957
7265.41,14832.2
7159.3,14726.1
7034.53,14642.7
6895.89,14585.3
6748.71,14556
6598.64,14556
6451.46,14585.3
6312.82,14642.7
6188.05,14726.1
6081.94,14832.2
5998.57,14957
5941.14,15095.6
5911.86,15242.8
5911.86,15392.9
5941.14,15540
5998.57,15678.7
6081.94,15803.4
6188.05,15909.6
6312.82,15992.9
6451.46,16050.4
6598.64,16079.6
6748.71,16079.6
6895.89,16050.4
7034.53,15992.9
7159.3,15909.6
7163.17,15905.7
13469.7,15905.7
13515.5,16017.8
14123.7,16017.8
14123.7,15409.8
14223.7,15409.8
14223.7,16017.8
14831.9,16017.8
14877.7,15905.7
14832.5,15771.5
14762.1,15648.6
14669,15541.9
14556.8,15455.4
14430,15392.4
14335.8,15363.8
14223.7,15409.8
14123.7,15409.8
14011.5,15363.8
13917.4,15392.4
13790.5,15455.4
13678.4,15541.9
13585.3,15648.6
13514.8,15771.5
13469.7,15905.7
7163.17,15905.7
7265.41,15803.4
7326.7,15711.7
12108,15711.7
12123.7,15713.3
12139.3,15711.7
12139.3,15711.7
12186.2,15707.1
12246.3,15688.9
12301.7,15659.3
12350.3,15619.4
12360.2,15607.2
15030.8,12936.7
15748.8,12936.7
15758.5,12960
15837.5,13078.4
15938.1,13179
16056.5,13258
16187.9,13312.5
16327.5,13340.3
16469.8,13340.3
16476.6,13338.9
16309.3,13506.2
16297.1,13516.2
16279.6,13537.6
16257.2,13564.8
16232.7,13610.6
16227.6,13620.2
16213.1,13668.1
16212,13671.6
16163.5,13704
16084.8,13782.7
16058.1,13822.7
16055.4,13822.4
16039.7,13823.9
16039.7,13823.9
15992.9,13828.5
15932.7,13846.8
15922.1,13852.5
15877.3,13876.4
15861.4,13889.5
15828.8,13916.2
15818.8,13928.4
15075.4,14671.8
15063.2,14681.8
15053.2,14694
15023.4,14730.3
14993.8,14785.7
14987.1,14807.7
14975.5,14845.9
14969.4,14908.4
14970.9,14924
14970.9,16279.8
14947.9,16298.5
14858.4,16369.5
14806.5,16409.6
14832.5,16364.2
14877.7,16230
14831.9,16117.8
14223.7,16117.8
14223.7,16725.9
14314,16762.9
14302.6,16770.5
14207,16833.1
14110.6,16894.5
14013.5,16954.6
13915.5,17013.4
13816.8,17070.9
13717.4,17127.2
13617.2,17182.2
13516.4,17235.9
13414.8,17288.2
13312.6,17339.3
13209.7,17389
13106.2,17437.4
13002.1,17484.4
12897.4,17530.1
12792.1,17574.4
12686.2,17617.4
12579.8,17658.9
12472.9,17699.1
12365.4,17737.9
12257.4,17775.3
12149,17811.4
12040.1,17846
11930.8,17879.1
11821,17910.9
11710.9,17941.3
11600.3,17970.2
11489.4,17997.7
11378.2,18023.7
11266.6,18048.3
11255.8,18050.5
11248.2,18049.8
11223.7,18047.4
11208,18048.9
11091.3,18048.9
11103.8,18042.2
11141.9,18011
11173.1,17972.9
11196.3,17929.5
11210.6,17882.4
11215.4,17833.4
11214.2,17355.3
11151.7,17292.8
10423.7,17292.8
10423.7,17300.7
10323.7,17300.7
10323.7,17292.8
10315.8,17292.8
10315.8,17192.8
10323.7,17192.8
10323.7,16464.8
10423.7,16464.8
10423.7,17192.8
11151.7,17192.8
11214.2,17130.3
11215.4,16652.3
11210.6,16603.3
11196.3,16556.1
11173.1,16512.7
11141.9,16474.6
11103.8,16443.4
11060.4,16420.2
11013.2,16405.9
10964.2,16401.1
10486.2,16402.3
10423.7,16464.8
10323.7,16464.8
10261.2,16402.3
9783.12,16401.1
9734.12,16405.9
9686.99,16420.2
9643.56,16443.4
9605.49,16474.6
9574.25,16512.7
9551.04,16556.1
9536.74,16603.3
9531.91,16652.3
9532.18,16756.6
9499.01,16707
9381.94,16589.9
9315.02,16545.2
9307.95,16534.9
9272.89,16500.7
9231.82,16473.9
9186.32,16455.7
9138.15,16446.7
9115.95,16444.8
9091.3,16434.6
8928.9,16402.3
8763.33,16402.3
8721.31,16410.6
6633.74,16230
13469.7,16230
13514.8,16364.2
13585.3,16487
13678.4,16593.8
13790.5,16680.3
13917.4,16743.3
14011.5,16771.8
14123.7,16725.9
14123.7,16117.8
13515.5,16117.8
13469.7,16230
6633.74,16230
5848.96,16162
5311.99,15722.8
5234.83,15607.3
5134.2,15506.7
5015.88,15427.6
4884.79,15373.3
3420.55,14175.5
3395.16,14157.3
3351.29,14135.4
3304.01,14122.5
3255.12,14119.1
3206.5,14125.3
3160.03,14140.9
3117.49,14165.2
3080.5,14197.3
3050.51,14236.1
2648.23,14877.1
2449.87,14678.7
2538.47,14661.1
2641.28,14618.5
2733.82,14556.7
2812.51,14478
2874.34,14385.4
2916.92,14282.6
2938.64,14173.5
2938.64,14062.2
2928.96,14013.5
3252.26,13690.2
3264.43,13680.2
3301.38,13635.2
3304.29,13631.7
3324.42,13594
3333.9,13576.3
3352.13,13516.2
3356.75,13469.3
3356.75,13469.3
3358.29,13453.6
3356.75,13438
3356.75,11872.7
3358.29,11857
3355.98,11833.6
3352.13,11794.5
3338.14,11748.4
3333.9,11734.4
3304.29,11679
3297.98,11671.3
3264.43,11630.4
3252.27,11620.4
2542.57,10910.7
2542.57,3907.51
2566.77,3877.2
2639.2,3788.83
2712.76,3701.42
2787.47,3614.95
2863.26,3529.49
2940.18,3444.97
3018.17,3361.49
3097.23,3279.03
3177.37,3197.58
3258.57,3117.17
3340.78,3037.83
3424.02,2959.57
3508.26,2882.39
3593.49,2806.31
3679.72,2731.32
3766.88,2657.49
3855.02,2584.77
3944.06,2513.22
4034.06,2442.8
4124.95,2373.56
4216.73,2305.51
4309.38,2238.65
4402.88,2173.01
4492.62,2111.72
5491.58,2111.72
Z" /> 
<path style="fill:#000000; fill-opacity:1.0; 
stroke:#000000; stroke-width:100; stroke-opacity:1; 
stroke-linecap:round; stroke-linejoin:round;fill-rule:evenodd;"
d="M 13840.8,1742.91
13216.2,2546
11956,1479.65
11947.9,1474.09
11938.9,1470.2
11929.3,1468.14
11923.7,1467.82
11073.7,1467.82
11073.7,1038.53
11237.2,875.028
Z" /> 
<path style="fill:#000000; fill-opacity:1.0; 
stroke:#000000; stroke-width:100; stroke-opacity:1; 
stroke-linecap:round; stroke-linejoin:round;fill-rule:evenodd;"
d="M 16483.3,4247.68
17035.4,5167.82
15544.4,5167.82
14204.3,3827.75
15137.5,3267.82
15601.4,3267.82
Z" /> 
<path style="fill:#000000; fill-opacity:1.0; 
stroke:#000000; stroke-width:100; stroke-opacity:1; 
stroke-linecap:round; stroke-linejoin:round;fill-rule:evenodd;"
d="M 10273.7,3797.11
8873.68,5197.11
8873.68,3537.01
9745.94,2567.82
10273.7,2567.82
Z" /> 
<path style="fill:#000000; fill-opacity:1.0; 
stroke:#000000; stroke-width:100; stroke-opacity:1; 
stroke-linecap:round; stroke-linejoin:round;fill-rule:evenodd;"
d="M 8173.68,1688.4
7299.39,2174.11
7291.33,2179.69
7284.51,2186.73
7279.2,2194.97
7275.6,2204.09
7273.68,2217.82
7273.68,2897.11
6494.39,2117.82
7748.33,863.882
8173.68,778.812
Z" /> 
</g>
</g>
<g style="fill:#FFFFFF; fill-opacity:1.0; 
stroke:#FFFFFF; stroke-width:100; stroke-opacity:1; 
stroke-linecap:round; stroke-linejoin:round;">
</g>
<g style="fill:#FFFFFF; fill-opacity:1.0; 
stroke:#FFFFFF; stroke-width:0; stroke-opacity:1; 
stroke-linecap:round; stroke-linejoin:round;">
<circle cx="2306.79" cy="12501.7" r="236.22" /> 
</g>
<g style="fill:#FFFFFF; fill-opacity:1.0; 
stroke:#FFFFFF; stroke-width:98.4252; stroke-opacity:1; 
stroke-linecap:round; stroke-linejoin:round;">
</g>
<g style="fill:#FFFFFF; fill-opacity:1.0; 
stroke:#FFFFFF; stroke-width:0; stroke-opacity:1; 
stroke-linecap:round; stroke-linejoin:round;">
<circle cx="3348.68" cy="6592.82" r="236.22" /> 
</g>
<g style="fill:#FFFFFF; fill-opacity:1.0; 
stroke:#FFFFFF; stroke-width:98.4252; stroke-opacity:1; 
stroke-linecap:round; stroke-linejoin:round;">
</g>
<g style="fill:#FFFFFF; fill-opacity:1.0; 
stroke:#FFFFFF; stroke-width:0; stroke-opacity:1; 
stroke-linecap:round; stroke-linejoin:round;">
<circle cx="10373.7" cy="17242.8" r="344.488" /> 
</g>
<g style="fill:#FFFFFF; fill-opacity:1.0; 
stroke:#FFFFFF; stroke-width:98.4252; stroke-opacity:1; 
stroke-linecap:round; stroke-linejoin:round;">
</g>
<g style="fill:#FFFFFF; fill-opacity:1.0; 
stroke:#FFFFFF; stroke-width:0; stroke-opacity:1; 
stroke-linecap:round; stroke-linejoin:round;">
<circle cx="8846.12" cy="17242.8" r="344.488" /> 
</g>
<g style="fill:#FFFFFF; fill-opacity:1.0; 
stroke:#FFFFFF; stroke-width:98.4252; stroke-opacity:1; 
stroke-linecap:round; stroke-linejoin:round;">
</g>
<g style="fill:#FFFFFF; fill-opacity:1.0; 
stroke:#FFFFFF; stroke-width:0; stroke-opacity:1; 
stroke-linecap:round; stroke-linejoin:round;">
<circle cx="6673.68" cy="15317.8" r="255.906" /> 
</g>
<g style="fill:#FFFFFF; fill-opacity:1.0; 
stroke:#FFFFFF; stroke-width:98.4252; stroke-opacity:1; 
stroke-linecap:round; stroke-linejoin:round;">
</g>
<g style="fill:#FFFFFF; fill-opacity:1.0; 
stroke:#FFFFFF; stroke-width:0; stroke-opacity:1; 
stroke-linecap:round; stroke-linejoin:round;">
<circle cx="11723.7" cy="7717.82" r="295.276" /> 
</g>
<g style="fill:#FFFFFF; fill-opacity:1.0; 
stroke:#FFFFFF; stroke-width:98.4252; stroke-opacity:1; 
stroke-linecap:round; stroke-linejoin:round;">
</g>
<g style="fill:#FFFFFF; fill-opacity:1.0; 
stroke:#FFFFFF; stroke-width:0; stroke-opacity:1; 
stroke-linecap:round; stroke-linejoin:round;">
<circle cx="9578.01" cy="7717.82" r="295.276" /> 
</g>
<g style="fill:#FFFFFF; fill-opacity:1.0; 
stroke:#FFFFFF; stroke-width:98.4252; stroke-opacity:1; 
stroke-linecap:round; stroke-linejoin:round;">
</g>
<g style="fill:#FFFFFF; fill-opacity:1.0; 
stroke:#FFFFFF; stroke-width:0; stroke-opacity:1; 
stroke-linecap:round; stroke-linejoin:round;">
<circle cx="7432.34" cy="7717.82" r="295.276" /> 
</g>
<g style="fill:#FFFFFF; fill-opacity:1.0; 
stroke:#FFFFFF; stroke-width:98.4252; stroke-opacity:1; 
stroke-linecap:round; stroke-linejoin:round;">
</g>
<g style="fill:#FFFFFF; fill-opacity:1.0; 
stroke:#FFFFFF; stroke-width:0; stroke-opacity:1; 
stroke-linecap:round; stroke-linejoin:round;">
<circle cx="8948.68" cy="1267.82" r="157.48" /> 
</g>
<g style="fill:#FFFFFF; fill-opacity:1.0; 
stroke:#FFFFFF; stroke-width:98.4252; stroke-opacity:1; 
stroke-linecap:round; stroke-linejoin:round;">
</g>
<g style="fill:#FFFFFF; fill-opacity:1.0; 
stroke:#FFFFFF; stroke-width:0; stroke-opacity:1; 
stroke-linecap:round; stroke-linejoin:round;">
<circle cx="10326.6" cy="1267.82" r="157.48" /> 
</g>
<g style="fill:#FFFFFF; fill-opacity:1.0; 
stroke:#FFFFFF; stroke-width:98.4252; stroke-opacity:1; 
stroke-linecap:round; stroke-linejoin:round;">
</g>
<g style="fill:#FFFFFF; fill-opacity:1.0; 
stroke:#FFFFFF; stroke-width:0; stroke-opacity:1; 
stroke-linecap:round; stroke-linejoin:round;">
<circle cx="15834.7" cy="15336.2" r="157.48" /> 
</g>
<g style="fill:#FFFFFF; fill-opacity:1.0; 
stroke:#FFFFFF; stroke-width:98.4252; stroke-opacity:1; 
stroke-linecap:round; stroke-linejoin:round;">
</g>
<g style="fill:#FFFFFF; fill-opacity:1.0; 
stroke:#FFFFFF; stroke-width:0; stroke-opacity:1; 
stroke-linecap:round; stroke-linejoin:round;">
<circle cx="16523.7" cy="14142.8" r="157.48" /> 
</g>
<g style="fill:#FFFFFF; fill-opacity:1.0; 
stroke:#FFFFFF; stroke-width:98.4252; stroke-opacity:1; 
stroke-linecap:round; stroke-linejoin:round;">
</g>
<g style="fill:#FFFFFF; fill-opacity:1.0; 
stroke:#FFFFFF; stroke-width:0; stroke-opacity:1; 
stroke-linecap:round; stroke-linejoin:round;">
<circle cx="14173.7" cy="2817.82" r="236.22" /> 
</g>
<g style="fill:#FFFFFF; fill-opacity:1.0; 
stroke:#FFFFFF; stroke-width:98.4252; stroke-opacity:1; 
stroke-linecap:round; stroke-linejoin:round;">
</g>
<g style="fill:#FFFFFF; fill-opacity:1.0; 
stroke:#FFFFFF; stroke-width:0; stroke-opacity:1; 
stroke-linecap:round; stroke-linejoin:round;">
<circle cx="14173.7" cy="8817.82" r="236.22" /> 
</g>
<g style="fill:#FFFFFF; fill-opacity:1.0; 
stroke:#FFFFFF; stroke-width:98.4252; stroke-opacity:1; 
stroke-linecap:round; stroke-linejoin:round;">
</g>
<g style="fill:#FFFFFF; fill-opacity:1.0; 
stroke:#FFFFFF; stroke-width:0; stroke-opacity:1; 
stroke-linecap:round; stroke-linejoin:round;">
<circle cx="3164.04" cy="15246.6" r="157.48" /> 
</g>
<g style="fill:#FFFFFF; fill-opacity:1.0; 
stroke:#FFFFFF; stroke-width:98.4252; stroke-opacity:1; 
stroke-linecap:round; stroke-linejoin:round;">
</g>
<g style="fill:#FFFFFF; fill-opacity:1.0; 
stroke:#FFFFFF; stroke-width:0; stroke-opacity:1; 
stroke-linecap:round; stroke-linejoin:round;">
<circle cx="2373.68" cy="14117.8" r="157.48" /> 
</g>
<g style="fill:#FFFFFF; fill-opacity:1.0; 
stroke:#FFFFFF; stroke-width:98.4252; stroke-opacity:1; 
stroke-linecap:round; stroke-linejoin:round;">
</g>
<g style="fill:#FFFFFF; fill-opacity:1.0; 
stroke:#FFFFFF; stroke-width:0; stroke-opacity:1; 
stroke-linecap:round; stroke-linejoin:round;">
<circle cx="5298.68" cy="8892.82" r="236.22" /> 
</g>
<g style="fill:#FFFFFF; fill-opacity:1.0; 
stroke:#FFFFFF; stroke-width:98.4252; stroke-opacity:1; 
stroke-linecap:round; stroke-linejoin:round;">
</g>
<g style="fill:#FFFFFF; fill-opacity:1.0; 
stroke:#FFFFFF; stroke-width:0; stroke-opacity:1; 
stroke-linecap:round; stroke-linejoin:round;">
<circle cx="5298.68" cy="2892.82" r="236.22" /> 
</g>
<g style="fill:#FFFFFF; fill-opacity:1.0; 
stroke:#FFFFFF; stroke-width:98.4252; stroke-opacity:1; 
stroke-linecap:round; stroke-linejoin:round;">
</g>
<g style="fill:#FFFFFF; fill-opacity:1.0; 
stroke:#FFFFFF; stroke-width:0; stroke-opacity:1; 
stroke-linecap:round; stroke-linejoin:round;">
<circle cx="4673.68" cy="10067.8" r="236.22" /> 
</g>
<g style="fill:#FFFFFF; fill-opacity:1.0; 
stroke:#FFFFFF; stroke-width:98.4252; stroke-opacity:1; 
stroke-linecap:round; stroke-linejoin:round;">
</g>
<g style="fill:#FFFFFF; fill-opacity:1.0; 
stroke:#FFFFFF; stroke-width:0; stroke-opacity:1; 
stroke-linecap:round; stroke-linejoin:round;">
<circle cx="4673.68" cy="16067.8" r="236.22" /> 
</g>
<g style="fill:#FFFFFF; fill-opacity:1.0; 
stroke:#FFFFFF; stroke-width:98.4252; stroke-opacity:1; 
stroke-linecap:round; stroke-linejoin:round;">
</g>
<g style="fill:#FFFFFF; fill-opacity:1.0; 
stroke:#FFFFFF; stroke-width:0; stroke-opacity:1; 
stroke-linecap:round; stroke-linejoin:round;">
<circle cx="16398.7" cy="12617.8" r="236.22" /> 
</g>
<g style="fill:#FFFFFF; fill-opacity:1.0; 
stroke:#FFFFFF; stroke-width:98.4252; stroke-opacity:1; 
stroke-linecap:round; stroke-linejoin:round;">
</g>
<g style="fill:#FFFFFF; fill-opacity:1.0; 
stroke:#FFFFFF; stroke-width:0; stroke-opacity:1; 
stroke-linecap:round; stroke-linejoin:round;">
<circle cx="16398.7" cy="6617.82" r="236.22" /> 
</g>
<g style="fill:#FFFFFF; fill-opacity:1.0; 
stroke:#FFFFFF; stroke-width:98.4252; stroke-opacity:1; 
stroke-linecap:round; stroke-linejoin:round;">
</g>
<g style="fill:#FFFFFF; fill-opacity:1.0; 
stroke:#FFFFFF; stroke-width:0; stroke-opacity:1; 
stroke-linecap:round; stroke-linejoin:round;">
<circle cx="14173.7" cy="16067.8" r="236.22" /> 
</g>
<g style="fill:#FFFFFF; fill-opacity:1.0; 
stroke:#FFFFFF; stroke-width:98.4252; stroke-opacity:1; 
stroke-linecap:round; stroke-linejoin:round;">
</g>
<g style="fill:#FFFFFF; fill-opacity:1.0; 
stroke:#FFFFFF; stroke-width:0; stroke-opacity:1; 
stroke-linecap:round; stroke-linejoin:round;">
<circle cx="14173.7" cy="10067.8" r="236.22" /> 
</g>
<g style="fill:#FFFFFF; fill-opacity:1.0; 
stroke:#FFFFFF; stroke-width:98.4252; stroke-opacity:1; 
stroke-linecap:round; stroke-linejoin:round;">
</g>
<g style="fill:#FFFFFF; fill-opacity:1.0; 
stroke:#FFFFFF; stroke-width:0; stroke-opacity:1; 
stroke-linecap:round; stroke-linejoin:round;">
<circle cx="11023.7" cy="2717.82" r="157.48" /> 
</g>
<g style="fill:#FFFFFF; fill-opacity:1.0; 
stroke:#FFFFFF; stroke-width:98.4252; stroke-opacity:1; 
stroke-linecap:round; stroke-linejoin:round;">
</g>
<g style="fill:#FFFFFF; fill-opacity:1.0; 
stroke:#FFFFFF; stroke-width:0; stroke-opacity:1; 
stroke-linecap:round; stroke-linejoin:round;">
<circle cx="8023.68" cy="5717.82" r="157.48" /> 
</g>
<g style="fill:#FFFFFF; fill-opacity:1.0; 
stroke:#FFFFFF; stroke-width:98.4252; stroke-opacity:1; 
stroke-linecap:round; stroke-linejoin:round;">
</g>
<g style="fill:#FFFFFF; fill-opacity:1.0; 
stroke:#FFFFFF; stroke-width:0; stroke-opacity:1; 
stroke-linecap:round; stroke-linejoin:round;">
<circle cx="11023.7" cy="3717.82" r="157.48" /> 
</g>
<g style="fill:#FFFFFF; fill-opacity:1.0; 
stroke:#FFFFFF; stroke-width:98.4252; stroke-opacity:1; 
stroke-linecap:round; stroke-linejoin:round;">
</g>
<g style="fill:#FFFFFF; fill-opacity:1.0; 
stroke:#FFFFFF; stroke-width:0; stroke-opacity:1; 
stroke-linecap:round; stroke-linejoin:round;">
<circle cx="8023.68" cy="4717.82" r="157.48" /> 
</g>
<g style="fill:#FFFFFF; fill-opacity:1.0; 
stroke:#FFFFFF; stroke-width:98.4252; stroke-opacity:1; 
stroke-linecap:round; stroke-linejoin:round;">
</g>
<g style="fill:#FFFFFF; fill-opacity:1.0; 
stroke:#FFFFFF; stroke-width:0; stroke-opacity:1; 
stroke-linecap:round; stroke-linejoin:round;">
<circle cx="11023.7" cy="4717.82" r="157.48" /> 
</g>
<g style="fill:#FFFFFF; fill-opacity:1.0; 
stroke:#FFFFFF; stroke-width:98.4252; stroke-opacity:1; 
stroke-linecap:round; stroke-linejoin:round;">
</g>
<g style="fill:#FFFFFF; fill-opacity:1.0; 
stroke:#FFFFFF; stroke-width:0; stroke-opacity:1; 
stroke-linecap:round; stroke-linejoin:round;">
<circle cx="8023.68" cy="3717.82" r="157.48" /> 
</g>
<g style="fill:#FFFFFF; fill-opacity:1.0; 
stroke:#FFFFFF; stroke-width:98.4252; stroke-opacity:1; 
stroke-linecap:round; stroke-linejoin:round;">
</g>
<g style="fill:#FFFFFF; fill-opacity:1.0; 
stroke:#FFFFFF; stroke-width:0; stroke-opacity:1; 
stroke-linecap:round; stroke-linejoin:round;">
<circle cx="11023.7" cy="5717.82" r="157.48" /> 
</g>
<g style="fill:#FFFFFF; fill-opacity:1.0; 
stroke:#FFFFFF; stroke-width:98.4252; stroke-opacity:1; 
stroke-linecap:round; stroke-linejoin:round;">
</g>
<g style="fill:#FFFFFF; fill-opacity:1.0; 
stroke:#FFFFFF; stroke-width:0; stroke-opacity:1; 
stroke-linecap:round; stroke-linejoin:round;">
<circle cx="8023.68" cy="2717.82" r="157.48" /> 
</g>
<g style="fill:#FFFFFF; fill-opacity:1.0; 
stroke:#FFFFFF; stroke-width:98.4252; stroke-opacity:1; 
stroke-linecap:round; stroke-linejoin:round;">
</g>
<g style="fill:#000000; fill-opacity:1.0; 
stroke:#000000; stroke-width:98.4252; stroke-opacity:1; 
stroke-linecap:round; stroke-linejoin:round;">
</g>
<g style="fill:#000000; fill-opacity:0.0; 
stroke:#000000; stroke-width:59.0551; stroke-opacity:1; 
stroke-linecap:round; stroke-linejoin:round;">
<circle cx="9423.68" cy="9423.68" r="9394.15" /> 
<g >
</g>
<g >
</g>
<g >
</g>
<g >
</g>
<g >
</g>
<g >
</g>
<g >
</g>
<g >
</g>
<g >
</g>
<g >
</g>
<g >
</g>
<g >
</g>
<g >
</g>
<g >
</g>
<g >
</g>
</g> 
</svg>
