<?xml version="1.0" standalone="no"?>
 <!DOCTYPE svg PUBLIC "-//W3C//DTD SVG 1.1//EN" 
 "http://www.w3.org/Graphics/SVG/1.1/DTD/svg11.dtd"> 
<svg
  xmlns:svg="http://www.w3.org/2000/svg"
  xmlns="http://www.w3.org/2000/svg"
  xmlns:xlink="http://www.w3.org/1999/xlink"
  version="1.1"
  width="4.775200cm" height="4.762500cm" viewBox="0 0 18800 18750">
<title>SVG Picture created as Breath_PCB-brd.svg date 2020/07/29 20:40:43 </title>
  <desc>Picture generated by PCBNEW </desc>
<g style="fill:#000000; fill-opacity:1;stroke:#000000; stroke-opacity:1;
stroke-linecap:round; stroke-linejoin:round;"
 transform="translate(0 0) scale(1 1)">
</g>
<g style="fill:#000000; fill-opacity:0.0; 
stroke:#000000; stroke-width:-0.000393701; stroke-opacity:1; 
stroke-linecap:round; stroke-linejoin:round;">
<g >
</g>
<g style="fill:#840000; fill-opacity:0.0; 
stroke:#840000; stroke-width:-0.000393701; stroke-opacity:1; 
stroke-linecap:round; stroke-linejoin:round;">
</g>
<g style="fill:#840000; fill-opacity:0.0; 
stroke:#840000; stroke-width:0; stroke-opacity:1; 
stroke-linecap:round; stroke-linejoin:round;">
</g>
<g style="fill:#840000; fill-opacity:1.0; 
stroke:#840000; stroke-width:0; stroke-opacity:1; 
stroke-linecap:round; stroke-linejoin:round;">
<path style="fill:#840000; fill-opacity:1.0; 
stroke:#840000; stroke-width:0; stroke-opacity:1; 
stroke-linecap:round; stroke-linejoin:round;fill-rule:evenodd;"
d="M 7563.98,11275
7563.98,12338
6186.02,12338
6186.02,11275
Z" /> 
<path style="fill:#840000; fill-opacity:1.0; 
stroke:#840000; stroke-width:0; stroke-opacity:1; 
stroke-linecap:round; stroke-linejoin:round;fill-rule:evenodd;"
d="M 12564,10212
12564,11275
11186,11275
11186,10212
Z" /> 
<circle cx="9375" cy="11275" r="1122.05" /> 
</g>
<g style="fill:#840000; fill-opacity:1.0; 
stroke:#840000; stroke-width:98.4252; stroke-opacity:1; 
stroke-linecap:round; stroke-linejoin:round;">
</g>
<g >
</g>
<g style="fill:#848400; fill-opacity:1.0; 
stroke:#848400; stroke-width:98.4252; stroke-opacity:1; 
stroke-linecap:round; stroke-linejoin:round;">
</g>
<g style="fill:#848400; fill-opacity:1.0; 
stroke:#848400; stroke-width:0; stroke-opacity:1; 
stroke-linecap:round; stroke-linejoin:round;">
<circle cx="6600" cy="17150" r="511.811" /> 
</g>
<g style="fill:#848400; fill-opacity:1.0; 
stroke:#848400; stroke-width:98.4252; stroke-opacity:1; 
stroke-linecap:round; stroke-linejoin:round;">
</g>
<g >
</g>
<g style="fill:#848400; fill-opacity:1.0; 
stroke:#848400; stroke-width:98.4252; stroke-opacity:1; 
stroke-linecap:round; stroke-linejoin:round;">
</g>
<g style="fill:#848400; fill-opacity:1.0; 
stroke:#848400; stroke-width:0; stroke-opacity:1; 
stroke-linecap:round; stroke-linejoin:round;">
<path style="fill:#848400; fill-opacity:1.0; 
stroke:#848400; stroke-width:0; stroke-opacity:1; 
stroke-linecap:round; stroke-linejoin:round;fill-rule:evenodd;"
d="M 10915.6,16609.4
10915.6,17790.6
9734.45,17790.6
9734.45,16609.4
Z" /> 
<circle cx="8797.44" cy="17200" r="590.551" /> 
</g>
<g style="fill:#848400; fill-opacity:1.0; 
stroke:#848400; stroke-width:98.4252; stroke-opacity:1; 
stroke-linecap:round; stroke-linejoin:round;">
</g>
<g >
</g>
<g style="fill:#848400; fill-opacity:1.0; 
stroke:#848400; stroke-width:98.4252; stroke-opacity:1; 
stroke-linecap:round; stroke-linejoin:round;">
</g>
<g style="fill:#848400; fill-opacity:1.0; 
stroke:#848400; stroke-width:0; stroke-opacity:1; 
stroke-linecap:round; stroke-linejoin:round;">
<circle cx="6550" cy="15275" r="511.811" /> 
</g>
<g style="fill:#848400; fill-opacity:1.0; 
stroke:#848400; stroke-width:98.4252; stroke-opacity:1; 
stroke-linecap:round; stroke-linejoin:round;">
</g>
<g >
</g>
<g style="fill:#848400; fill-opacity:1.0; 
stroke:#848400; stroke-width:98.4252; stroke-opacity:1; 
stroke-linecap:round; stroke-linejoin:round;">
</g>
<g style="fill:#848400; fill-opacity:1.0; 
stroke:#848400; stroke-width:0; stroke-opacity:1; 
stroke-linecap:round; stroke-linejoin:round;">
<circle cx="6625" cy="13400" r="511.811" /> 
</g>
<g style="fill:#848400; fill-opacity:1.0; 
stroke:#848400; stroke-width:98.4252; stroke-opacity:1; 
stroke-linecap:round; stroke-linejoin:round;">
</g>
<g >
</g>
<g style="fill:#848400; fill-opacity:1.0; 
stroke:#848400; stroke-width:98.4252; stroke-opacity:1; 
stroke-linecap:round; stroke-linejoin:round;">
</g>
<g style="fill:#848400; fill-opacity:1.0; 
stroke:#848400; stroke-width:0; stroke-opacity:1; 
stroke-linecap:round; stroke-linejoin:round;">
<path style="fill:#848400; fill-opacity:1.0; 
stroke:#848400; stroke-width:0; stroke-opacity:1; 
stroke-linecap:round; stroke-linejoin:round;fill-rule:evenodd;"
d="M 12167.1,6789.17
12167.1,8560.83
11182.9,8560.83
11182.9,6789.17
Z" /> 
</g>
<g style="fill:#848400; fill-opacity:1.0; 
stroke:#848400; stroke-width:984.252; stroke-opacity:1; 
stroke-linecap:round; stroke-linejoin:round;">
</g>
<g style="fill:#848400; fill-opacity:0.0; 
stroke:#848400; stroke-width:984.252; stroke-opacity:1; 
stroke-linecap:round; stroke-linejoin:round;">
<path d="M9529 8068
L9529 7281
" />
<path d="M7383 8068
L7383 7281
" />
</g>
<g >
</g>
<g style="fill:#848400; fill-opacity:0.0; 
stroke:#848400; stroke-width:984.252; stroke-opacity:1; 
stroke-linecap:round; stroke-linejoin:round;">
</g>
<g style="fill:#848400; fill-opacity:1.0; 
stroke:#848400; stroke-width:0; stroke-opacity:1; 
stroke-linecap:round; stroke-linejoin:round;">
<circle cx="8875" cy="1025" r="314.961" /> 
</g>
<g style="fill:#848400; fill-opacity:1.0; 
stroke:#848400; stroke-width:98.4252; stroke-opacity:1; 
stroke-linecap:round; stroke-linejoin:round;">
</g>
<g style="fill:#848400; fill-opacity:1.0; 
stroke:#848400; stroke-width:0; stroke-opacity:1; 
stroke-linecap:round; stroke-linejoin:round;">
<circle cx="10253" cy="1025" r="314.961" /> 
</g>
<g style="fill:#848400; fill-opacity:1.0; 
stroke:#848400; stroke-width:98.4252; stroke-opacity:1; 
stroke-linecap:round; stroke-linejoin:round;">
</g>
<g >
</g>
<g style="fill:#848400; fill-opacity:1.0; 
stroke:#848400; stroke-width:98.4252; stroke-opacity:1; 
stroke-linecap:round; stroke-linejoin:round;">
</g>
<g style="fill:#848400; fill-opacity:1.0; 
stroke:#848400; stroke-width:0; stroke-opacity:1; 
stroke-linecap:round; stroke-linejoin:round;">
<circle cx="15789.3" cy="15255.6" r="314.961" /> 
</g>
<g style="fill:#848400; fill-opacity:1.0; 
stroke:#848400; stroke-width:98.4252; stroke-opacity:1; 
stroke-linecap:round; stroke-linejoin:round;">
</g>
<g style="fill:#848400; fill-opacity:1.0; 
stroke:#848400; stroke-width:0; stroke-opacity:1; 
stroke-linecap:round; stroke-linejoin:round;">
<circle cx="16675" cy="14200" r="314.961" /> 
</g>
<g style="fill:#848400; fill-opacity:1.0; 
stroke:#848400; stroke-width:98.4252; stroke-opacity:1; 
stroke-linecap:round; stroke-linejoin:round;">
</g>
<g >
</g>
<g style="fill:#848400; fill-opacity:1.0; 
stroke:#848400; stroke-width:98.4252; stroke-opacity:1; 
stroke-linecap:round; stroke-linejoin:round;">
</g>
<g style="fill:#848400; fill-opacity:1.0; 
stroke:#848400; stroke-width:944.882; stroke-opacity:1; 
stroke-linecap:round; stroke-linejoin:round;">
</g>
<g style="fill:#848400; fill-opacity:0.0; 
stroke:#848400; stroke-width:944.882; stroke-opacity:1; 
stroke-linecap:round; stroke-linejoin:round;">
<path d="M14125 2775
L14125 2775
" />
</g>
<g style="fill:#848400; fill-opacity:1.0; 
stroke:#848400; stroke-width:0; stroke-opacity:1; 
stroke-linecap:round; stroke-linejoin:round;">
<circle cx="14125" cy="8775" r="472.441" /> 
</g>
<g style="fill:#848400; fill-opacity:1.0; 
stroke:#848400; stroke-width:98.4252; stroke-opacity:1; 
stroke-linecap:round; stroke-linejoin:round;">
</g>
<g >
</g>
<g style="fill:#848400; fill-opacity:1.0; 
stroke:#848400; stroke-width:98.4252; stroke-opacity:1; 
stroke-linecap:round; stroke-linejoin:round;">
</g>
<g style="fill:#848400; fill-opacity:1.0; 
stroke:#848400; stroke-width:0; stroke-opacity:1; 
stroke-linecap:round; stroke-linejoin:round;">
<circle cx="2875" cy="15075" r="314.961" /> 
</g>
<g style="fill:#848400; fill-opacity:1.0; 
stroke:#848400; stroke-width:98.4252; stroke-opacity:1; 
stroke-linecap:round; stroke-linejoin:round;">
</g>
<g style="fill:#848400; fill-opacity:1.0; 
stroke:#848400; stroke-width:0; stroke-opacity:1; 
stroke-linecap:round; stroke-linejoin:round;">
<circle cx="1989.27" cy="14019.4" r="314.961" /> 
</g>
<g style="fill:#848400; fill-opacity:1.0; 
stroke:#848400; stroke-width:98.4252; stroke-opacity:1; 
stroke-linecap:round; stroke-linejoin:round;">
</g>
<g >
</g>
<g style="fill:#848400; fill-opacity:1.0; 
stroke:#848400; stroke-width:98.4252; stroke-opacity:1; 
stroke-linecap:round; stroke-linejoin:round;">
</g>
<g style="fill:#848400; fill-opacity:1.0; 
stroke:#848400; stroke-width:0; stroke-opacity:1; 
stroke-linecap:round; stroke-linejoin:round;">
<circle cx="4625" cy="8775" r="472.441" /> 
</g>
<g style="fill:#848400; fill-opacity:1.0; 
stroke:#848400; stroke-width:98.4252; stroke-opacity:1; 
stroke-linecap:round; stroke-linejoin:round;">
</g>
<g style="fill:#848400; fill-opacity:1.0; 
stroke:#848400; stroke-width:944.882; stroke-opacity:1; 
stroke-linecap:round; stroke-linejoin:round;">
</g>
<g style="fill:#848400; fill-opacity:0.0; 
stroke:#848400; stroke-width:944.882; stroke-opacity:1; 
stroke-linecap:round; stroke-linejoin:round;">
<path d="M4625 2775
L4625 2775
" />
</g>
<g >
</g>
<g style="fill:#848400; fill-opacity:0.0; 
stroke:#848400; stroke-width:944.882; stroke-opacity:1; 
stroke-linecap:round; stroke-linejoin:round;">
</g>
<g style="fill:#848400; fill-opacity:1.0; 
stroke:#848400; stroke-width:0; stroke-opacity:1; 
stroke-linecap:round; stroke-linejoin:round;">
<circle cx="4625" cy="10025" r="472.441" /> 
</g>
<g style="fill:#848400; fill-opacity:1.0; 
stroke:#848400; stroke-width:98.4252; stroke-opacity:1; 
stroke-linecap:round; stroke-linejoin:round;">
</g>
<g style="fill:#848400; fill-opacity:1.0; 
stroke:#848400; stroke-width:944.882; stroke-opacity:1; 
stroke-linecap:round; stroke-linejoin:round;">
</g>
<g style="fill:#848400; fill-opacity:0.0; 
stroke:#848400; stroke-width:944.882; stroke-opacity:1; 
stroke-linecap:round; stroke-linejoin:round;">
<path d="M4625 16025
L4625 16025
" />
</g>
<g >
</g>
<g style="fill:#848400; fill-opacity:0.0; 
stroke:#848400; stroke-width:944.882; stroke-opacity:1; 
stroke-linecap:round; stroke-linejoin:round;">
<path d="M2475 12475
L2475 12475
" />
</g>
<g style="fill:#848400; fill-opacity:1.0; 
stroke:#848400; stroke-width:0; stroke-opacity:1; 
stroke-linecap:round; stroke-linejoin:round;">
<circle cx="2475" cy="6475" r="472.441" /> 
</g>
<g style="fill:#848400; fill-opacity:1.0; 
stroke:#848400; stroke-width:98.4252; stroke-opacity:1; 
stroke-linecap:round; stroke-linejoin:round;">
</g>
<g >
</g>
<g style="fill:#848400; fill-opacity:1.0; 
stroke:#848400; stroke-width:98.4252; stroke-opacity:1; 
stroke-linecap:round; stroke-linejoin:round;">
</g>
<g style="fill:#848400; fill-opacity:1.0; 
stroke:#848400; stroke-width:0; stroke-opacity:1; 
stroke-linecap:round; stroke-linejoin:round;">
<circle cx="17125" cy="12525" r="472.441" /> 
</g>
<g style="fill:#848400; fill-opacity:1.0; 
stroke:#848400; stroke-width:98.4252; stroke-opacity:1; 
stroke-linecap:round; stroke-linejoin:round;">
</g>
<g style="fill:#848400; fill-opacity:1.0; 
stroke:#848400; stroke-width:944.882; stroke-opacity:1; 
stroke-linecap:round; stroke-linejoin:round;">
</g>
<g style="fill:#848400; fill-opacity:0.0; 
stroke:#848400; stroke-width:944.882; stroke-opacity:1; 
stroke-linecap:round; stroke-linejoin:round;">
<path d="M17125 6525
L17125 6525
" />
</g>
<g >
</g>
<g style="fill:#848400; fill-opacity:0.0; 
stroke:#848400; stroke-width:944.882; stroke-opacity:1; 
stroke-linecap:round; stroke-linejoin:round;">
<path d="M14125 16025
L14125 16025
" />
</g>
<g style="fill:#848400; fill-opacity:1.0; 
stroke:#848400; stroke-width:0; stroke-opacity:1; 
stroke-linecap:round; stroke-linejoin:round;">
<circle cx="14125" cy="10025" r="472.441" /> 
</g>
<g style="fill:#848400; fill-opacity:1.0; 
stroke:#848400; stroke-width:98.4252; stroke-opacity:1; 
stroke-linecap:round; stroke-linejoin:round;">
</g>
<g >
</g>
<g style="fill:#848400; fill-opacity:1.0; 
stroke:#848400; stroke-width:98.4252; stroke-opacity:1; 
stroke-linecap:round; stroke-linejoin:round;">
</g>
<g style="fill:#848400; fill-opacity:1.0; 
stroke:#848400; stroke-width:0; stroke-opacity:1; 
stroke-linecap:round; stroke-linejoin:round;">
<path style="fill:#848400; fill-opacity:1.0; 
stroke:#848400; stroke-width:0; stroke-opacity:1; 
stroke-linecap:round; stroke-linejoin:round;fill-rule:evenodd;"
d="M 7810.04,2589.96
7810.04,1960.04
8439.96,1960.04
8439.96,2589.96
Z" /> 
</g>
<g style="fill:#848400; fill-opacity:1.0; 
stroke:#848400; stroke-width:629.921; stroke-opacity:1; 
stroke-linecap:round; stroke-linejoin:round;">
</g>
<g style="fill:#848400; fill-opacity:0.0; 
stroke:#848400; stroke-width:629.921; stroke-opacity:1; 
stroke-linecap:round; stroke-linejoin:round;">
<path d="M11125 5275
L11125 5275
" />
<path d="M8125 3275
L8125 3275
" />
<path d="M11125 4275
L11125 4275
" />
<path d="M8125 4275
L8125 4275
" />
<path d="M11125 3275
L11125 3275
" />
<path d="M8125 5275
L8125 5275
" />
<path d="M11125 2275
L11125 2275
" />
</g>
<g >
</g>
<g >
</g>
<g style="fill:#840000; fill-opacity:0.0; 
stroke:#840000; stroke-width:629.921; stroke-opacity:1; 
stroke-linecap:round; stroke-linejoin:round;">
</g>
<g style="fill:#840000; fill-opacity:0.0; 
stroke:#840000; stroke-width:98.4252; stroke-opacity:1; 
stroke-linecap:round; stroke-linejoin:round;">
<path d="M6406 11806
L4625 10025
" />
<path d="M6875 11806
L6406 11806
" />
<path d="M2475 7875
L2475 6475
" />
<path d="M4625 10025
L2475 7875
" />
<path d="M9529 8397
L11875 10743
" />
<path d="M9529 7675
L9529 8397
" />
<path d="M4625 16025
L3825 16025
" />
<path d="M3825 16025
L2875 15075
" />
<path d="M1546 14232
L1546 13403
" />
<path d="M2298 12651
L2298 12475
" />
<path d="M2875 15075
L2389 15075
" />
<path d="M2389 15075
L1546 14232
" />
<path d="M1546 13403
L2298 12651
" />
<path d="M2475 12475
L425 10425
" />
<path d="M1367 6507
L425 7450
" />
<path d="M425 10425
L425 7450
" />
<path d="M1367 5232
L1367 6507
" />
<path d="M1367 4892
L1367 5232
" />
<path d="M8875 1025
L9500 400
" />
<path d="M11125 1241
L11125 2275
" />
<path d="M10283 400
L11125 1241
" />
<path d="M9500 400
L10283 400
" />
<path d="M4625 16025
L5725 17125
" />
<path d="M6575 17125
L6600 17150
" />
<path d="M5725 17125
L6575 17125
" />
<path d="M8747 17150
L8797 17200
" />
<path d="M6600 17150
L8747 17150
" />
<path d="M14725 15663
L14725 16313
" />
<path d="M13293 17744
L11755 17744
" />
<path d="M16675 14200
L16189 14200
" />
<path d="M14725 16313
L13293 17744
" />
<path d="M16189 14200
L14725 15663
" />
<path d="M11755 17744
L11175 18325
" />
<path d="M9922 18325
L8797 17200
" />
<path d="M11175 18325
L9922 18325
" />
<path d="M1367 4817
L1637 4548
" />
<path d="M8157 1742
L8875 1025
" />
<path d="M1637 4548
L1637 4387
" />
<path d="M1367 5232
L1367 4817
" />
<path d="M1637 4387
L4282 1742
" />
<path d="M4282 1742
L8157 1742
" />
<path d="M6625 13400
L8575 15350
" />
<path d="M14300 15350
L17125 12525
" />
<path d="M8575 15350
L14300 15350
" />
<path d="M6283 8775
L7383 7675
" />
<path d="M4625 8775
L6283 8775
" />
<path d="M14125 2775
L14793 2775
" />
<path d="M14793 2775
L17725 5707
" />
<path d="M8125 3275
L7050 3275
" />
<path d="M7050 3275
L6487 2712
" />
<path d="M6487 2712
L5850 2075
" />
<path d="M8125 3275
L8897 2502
" />
<path d="M10875 2775
L14125 2775
" />
<path d="M10547 2447
L10875 2775
" />
<path d="M8897 2447
L10547 2447
" />
<path d="M8897 2502
L8897 2447
" />
<path d="M17125 13599
L17725 12999
" />
<path d="M17125 14405
L17125 13599
" />
<path d="M16274 15255
L17125 14405
" />
<path d="M15789 15255
L16274 15255
" />
<path d="M17725 5707
L17725 12999
" />
<path d="M10252 2152
L10547 2447
" />
<path d="M10252 1025
L10252 2152
" />
<path d="M5775 2000
L6487 2712
" />
<path d="M4511 2000
L5775 2000
" />
<path d="M1874 4636
L4511 2000
" />
<path d="M3075 12925
L3075 11724
" />
<path d="M2899 11724
L1874 10699
" />
<path d="M1900 14100
L3075 12925
" />
<path d="M3075 11724
L2899 11724
" />
<path d="M1874 10699
L1874 4636
" />
<path d="M4625 2775
L5900 2775
" />
<path d="M5900 2775
L7400 4275
" />
<path d="M8125 4275
L7400 4275
" />
<path d="M17125 7025
L17125 6525
" />
<path d="M14125 10025
L17125 7025
" />
<path d="M14189 3589
L17125 6525
" />
<path d="M11439 3589
L14189 3589
" />
<path d="M11125 3275
L11439 3589
" />
</g>
<g >
</g>
<g style="fill:#840000; fill-opacity:0.0; 
stroke:#840000; stroke-width:98.4252; stroke-opacity:1; 
stroke-linecap:round; stroke-linejoin:round;">
</g>
<g style="fill:#840000; fill-opacity:1.0; 
stroke:#840000; stroke-width:100; stroke-opacity:1; 
stroke-linecap:round; stroke-linejoin:round;">
<path style="fill:#840000; fill-opacity:1.0; 
stroke:#840000; stroke-width:100; stroke-opacity:1; 
stroke-linecap:round; stroke-linejoin:round;fill-rule:evenodd;"
d="M 10648.3,2971.48
10624.3,3007.39
10581.8,3110.21
10560,3219.36
10560,3330.64
10581.8,3439.79
10624.3,3542.61
10686.2,3635.14
10764.9,3713.83
10856.4,3775
10764.9,3836.17
10686.2,3914.86
10624.3,4007.39
10581.8,4110.21
10560,4219.36
10560,4330.64
10581.8,4439.79
10624.3,4542.61
10686.2,4635.14
10764.9,4713.83
10856.4,4775
10764.9,4836.17
10686.2,4914.86
10624.3,5007.39
10581.8,5110.21
10560,5219.36
10560,5330.64
10581.8,5439.79
10624.3,5542.61
10686.2,5635.14
10764.9,5713.83
10857.4,5775.66
10960.2,5818.25
11069.4,5839.96
11180.6,5839.96
11289.8,5818.25
11392.6,5775.66
11485.1,5713.83
11563.8,5635.14
11625.7,5542.61
11668.2,5439.79
11690,5330.64
11690,5219.36
11668.2,5110.21
11625.7,5007.39
11563.8,4914.86
11485.1,4836.17
11393.6,4775
11485.1,4713.83
11563.8,4635.14
11625.7,4542.61
11668.2,4439.79
11690,4330.64
11690,4219.36
11668.2,4110.21
11625.7,4007.39
11563.8,3914.86
11538.1,3889.17
14066,3889.17
16448.1,6271.28
16430.3,6314.27
16402.6,6453.85
16402.6,6596.15
16430.3,6735.73
16484.8,6867.2
16563.8,6985.53
16652.6,7074.27
14841.6,8885.28
14850.6,8753.47
14832.5,8612.32
14787.1,8477.43
14740.3,8389.77
14628.1,8342.57
14195.7,8775
14201.3,8780.57
14130.6,8851.28
14125,8845.71
13692.6,9278.14
13739.8,9390.29
13759.7,9400.2
13664.5,9463.84
13563.8,9564.47
13484.8,9682.8
13430.3,9814.27
13402.6,9953.85
13402.6,10096.2
13430.3,10235.7
13484.8,10367.2
13563.8,10485.5
13664.5,10586.2
13782.8,10665.2
13914.3,10719.7
14053.8,10747.4
14196.2,10747.4
14335.7,10719.7
14467.2,10665.2
14585.5,10586.2
14686.2,10485.5
14765.2,10367.2
14819.7,10235.7
14847.4,10096.2
14847.4,9953.85
14819.7,9814.27
14801.9,9771.28
17326.2,7246.97
17337.6,7237.6
17360.8,7209.27
17426.2,7182.21
17426.2,11867.8
17335.7,11830.3
17196.2,11802.6
17053.8,11802.6
16914.3,11830.3
16782.8,11884.8
16664.5,11963.8
16563.8,12064.5
16484.8,12182.8
16430.3,12314.3
16402.6,12453.8
16402.6,12596.2
16430.3,12735.7
16448.1,12778.7
14176.1,15050.8
8698.94,15050.8
7332,13683.9
7357.54,13622.2
7386.81,13475
7386.81,13325
7357.54,13177.8
7300.11,13039.1
7216.74,12914.4
7110.63,12808.3
6985.85,12724.9
6847.21,12667.5
6700.03,12638.2
6549.97,12638.2
6402.79,12667.5
6264.15,12724.9
6139.37,12808.3
6033.26,12914.4
5949.89,13039.1
5892.46,13177.8
5863.19,13325
5863.19,13475
5892.46,13622.2
5949.89,13760.9
6033.26,13885.6
6139.37,13991.7
6264.15,14075.1
6402.79,14132.5
6549.97,14161.8
6700.03,14161.8
6847.21,14132.5
6908.85,14107
8353.03,15551.2
8362.4,15562.6
8407.96,15600
8459.94,15627.8
8516.34,15644.9
8560.3,15649.2
8560.31,15649.2
8575,15650.7
8589.69,15649.2
13511.7,15649.2
13466.1,15728.6
13421,15862.9
13466.8,15975
14075,15975
14075,15967.1
14175,15967.1
14175,15975
14182.9,15975
14182.9,16075
14175,16075
14175,16082.9
14075,16082.9
14075,16075
13466.8,16075
13421,16187.1
13466.1,16321.4
13536.6,16444.2
13629.7,16550.9
13741.8,16637.5
13868.7,16700.4
13904.2,16711.2
13169.9,17445.6
11769.9,17445.6
11755.2,17444.1
11740.5,17445.6
11696.6,17449.9
11640.2,17467
11588.2,17494.8
11542.6,17532.2
11533.2,17543.6
11051.1,18025.8
11001.3,18025.8
11011.7,18022.6
11055.1,17999.4
11093.2,17968.2
11124.4,17930.1
11147.6,17886.7
11161.9,17839.6
11166.8,17790.6
11165.6,17312.5
11103.1,17250
10375,17250
10375,17257.9
10275,17257.9
10275,17250
10267.1,17250
10267.1,17150
10275,17150
10275,16421.9
10375,16421.9
10375,17150
11103.1,17150
11165.6,17087.5
11166.8,16609.4
11161.9,16560.4
11147.6,16513.3
11124.4,16469.9
11093.2,16431.8
11055.1,16400.6
11011.7,16377.4
10964.6,16363.1
10915.6,16358.2
10437.5,16359.4
10375,16421.9
10275,16421.9
10212.5,16359.4
9734.45,16358.2
9685.44,16363.1
9638.31,16377.4
9594.88,16400.6
9556.82,16431.8
9525.58,16469.9
9502.36,16513.3
9488.07,16560.4
9483.24,16609.4
9483.5,16713.8
9450.34,16664.2
9333.26,16547.1
9195.59,16455.1
9042.62,16391.8
8880.23,16359.4
8714.65,16359.4
8552.26,16391.8
8399.29,16455.1
8261.62,16547.1
8144.54,16664.2
8052.55,16801.8
8032.28,16850.8
7300.64,16850.8
7275.11,16789.1
7191.74,16664.4
7085.63,16558.3
6960.85,16474.9
6822.21,16417.5
6675.03,16388.2
6524.97,16388.2
6377.79,16417.5
6239.15,16474.9
6114.37,16558.3
6008.26,16664.4
5924.89,16789.1
5909.71,16825.8
5848.94,16825.8
5301.87,16278.7
5319.68,16235.7
5347.44,16096.2
5347.44,15953.8
5319.68,15814.3
5316.33,15806.2
6089.52,15806.2
6141.46,15922.4
6275.61,15989.6
6420.3,16029.4
6569.97,16040.2
6718.88,16021.6
6861.3,15974.3
6958.54,15922.4
7010.48,15806.2
6550,15345.7
6089.52,15806.2
5316.33,15806.2
5265.22,15682.8
5186.16,15564.5
5085.53,15463.8
4967.2,15384.8
4835.73,15330.3
4696.15,15302.6
4553.85,15302.6
4414.27,15330.3
4282.8,15384.8
4164.47,15463.8
4063.84,15564.5
3984.78,15682.8
3966.97,15725.8
3948.94,15725.8
3518.12,15295
5784.76,15295
5803.36,15443.9
5850.66,15586.3
5902.63,15683.5
6018.81,15735.5
6479.29,15275
6620.71,15275
7081.19,15735.5
7197.37,15683.5
7264.63,15549.4
7304.43,15404.7
7315.24,15255
7296.64,15106.1
7249.34,14963.7
7197.37,14866.5
7081.19,14814.5
6620.71,15275
6479.29,15275
6018.81,14814.5
5902.63,14866.5
5835.37,15000.6
5795.57,15145.3
5784.76,15295
3518.12,15295
3425.66,15202.5
3439.96,15130.6
3439.96,15019.4
3418.25,14910.2
3375.66,14807.4
3333.18,14743.8
6089.52,14743.8
6550,15204.3
7010.48,14743.8
6958.54,14627.6
6824.39,14560.4
6679.7,14520.6
6530.03,14509.8
6381.12,14528.4
6238.7,14575.7
6141.46,14627.6
6089.52,14743.8
3333.18,14743.8
3313.83,14714.9
3235.14,14636.2
3142.61,14574.3
3039.79,14531.8
2930.64,14510
2819.36,14510
2710.21,14531.8
2607.39,14574.3
2514.86,14636.2
2444.25,14706.8
2257.29,14519.8
2349.41,14458.3
2428.1,14379.6
2489.93,14287
2532.52,14184.2
2554.23,14075.1
2554.23,13963.8
2538.7,13885.7
3276.58,13147.9
3287.99,13138.5
3297.36,13127.1
3297.36,13127.1
3325.38,13092.9
3325.38,13092.9
3353.17,13040.9
3370.28,12984.5
3374.61,12940.6
3374.61,12940.6
3376.05,12925.9
3374.61,12911.2
3374.61,11739.3
3376.05,11724.6
3370.28,11666
3353.17,11609.5
3325.38,11557.6
3287.99,11512
3242.43,11474.6
3190.45,11446.8
3134.05,11429.7
3090.09,11425.4
3075.39,11423.9
3060.7,11425.4
3023.54,11425.4
2173.82,10575.7
2173.82,7132.21
2175.79,7133.03
2175.79,7860.31
2174.34,7875
2175.79,7889.69
2175.79,7889.7
2180.12,7933.66
2197.23,7990.06
2225.01,8042.04
2231.04,8049.38
2262.4,8087.6
2273.82,8096.97
3948.13,9771.28
3930.32,9814.27
3902.56,9953.85
3902.56,10096.2
3930.32,10235.7
3984.78,10367.2
4063.84,10485.5
4164.47,10586.2
4282.8,10665.2
4414.27,10719.7
4553.85,10747.4
4696.15,10747.4
4835.73,10719.7
4878.72,10701.9
5934.81,11758
5934.81,12338
5939.64,12387
5953.94,12434.1
5977.15,12477.6
6008.39,12515.6
6046.46,12546.9
6089.89,12570.1
6137.01,12584.4
6186.02,12589.2
7563.98,12589.2
7612.99,12584.4
7660.11,12570.1
7703.54,12546.9
7741.61,12515.6
7772.85,12477.6
7796.06,12434.1
7810.36,12387
7815.19,12338
7815.19,11275
7810.36,11226
7796.06,11178.9
7775.22,11139.9
8002.95,11139.9
8002.95,11410.1
8055.68,11675.2
8159.11,11924.9
8309.26,12149.6
8500.37,12340.7
8725.09,12490.9
8974.79,12594.3
9239.87,12647
9510.13,12647
9775.21,12594.3
10024.9,12490.9
10249.6,12340.7
10440.7,12149.6
10590.9,11924.9
10694.3,11675.2
10747,11410.1
10747,11139.9
10694.3,10874.8
10590.9,10625.1
10440.7,10400.4
10249.6,10209.3
10024.9,10059.1
9775.21,9955.68
9510.13,9902.95
9239.87,9902.95
8974.79,9955.68
8725.09,10059.1
8500.37,10209.3
8309.26,10400.4
8159.11,10625.1
8055.68,10874.8
8002.95,11139.9
7775.22,11139.9
7772.85,11135.4
7741.61,11097.4
7703.54,11066.1
7660.11,11042.9
7612.99,11028.6
7563.98,11023.8
6186.02,11023.8
6137.01,11028.6
6089.89,11042.9
6074.36,11051.2
5301.87,10278.7
5319.68,10235.7
5347.44,10096.2
5347.44,9953.85
5319.68,9814.27
5265.22,9682.8
5186.16,9564.47
5085.53,9463.84
4989.98,9400
5085.53,9336.16
5186.16,9235.53
5265.22,9117.2
5283.03,9074.21
6268.97,9074.21
6283.66,9075.66
6298.36,9074.21
6298.36,9074.21
6342.32,9069.88
6398.72,9052.77
6450.7,9024.99
6496.26,8987.6
6505.63,8976.18
6872.54,8609.28
6969.36,8688.74
7098.29,8757.65
7238.18,8800.09
7383.66,8814.42
7529.14,8800.09
7669.03,8757.65
7797.96,8688.74
7910.96,8596
8003.7,8483
8072.61,8354.07
8115.05,8214.18
8125.79,8105.16
8125.79,8105.16
8787.2,8105.16
8797.94,8214.18
8840.38,8354.07
8909.29,8483
9002.03,8596
9115.03,8688.74
9243.96,8757.65
9383.85,8800.09
9522.05,8813.7
10934.8,10226.5
10934.8,11275
10939.6,11324
10953.9,11371.1
10977.2,11414.6
11008.4,11452.6
11046.5,11483.9
11089.9,11507.1
11137,11521.4
11186,11526.2
12564,11526.2
12613,11521.4
12660.1,11507.1
12703.5,11483.9
12741.6,11452.6
12772.8,11414.6
12796.1,11371.1
12810.4,11324
12815.2,11275
12815.2,10212
12810.4,10163
12796.1,10115.9
12772.8,10072.4
12741.6,10034.4
12703.5,10003.1
12660.1,9979.92
12613,9965.63
12564,9960.8
11515.4,9960.8
10115.5,8560.83
10931.7,8560.83
10936.5,8609.84
10950.8,8656.96
10974,8700.39
11005.2,8738.46
11043.3,8769.7
11086.7,8792.91
11133.9,8807.21
11182.9,8812.04
11562.5,8810.83
11625,8748.33
11625,7725
11725,7725
11725,8748.33
11787.5,8810.83
12167.1,8812.04
12216.1,8807.21
12251.3,8796.53
13399.4,8796.53
13417.5,8937.68
13462.9,9072.57
13509.7,9160.23
13621.9,9207.43
14054.3,8775
13621.9,8342.57
13509.7,8389.77
13446.4,8517.21
13409.1,8654.55
13399.4,8796.53
12251.3,8796.53
12263.3,8792.91
12306.7,8769.7
12344.8,8738.46
12376,8700.39
12399.2,8656.96
12413.5,8609.84
12418.3,8560.83
12417.9,8271.86
13692.6,8271.86
14125,8704.29
14557.4,8271.86
14510.2,8159.71
14382.8,8096.38
14245.4,8059.13
14103.5,8049.38
13962.3,8067.53
13827.4,8112.86
13739.8,8159.71
13692.6,8271.86
12417.9,8271.86
12417.1,7787.5
12354.6,7725
11725,7725
11625,7725
10995.4,7725
10932.9,7787.5
10931.7,8560.83
10115.5,8560.83
10099,8544.36
10149.4,8483
10218.3,8354.07
10260.7,8214.18
10271.5,8105.16
10271.5,7244.84
10260.7,7135.82
10218.3,6995.93
10149.4,6867
10085.5,6789.17
10931.7,6789.17
10932.9,7562.5
10995.4,7625
11625,7625
11625,6601.67
11725,6601.67
11725,7625
12354.6,7625
12417.1,7562.5
12418.3,6789.17
12413.5,6740.16
12399.2,6693.04
12376,6649.61
12344.8,6611.54
12306.7,6580.3
12263.3,6557.09
12216.1,6542.79
12167.1,6537.96
11787.5,6539.17
11725,6601.67
11625,6601.67
11562.5,6539.17
11182.9,6537.96
11133.9,6542.79
11086.7,6557.09
11043.3,6580.3
11005.2,6611.54
10974,6649.61
10950.8,6693.04
10936.5,6740.16
10931.7,6789.17
10085.5,6789.17
10056.6,6754
9943.63,6661.26
9814.7,6592.35
9674.81,6549.91
9529.33,6535.58
9383.85,6549.91
9243.96,6592.35
9115.03,6661.26
9002.03,6754
8909.29,6867
8840.38,6995.93
8797.94,7135.82
8787.21,7244.84
8787.2,8105.16
8125.79,8105.16
8125.79,7244.84
8115.05,7135.82
8072.61,6995.93
8003.7,6867
7910.96,6754
7797.96,6661.26
7669.03,6592.35
7529.14,6549.91
7383.66,6535.58
7238.18,6549.91
7098.29,6592.35
6969.36,6661.26
6856.36,6754
6763.62,6867
6694.71,6995.93
6652.27,7135.82
6641.54,7244.84
6641.54,7993.98
6159.72,8475.79
5283.03,8475.79
5265.22,8432.8
5186.16,8314.47
5085.53,8213.84
4967.2,8134.78
4835.73,8080.32
4696.15,8052.56
4553.85,8052.56
4414.27,8080.32
4282.8,8134.78
4164.47,8213.84
4063.84,8314.47
3984.78,8432.8
3930.32,8564.27
3902.56,8703.85
3902.56,8846.15
3910.82,8887.67
2774.21,7751.06
2774.21,7133.03
2817.2,7115.22
2935.53,7036.16
3036.16,6935.53
3115.22,6817.2
3169.68,6685.73
3197.44,6546.15
3197.44,6403.85
3169.68,6264.27
3115.22,6132.8
3036.16,6014.47
2935.53,5913.84
2817.2,5834.78
2685.73,5780.32
2546.15,5752.56
2403.85,5752.56
2264.27,5780.32
2173.82,5817.79
2173.82,5412.42
7577.01,5412.42
7593.01,5465.19
7640.34,5565.32
7706.29,5654.3
7788.33,5728.69
7883.31,5785.66
7987.58,5823
8075,5775.25
8075,5325
8175,5325
8175,5775.25
8262.42,5823
8366.69,5785.66
8461.67,5728.69
8543.71,5654.3
8609.66,5565.32
8656.99,5465.19
8672.99,5412.42
8624.97,5325
8175,5325
8075,5325
7625.03,5325
7577.01,5412.42
2173.82,5412.42
2173.82,4760.75
3935.75,2998.82
3984.78,3117.2
4063.84,3235.53
4164.47,3336.16
4282.8,3415.22
4414.27,3469.68
4553.85,3497.44
4696.15,3497.44
4835.73,3469.68
4967.2,3415.22
5085.53,3336.16
5186.16,3235.53
5265.22,3117.2
5283.03,3074.21
5776.06,3074.21
7178.03,4476.18
7187.4,4487.6
7232.96,4524.99
7284.94,4552.77
7341.34,4569.88
7385.3,4574.21
7385.31,4574.21
7400,4575.66
7414.69,4574.21
7645.46,4574.21
7686.17,4635.14
7764.86,4713.83
7857.39,4775.66
7861.56,4777.39
7788.33,4821.31
7706.29,4895.7
7640.34,4984.68
7593.01,5084.81
7577.01,5137.58
7625.03,5225
8075,5225
8075,5217.13
8175,5217.13
8175,5225
8624.97,5225
8672.99,5137.58
8656.99,5084.81
8609.66,4984.68
8543.71,4895.7
8461.67,4821.31
8388.44,4777.39
8392.61,4775.66
8485.14,4713.83
8563.83,4635.14
8625.66,4542.61
8668.25,4439.79
8689.96,4330.64
8689.96,4219.36
8668.25,4110.21
8625.66,4007.39
8563.83,3914.86
8485.14,3836.17
8393.6,3775
8485.14,3713.83
8563.83,3635.14
8625.66,3542.61
8668.25,3439.79
8689.96,3330.64
8689.96,3219.36
8675.66,3147.49
9076.89,2746.26
10423.1,2746.26
Z" /> 
</g>
</g>
<g style="fill:#FFFFFF; fill-opacity:1.0; 
stroke:#FFFFFF; stroke-width:100; stroke-opacity:1; 
stroke-linecap:round; stroke-linejoin:round;">
</g>
<g style="fill:#FFFFFF; fill-opacity:1.0; 
stroke:#FFFFFF; stroke-width:0; stroke-opacity:1; 
stroke-linecap:round; stroke-linejoin:round;">
<circle cx="6600" cy="17150" r="255.906" /> 
</g>
<g style="fill:#FFFFFF; fill-opacity:1.0; 
stroke:#FFFFFF; stroke-width:98.4252; stroke-opacity:1; 
stroke-linecap:round; stroke-linejoin:round;">
</g>
<g style="fill:#FFFFFF; fill-opacity:1.0; 
stroke:#FFFFFF; stroke-width:0; stroke-opacity:1; 
stroke-linecap:round; stroke-linejoin:round;">
<circle cx="10325" cy="17200" r="344.488" /> 
</g>
<g style="fill:#FFFFFF; fill-opacity:1.0; 
stroke:#FFFFFF; stroke-width:98.4252; stroke-opacity:1; 
stroke-linecap:round; stroke-linejoin:round;">
</g>
<g style="fill:#FFFFFF; fill-opacity:1.0; 
stroke:#FFFFFF; stroke-width:0; stroke-opacity:1; 
stroke-linecap:round; stroke-linejoin:round;">
<circle cx="8797.44" cy="17200" r="344.488" /> 
</g>
<g style="fill:#FFFFFF; fill-opacity:1.0; 
stroke:#FFFFFF; stroke-width:98.4252; stroke-opacity:1; 
stroke-linecap:round; stroke-linejoin:round;">
</g>
<g style="fill:#FFFFFF; fill-opacity:1.0; 
stroke:#FFFFFF; stroke-width:0; stroke-opacity:1; 
stroke-linecap:round; stroke-linejoin:round;">
<circle cx="6550" cy="15275" r="255.906" /> 
</g>
<g style="fill:#FFFFFF; fill-opacity:1.0; 
stroke:#FFFFFF; stroke-width:98.4252; stroke-opacity:1; 
stroke-linecap:round; stroke-linejoin:round;">
</g>
<g style="fill:#FFFFFF; fill-opacity:1.0; 
stroke:#FFFFFF; stroke-width:0; stroke-opacity:1; 
stroke-linecap:round; stroke-linejoin:round;">
<circle cx="6625" cy="13400" r="255.906" /> 
</g>
<g style="fill:#FFFFFF; fill-opacity:1.0; 
stroke:#FFFFFF; stroke-width:98.4252; stroke-opacity:1; 
stroke-linecap:round; stroke-linejoin:round;">
</g>
<g style="fill:#FFFFFF; fill-opacity:1.0; 
stroke:#FFFFFF; stroke-width:0; stroke-opacity:1; 
stroke-linecap:round; stroke-linejoin:round;">
<circle cx="11675" cy="7675" r="295.276" /> 
</g>
<g style="fill:#FFFFFF; fill-opacity:1.0; 
stroke:#FFFFFF; stroke-width:98.4252; stroke-opacity:1; 
stroke-linecap:round; stroke-linejoin:round;">
</g>
<g style="fill:#FFFFFF; fill-opacity:1.0; 
stroke:#FFFFFF; stroke-width:0; stroke-opacity:1; 
stroke-linecap:round; stroke-linejoin:round;">
<circle cx="9529.33" cy="7675" r="295.276" /> 
</g>
<g style="fill:#FFFFFF; fill-opacity:1.0; 
stroke:#FFFFFF; stroke-width:98.4252; stroke-opacity:1; 
stroke-linecap:round; stroke-linejoin:round;">
</g>
<g style="fill:#FFFFFF; fill-opacity:1.0; 
stroke:#FFFFFF; stroke-width:0; stroke-opacity:1; 
stroke-linecap:round; stroke-linejoin:round;">
<circle cx="7383.66" cy="7675" r="295.276" /> 
</g>
<g style="fill:#FFFFFF; fill-opacity:1.0; 
stroke:#FFFFFF; stroke-width:98.4252; stroke-opacity:1; 
stroke-linecap:round; stroke-linejoin:round;">
</g>
<g style="fill:#FFFFFF; fill-opacity:1.0; 
stroke:#FFFFFF; stroke-width:0; stroke-opacity:1; 
stroke-linecap:round; stroke-linejoin:round;">
<circle cx="8875" cy="1025" r="157.48" /> 
</g>
<g style="fill:#FFFFFF; fill-opacity:1.0; 
stroke:#FFFFFF; stroke-width:98.4252; stroke-opacity:1; 
stroke-linecap:round; stroke-linejoin:round;">
</g>
<g style="fill:#FFFFFF; fill-opacity:1.0; 
stroke:#FFFFFF; stroke-width:0; stroke-opacity:1; 
stroke-linecap:round; stroke-linejoin:round;">
<circle cx="10253" cy="1025" r="157.48" /> 
</g>
<g style="fill:#FFFFFF; fill-opacity:1.0; 
stroke:#FFFFFF; stroke-width:98.4252; stroke-opacity:1; 
stroke-linecap:round; stroke-linejoin:round;">
</g>
<g style="fill:#FFFFFF; fill-opacity:1.0; 
stroke:#FFFFFF; stroke-width:0; stroke-opacity:1; 
stroke-linecap:round; stroke-linejoin:round;">
<circle cx="15789.3" cy="15255.6" r="157.48" /> 
</g>
<g style="fill:#FFFFFF; fill-opacity:1.0; 
stroke:#FFFFFF; stroke-width:98.4252; stroke-opacity:1; 
stroke-linecap:round; stroke-linejoin:round;">
</g>
<g style="fill:#FFFFFF; fill-opacity:1.0; 
stroke:#FFFFFF; stroke-width:0; stroke-opacity:1; 
stroke-linecap:round; stroke-linejoin:round;">
<circle cx="16675" cy="14200" r="157.48" /> 
</g>
<g style="fill:#FFFFFF; fill-opacity:1.0; 
stroke:#FFFFFF; stroke-width:98.4252; stroke-opacity:1; 
stroke-linecap:round; stroke-linejoin:round;">
</g>
<g style="fill:#FFFFFF; fill-opacity:1.0; 
stroke:#FFFFFF; stroke-width:0; stroke-opacity:1; 
stroke-linecap:round; stroke-linejoin:round;">
<circle cx="14125" cy="2775" r="236.22" /> 
</g>
<g style="fill:#FFFFFF; fill-opacity:1.0; 
stroke:#FFFFFF; stroke-width:98.4252; stroke-opacity:1; 
stroke-linecap:round; stroke-linejoin:round;">
</g>
<g style="fill:#FFFFFF; fill-opacity:1.0; 
stroke:#FFFFFF; stroke-width:0; stroke-opacity:1; 
stroke-linecap:round; stroke-linejoin:round;">
<circle cx="14125" cy="8775" r="236.22" /> 
</g>
<g style="fill:#FFFFFF; fill-opacity:1.0; 
stroke:#FFFFFF; stroke-width:98.4252; stroke-opacity:1; 
stroke-linecap:round; stroke-linejoin:round;">
</g>
<g style="fill:#FFFFFF; fill-opacity:1.0; 
stroke:#FFFFFF; stroke-width:0; stroke-opacity:1; 
stroke-linecap:round; stroke-linejoin:round;">
<circle cx="2875" cy="15075" r="157.48" /> 
</g>
<g style="fill:#FFFFFF; fill-opacity:1.0; 
stroke:#FFFFFF; stroke-width:98.4252; stroke-opacity:1; 
stroke-linecap:round; stroke-linejoin:round;">
</g>
<g style="fill:#FFFFFF; fill-opacity:1.0; 
stroke:#FFFFFF; stroke-width:0; stroke-opacity:1; 
stroke-linecap:round; stroke-linejoin:round;">
<circle cx="1989.27" cy="14019.4" r="157.48" /> 
</g>
<g style="fill:#FFFFFF; fill-opacity:1.0; 
stroke:#FFFFFF; stroke-width:98.4252; stroke-opacity:1; 
stroke-linecap:round; stroke-linejoin:round;">
</g>
<g style="fill:#FFFFFF; fill-opacity:1.0; 
stroke:#FFFFFF; stroke-width:0; stroke-opacity:1; 
stroke-linecap:round; stroke-linejoin:round;">
<circle cx="4625" cy="8775" r="236.22" /> 
</g>
<g style="fill:#FFFFFF; fill-opacity:1.0; 
stroke:#FFFFFF; stroke-width:98.4252; stroke-opacity:1; 
stroke-linecap:round; stroke-linejoin:round;">
</g>
<g style="fill:#FFFFFF; fill-opacity:1.0; 
stroke:#FFFFFF; stroke-width:0; stroke-opacity:1; 
stroke-linecap:round; stroke-linejoin:round;">
<circle cx="4625" cy="2775" r="236.22" /> 
</g>
<g style="fill:#FFFFFF; fill-opacity:1.0; 
stroke:#FFFFFF; stroke-width:98.4252; stroke-opacity:1; 
stroke-linecap:round; stroke-linejoin:round;">
</g>
<g style="fill:#FFFFFF; fill-opacity:1.0; 
stroke:#FFFFFF; stroke-width:0; stroke-opacity:1; 
stroke-linecap:round; stroke-linejoin:round;">
<circle cx="4625" cy="10025" r="236.22" /> 
</g>
<g style="fill:#FFFFFF; fill-opacity:1.0; 
stroke:#FFFFFF; stroke-width:98.4252; stroke-opacity:1; 
stroke-linecap:round; stroke-linejoin:round;">
</g>
<g style="fill:#FFFFFF; fill-opacity:1.0; 
stroke:#FFFFFF; stroke-width:0; stroke-opacity:1; 
stroke-linecap:round; stroke-linejoin:round;">
<circle cx="4625" cy="16025" r="236.22" /> 
</g>
<g style="fill:#FFFFFF; fill-opacity:1.0; 
stroke:#FFFFFF; stroke-width:98.4252; stroke-opacity:1; 
stroke-linecap:round; stroke-linejoin:round;">
</g>
<g style="fill:#FFFFFF; fill-opacity:1.0; 
stroke:#FFFFFF; stroke-width:0; stroke-opacity:1; 
stroke-linecap:round; stroke-linejoin:round;">
<circle cx="2475" cy="12475" r="236.22" /> 
</g>
<g style="fill:#FFFFFF; fill-opacity:1.0; 
stroke:#FFFFFF; stroke-width:98.4252; stroke-opacity:1; 
stroke-linecap:round; stroke-linejoin:round;">
</g>
<g style="fill:#FFFFFF; fill-opacity:1.0; 
stroke:#FFFFFF; stroke-width:0; stroke-opacity:1; 
stroke-linecap:round; stroke-linejoin:round;">
<circle cx="2475" cy="6475" r="236.22" /> 
</g>
<g style="fill:#FFFFFF; fill-opacity:1.0; 
stroke:#FFFFFF; stroke-width:98.4252; stroke-opacity:1; 
stroke-linecap:round; stroke-linejoin:round;">
</g>
<g style="fill:#FFFFFF; fill-opacity:1.0; 
stroke:#FFFFFF; stroke-width:0; stroke-opacity:1; 
stroke-linecap:round; stroke-linejoin:round;">
<circle cx="17125" cy="12525" r="236.22" /> 
</g>
<g style="fill:#FFFFFF; fill-opacity:1.0; 
stroke:#FFFFFF; stroke-width:98.4252; stroke-opacity:1; 
stroke-linecap:round; stroke-linejoin:round;">
</g>
<g style="fill:#FFFFFF; fill-opacity:1.0; 
stroke:#FFFFFF; stroke-width:0; stroke-opacity:1; 
stroke-linecap:round; stroke-linejoin:round;">
<circle cx="17125" cy="6525" r="236.22" /> 
</g>
<g style="fill:#FFFFFF; fill-opacity:1.0; 
stroke:#FFFFFF; stroke-width:98.4252; stroke-opacity:1; 
stroke-linecap:round; stroke-linejoin:round;">
</g>
<g style="fill:#FFFFFF; fill-opacity:1.0; 
stroke:#FFFFFF; stroke-width:0; stroke-opacity:1; 
stroke-linecap:round; stroke-linejoin:round;">
<circle cx="14125" cy="16025" r="236.22" /> 
</g>
<g style="fill:#FFFFFF; fill-opacity:1.0; 
stroke:#FFFFFF; stroke-width:98.4252; stroke-opacity:1; 
stroke-linecap:round; stroke-linejoin:round;">
</g>
<g style="fill:#FFFFFF; fill-opacity:1.0; 
stroke:#FFFFFF; stroke-width:0; stroke-opacity:1; 
stroke-linecap:round; stroke-linejoin:round;">
<circle cx="14125" cy="10025" r="236.22" /> 
</g>
<g style="fill:#FFFFFF; fill-opacity:1.0; 
stroke:#FFFFFF; stroke-width:98.4252; stroke-opacity:1; 
stroke-linecap:round; stroke-linejoin:round;">
</g>
<g style="fill:#FFFFFF; fill-opacity:1.0; 
stroke:#FFFFFF; stroke-width:0; stroke-opacity:1; 
stroke-linecap:round; stroke-linejoin:round;">
<circle cx="8125" cy="2275" r="157.48" /> 
</g>
<g style="fill:#FFFFFF; fill-opacity:1.0; 
stroke:#FFFFFF; stroke-width:98.4252; stroke-opacity:1; 
stroke-linecap:round; stroke-linejoin:round;">
</g>
<g style="fill:#FFFFFF; fill-opacity:1.0; 
stroke:#FFFFFF; stroke-width:0; stroke-opacity:1; 
stroke-linecap:round; stroke-linejoin:round;">
<circle cx="11125" cy="5275" r="157.48" /> 
</g>
<g style="fill:#FFFFFF; fill-opacity:1.0; 
stroke:#FFFFFF; stroke-width:98.4252; stroke-opacity:1; 
stroke-linecap:round; stroke-linejoin:round;">
</g>
<g style="fill:#FFFFFF; fill-opacity:1.0; 
stroke:#FFFFFF; stroke-width:0; stroke-opacity:1; 
stroke-linecap:round; stroke-linejoin:round;">
<circle cx="8125" cy="3275" r="157.48" /> 
</g>
<g style="fill:#FFFFFF; fill-opacity:1.0; 
stroke:#FFFFFF; stroke-width:98.4252; stroke-opacity:1; 
stroke-linecap:round; stroke-linejoin:round;">
</g>
<g style="fill:#FFFFFF; fill-opacity:1.0; 
stroke:#FFFFFF; stroke-width:0; stroke-opacity:1; 
stroke-linecap:round; stroke-linejoin:round;">
<circle cx="11125" cy="4275" r="157.48" /> 
</g>
<g style="fill:#FFFFFF; fill-opacity:1.0; 
stroke:#FFFFFF; stroke-width:98.4252; stroke-opacity:1; 
stroke-linecap:round; stroke-linejoin:round;">
</g>
<g style="fill:#FFFFFF; fill-opacity:1.0; 
stroke:#FFFFFF; stroke-width:0; stroke-opacity:1; 
stroke-linecap:round; stroke-linejoin:round;">
<circle cx="8125" cy="4275" r="157.48" /> 
</g>
<g style="fill:#FFFFFF; fill-opacity:1.0; 
stroke:#FFFFFF; stroke-width:98.4252; stroke-opacity:1; 
stroke-linecap:round; stroke-linejoin:round;">
</g>
<g style="fill:#FFFFFF; fill-opacity:1.0; 
stroke:#FFFFFF; stroke-width:0; stroke-opacity:1; 
stroke-linecap:round; stroke-linejoin:round;">
<circle cx="11125" cy="3275" r="157.48" /> 
</g>
<g style="fill:#FFFFFF; fill-opacity:1.0; 
stroke:#FFFFFF; stroke-width:98.4252; stroke-opacity:1; 
stroke-linecap:round; stroke-linejoin:round;">
</g>
<g style="fill:#FFFFFF; fill-opacity:1.0; 
stroke:#FFFFFF; stroke-width:0; stroke-opacity:1; 
stroke-linecap:round; stroke-linejoin:round;">
<circle cx="8125" cy="5275" r="157.48" /> 
</g>
<g style="fill:#FFFFFF; fill-opacity:1.0; 
stroke:#FFFFFF; stroke-width:98.4252; stroke-opacity:1; 
stroke-linecap:round; stroke-linejoin:round;">
</g>
<g style="fill:#FFFFFF; fill-opacity:1.0; 
stroke:#FFFFFF; stroke-width:0; stroke-opacity:1; 
stroke-linecap:round; stroke-linejoin:round;">
<circle cx="11125" cy="2275" r="157.48" /> 
</g>
<g style="fill:#FFFFFF; fill-opacity:1.0; 
stroke:#FFFFFF; stroke-width:98.4252; stroke-opacity:1; 
stroke-linecap:round; stroke-linejoin:round;">
</g>
<g style="fill:#000000; fill-opacity:1.0; 
stroke:#000000; stroke-width:98.4252; stroke-opacity:1; 
stroke-linecap:round; stroke-linejoin:round;">
</g>
<g style="fill:#C2C200; fill-opacity:1.0; 
stroke:#C2C200; stroke-width:98.4252; stroke-opacity:1; 
stroke-linecap:round; stroke-linejoin:round;">
</g>
<g style="fill:#C2C200; fill-opacity:0.0; 
stroke:#C2C200; stroke-width:59.0551; stroke-opacity:1; 
stroke-linecap:round; stroke-linejoin:round;">
<circle cx="9375" cy="9380.85" r="9394.15" /> 
<g >
</g>
<g >
</g>
<g >
</g>
<g >
</g>
<g >
</g>
<g >
</g>
<g >
</g>
<g >
</g>
<g >
</g>
<g >
</g>
<g >
</g>
<g >
</g>
<g >
</g>
<g >
</g>
<g >
</g>
<g >
</g>
<g >
</g>
</g> 
</svg>
