<?xml version="1.0" standalone="no"?>
 <!DOCTYPE svg PUBLIC "-//W3C//DTD SVG 1.1//EN" 
 "http://www.w3.org/Graphics/SVG/1.1/DTD/svg11.dtd"> 
<svg
  xmlns:svg="http://www.w3.org/2000/svg"
  xmlns="http://www.w3.org/2000/svg"
  xmlns:xlink="http://www.w3.org/1999/xlink"
  version="1.1"
  width="4.785360cm" height="4.864100cm" viewBox="0 0 18840 19150">
<title>SVG Picture created as Breath_PCB-brd.svg date 2020/08/02 15:13:50 </title>
  <desc>Picture generated by PCBNEW </desc>
<g style="fill:#000000; fill-opacity:1;stroke:#000000; stroke-opacity:1;
stroke-linecap:round; stroke-linejoin:round;"
 transform="translate(0 0) scale(1 1)">
</g>
<g style="fill:#000000; fill-opacity:0.0; 
stroke:#000000; stroke-width:-0.000393701; stroke-opacity:1; 
stroke-linecap:round; stroke-linejoin:round;">
<g >
</g>
<g style="fill:#000000; fill-opacity:0.0; 
stroke:#000000; stroke-width:0; stroke-opacity:1; 
stroke-linecap:round; stroke-linejoin:round;">
</g>
<g style="fill:#000000; fill-opacity:1.0; 
stroke:#000000; stroke-width:0; stroke-opacity:1; 
stroke-linecap:round; stroke-linejoin:round;">
<path style="fill:#000000; fill-opacity:1.0; 
stroke:#000000; stroke-width:0; stroke-opacity:1; 
stroke-linecap:round; stroke-linejoin:round;fill-rule:evenodd;"
d="M 6317.38,17224.1
5688.45,16995.2
5917.36,16366.3
6546.29,16595.2
Z" /> 
</g>
<g style="fill:#000000; fill-opacity:1.0; 
stroke:#000000; stroke-width:669.291; stroke-opacity:1; 
stroke-linecap:round; stroke-linejoin:round;">
</g>
<g style="fill:#000000; fill-opacity:0.0; 
stroke:#000000; stroke-width:669.291; stroke-opacity:1; 
stroke-linecap:round; stroke-linejoin:round;">
<path d="M7057 17137
L7057 17137
" />
<path d="M7996 17479
L7996 17479
" />
</g>
<g >
</g>
<g style="fill:#000000; fill-opacity:0.0; 
stroke:#000000; stroke-width:669.291; stroke-opacity:1; 
stroke-linecap:round; stroke-linejoin:round;">
</g>
<g style="fill:#000000; fill-opacity:1.0; 
stroke:#000000; stroke-width:0; stroke-opacity:1; 
stroke-linecap:round; stroke-linejoin:round;">
<circle cx="8948.68" cy="1217.82" r="314.961" /> 
</g>
<g style="fill:#000000; fill-opacity:1.0; 
stroke:#000000; stroke-width:98.4252; stroke-opacity:1; 
stroke-linecap:round; stroke-linejoin:round;">
</g>
<g style="fill:#000000; fill-opacity:1.0; 
stroke:#000000; stroke-width:0; stroke-opacity:1; 
stroke-linecap:round; stroke-linejoin:round;">
<circle cx="10326.6" cy="1217.82" r="314.961" /> 
</g>
<g style="fill:#000000; fill-opacity:1.0; 
stroke:#000000; stroke-width:98.4252; stroke-opacity:1; 
stroke-linecap:round; stroke-linejoin:round;">
</g>
<g >
</g>
<g style="fill:#000000; fill-opacity:1.0; 
stroke:#000000; stroke-width:98.4252; stroke-opacity:1; 
stroke-linecap:round; stroke-linejoin:round;">
</g>
<g style="fill:#000000; fill-opacity:1.0; 
stroke:#000000; stroke-width:944.882; stroke-opacity:1; 
stroke-linecap:round; stroke-linejoin:round;">
</g>
<g style="fill:#000000; fill-opacity:0.0; 
stroke:#000000; stroke-width:944.882; stroke-opacity:1; 
stroke-linecap:round; stroke-linejoin:round;">
<path d="M2306 12501
L2306 12501
" />
</g>
<g style="fill:#000000; fill-opacity:1.0; 
stroke:#000000; stroke-width:0; stroke-opacity:1; 
stroke-linecap:round; stroke-linejoin:round;">
<circle cx="3348.68" cy="6592.82" r="472.441" /> 
</g>
<g style="fill:#000000; fill-opacity:1.0; 
stroke:#000000; stroke-width:98.4252; stroke-opacity:1; 
stroke-linecap:round; stroke-linejoin:round;">
</g>
<g >
</g>
<g style="fill:#000000; fill-opacity:1.0; 
stroke:#000000; stroke-width:98.4252; stroke-opacity:1; 
stroke-linecap:round; stroke-linejoin:round;">
</g>
<g style="fill:#000000; fill-opacity:1.0; 
stroke:#000000; stroke-width:0; stroke-opacity:1; 
stroke-linecap:round; stroke-linejoin:round;">
<path style="fill:#000000; fill-opacity:1.0; 
stroke:#000000; stroke-width:0; stroke-opacity:1; 
stroke-linecap:round; stroke-linejoin:round;fill-rule:evenodd;"
d="M 7712.65,12717.8
7712.65,13780.8
6334.7,13780.8
6334.7,12717.8
Z" /> 
<path style="fill:#000000; fill-opacity:1.0; 
stroke:#000000; stroke-width:0; stroke-opacity:1; 
stroke-linecap:round; stroke-linejoin:round;fill-rule:evenodd;"
d="M 12712.7,11654.8
12712.7,12717.8
11334.7,12717.8
11334.7,11654.8
Z" /> 
<circle cx="9523.68" cy="12717.8" r="1122.05" /> 
</g>
<g style="fill:#000000; fill-opacity:1.0; 
stroke:#000000; stroke-width:98.4252; stroke-opacity:1; 
stroke-linecap:round; stroke-linejoin:round;">
</g>
<g >
</g>
<g style="fill:#000000; fill-opacity:1.0; 
stroke:#000000; stroke-width:98.4252; stroke-opacity:1; 
stroke-linecap:round; stroke-linejoin:round;">
</g>
<g style="fill:#000000; fill-opacity:1.0; 
stroke:#000000; stroke-width:0; stroke-opacity:1; 
stroke-linecap:round; stroke-linejoin:round;">
<path style="fill:#000000; fill-opacity:1.0; 
stroke:#000000; stroke-width:0; stroke-opacity:1; 
stroke-linecap:round; stroke-linejoin:round;fill-rule:evenodd;"
d="M 11814.2,15927.3
11814.2,17108.4
10633.1,17108.4
10633.1,15927.3
Z" /> 
<circle cx="9696.12" cy="16517.8" r="590.551" /> 
</g>
<g style="fill:#000000; fill-opacity:1.0; 
stroke:#000000; stroke-width:98.4252; stroke-opacity:1; 
stroke-linecap:round; stroke-linejoin:round;">
</g>
<g >
</g>
<g style="fill:#000000; fill-opacity:1.0; 
stroke:#000000; stroke-width:98.4252; stroke-opacity:1; 
stroke-linecap:round; stroke-linejoin:round;">
</g>
<g style="fill:#000000; fill-opacity:1.0; 
stroke:#000000; stroke-width:0; stroke-opacity:1; 
stroke-linecap:round; stroke-linejoin:round;">
<circle cx="6673.68" cy="15317.8" r="511.811" /> 
</g>
<g style="fill:#000000; fill-opacity:1.0; 
stroke:#000000; stroke-width:98.4252; stroke-opacity:1; 
stroke-linecap:round; stroke-linejoin:round;">
</g>
<g >
</g>
<g style="fill:#000000; fill-opacity:1.0; 
stroke:#000000; stroke-width:98.4252; stroke-opacity:1; 
stroke-linecap:round; stroke-linejoin:round;">
</g>
<g style="fill:#000000; fill-opacity:1.0; 
stroke:#000000; stroke-width:0; stroke-opacity:1; 
stroke-linecap:round; stroke-linejoin:round;">
<path style="fill:#000000; fill-opacity:1.0; 
stroke:#000000; stroke-width:0; stroke-opacity:1; 
stroke-linecap:round; stroke-linejoin:round;fill-rule:evenodd;"
d="M 12261.5,8732
12261.5,10503.6
11277.2,10503.6
11277.2,8732
Z" /> 
</g>
<g style="fill:#000000; fill-opacity:1.0; 
stroke:#000000; stroke-width:984.252; stroke-opacity:1; 
stroke-linecap:round; stroke-linejoin:round;">
</g>
<g style="fill:#000000; fill-opacity:0.0; 
stroke:#000000; stroke-width:984.252; stroke-opacity:1; 
stroke-linecap:round; stroke-linejoin:round;">
<path d="M9623 10011
L9623 9224
" />
<path d="M7478 10011
L7478 9224
" />
</g>
<g >
</g>
<g style="fill:#000000; fill-opacity:0.0; 
stroke:#000000; stroke-width:984.252; stroke-opacity:1; 
stroke-linecap:round; stroke-linejoin:round;">
</g>
<g style="fill:#000000; fill-opacity:1.0; 
stroke:#000000; stroke-width:0; stroke-opacity:1; 
stroke-linecap:round; stroke-linejoin:round;">
<circle cx="15834.7" cy="15336.2" r="314.961" /> 
</g>
<g style="fill:#000000; fill-opacity:1.0; 
stroke:#000000; stroke-width:98.4252; stroke-opacity:1; 
stroke-linecap:round; stroke-linejoin:round;">
</g>
<g style="fill:#000000; fill-opacity:1.0; 
stroke:#000000; stroke-width:0; stroke-opacity:1; 
stroke-linecap:round; stroke-linejoin:round;">
<circle cx="16523.7" cy="14142.8" r="314.961" /> 
</g>
<g style="fill:#000000; fill-opacity:1.0; 
stroke:#000000; stroke-width:98.4252; stroke-opacity:1; 
stroke-linecap:round; stroke-linejoin:round;">
</g>
<g >
</g>
<g style="fill:#000000; fill-opacity:1.0; 
stroke:#000000; stroke-width:98.4252; stroke-opacity:1; 
stroke-linecap:round; stroke-linejoin:round;">
</g>
<g style="fill:#000000; fill-opacity:1.0; 
stroke:#000000; stroke-width:944.882; stroke-opacity:1; 
stroke-linecap:round; stroke-linejoin:round;">
</g>
<g style="fill:#000000; fill-opacity:0.0; 
stroke:#000000; stroke-width:944.882; stroke-opacity:1; 
stroke-linecap:round; stroke-linejoin:round;">
<path d="M14173 2617
L14173 2617
" />
</g>
<g style="fill:#000000; fill-opacity:1.0; 
stroke:#000000; stroke-width:0; stroke-opacity:1; 
stroke-linecap:round; stroke-linejoin:round;">
<circle cx="14173.7" cy="8617.82" r="472.441" /> 
</g>
<g style="fill:#000000; fill-opacity:1.0; 
stroke:#000000; stroke-width:98.4252; stroke-opacity:1; 
stroke-linecap:round; stroke-linejoin:round;">
</g>
<g >
</g>
<g style="fill:#000000; fill-opacity:1.0; 
stroke:#000000; stroke-width:98.4252; stroke-opacity:1; 
stroke-linecap:round; stroke-linejoin:round;">
</g>
<g style="fill:#000000; fill-opacity:1.0; 
stroke:#000000; stroke-width:0; stroke-opacity:1; 
stroke-linecap:round; stroke-linejoin:round;">
<circle cx="3164.04" cy="15246.6" r="314.961" /> 
</g>
<g style="fill:#000000; fill-opacity:1.0; 
stroke:#000000; stroke-width:98.4252; stroke-opacity:1; 
stroke-linecap:round; stroke-linejoin:round;">
</g>
<g style="fill:#000000; fill-opacity:1.0; 
stroke:#000000; stroke-width:0; stroke-opacity:1; 
stroke-linecap:round; stroke-linejoin:round;">
<circle cx="2373.68" cy="14117.8" r="314.961" /> 
</g>
<g style="fill:#000000; fill-opacity:1.0; 
stroke:#000000; stroke-width:98.4252; stroke-opacity:1; 
stroke-linecap:round; stroke-linejoin:round;">
</g>
<g >
</g>
<g style="fill:#000000; fill-opacity:1.0; 
stroke:#000000; stroke-width:98.4252; stroke-opacity:1; 
stroke-linecap:round; stroke-linejoin:round;">
</g>
<g style="fill:#000000; fill-opacity:1.0; 
stroke:#000000; stroke-width:0; stroke-opacity:1; 
stroke-linecap:round; stroke-linejoin:round;">
<circle cx="5298.68" cy="8892.82" r="472.441" /> 
</g>
<g style="fill:#000000; fill-opacity:1.0; 
stroke:#000000; stroke-width:98.4252; stroke-opacity:1; 
stroke-linecap:round; stroke-linejoin:round;">
</g>
<g style="fill:#000000; fill-opacity:1.0; 
stroke:#000000; stroke-width:944.882; stroke-opacity:1; 
stroke-linecap:round; stroke-linejoin:round;">
</g>
<g style="fill:#000000; fill-opacity:0.0; 
stroke:#000000; stroke-width:944.882; stroke-opacity:1; 
stroke-linecap:round; stroke-linejoin:round;">
<path d="M5298 2892
L5298 2892
" />
</g>
<g >
</g>
<g style="fill:#000000; fill-opacity:0.0; 
stroke:#000000; stroke-width:944.882; stroke-opacity:1; 
stroke-linecap:round; stroke-linejoin:round;">
</g>
<g style="fill:#000000; fill-opacity:1.0; 
stroke:#000000; stroke-width:0; stroke-opacity:1; 
stroke-linecap:round; stroke-linejoin:round;">
<circle cx="4673.68" cy="10067.8" r="472.441" /> 
</g>
<g style="fill:#000000; fill-opacity:1.0; 
stroke:#000000; stroke-width:98.4252; stroke-opacity:1; 
stroke-linecap:round; stroke-linejoin:round;">
</g>
<g style="fill:#000000; fill-opacity:1.0; 
stroke:#000000; stroke-width:944.882; stroke-opacity:1; 
stroke-linecap:round; stroke-linejoin:round;">
</g>
<g style="fill:#000000; fill-opacity:0.0; 
stroke:#000000; stroke-width:944.882; stroke-opacity:1; 
stroke-linecap:round; stroke-linejoin:round;">
<path d="M4673 16067
L4673 16067
" />
</g>
<g >
</g>
<g style="fill:#000000; fill-opacity:0.0; 
stroke:#000000; stroke-width:944.882; stroke-opacity:1; 
stroke-linecap:round; stroke-linejoin:round;">
</g>
<g style="fill:#000000; fill-opacity:1.0; 
stroke:#000000; stroke-width:0; stroke-opacity:1; 
stroke-linecap:round; stroke-linejoin:round;">
<circle cx="15723.7" cy="12517.8" r="472.441" /> 
</g>
<g style="fill:#000000; fill-opacity:1.0; 
stroke:#000000; stroke-width:98.4252; stroke-opacity:1; 
stroke-linecap:round; stroke-linejoin:round;">
</g>
<g style="fill:#000000; fill-opacity:1.0; 
stroke:#000000; stroke-width:944.882; stroke-opacity:1; 
stroke-linecap:round; stroke-linejoin:round;">
</g>
<g style="fill:#000000; fill-opacity:0.0; 
stroke:#000000; stroke-width:944.882; stroke-opacity:1; 
stroke-linecap:round; stroke-linejoin:round;">
<path d="M15723 6517
L15723 6517
" />
</g>
<g >
</g>
<g style="fill:#000000; fill-opacity:0.0; 
stroke:#000000; stroke-width:944.882; stroke-opacity:1; 
stroke-linecap:round; stroke-linejoin:round;">
<path d="M13723 16067
L13723 16067
" />
</g>
<g style="fill:#000000; fill-opacity:1.0; 
stroke:#000000; stroke-width:0; stroke-opacity:1; 
stroke-linecap:round; stroke-linejoin:round;">
<circle cx="13723.7" cy="10067.8" r="472.441" /> 
</g>
<g style="fill:#000000; fill-opacity:1.0; 
stroke:#000000; stroke-width:98.4252; stroke-opacity:1; 
stroke-linecap:round; stroke-linejoin:round;">
</g>
<g >
</g>
<g style="fill:#000000; fill-opacity:1.0; 
stroke:#000000; stroke-width:98.4252; stroke-opacity:1; 
stroke-linecap:round; stroke-linejoin:round;">
</g>
<g style="fill:#000000; fill-opacity:1.0; 
stroke:#000000; stroke-width:0; stroke-opacity:1; 
stroke-linecap:round; stroke-linejoin:round;">
<path style="fill:#000000; fill-opacity:1.0; 
stroke:#000000; stroke-width:0; stroke-opacity:1; 
stroke-linecap:round; stroke-linejoin:round;fill-rule:evenodd;"
d="M 11338.6,3302.86
11338.6,3932.78
10708.7,3932.78
10708.7,3302.86
Z" /> 
</g>
<g style="fill:#000000; fill-opacity:1.0; 
stroke:#000000; stroke-width:629.921; stroke-opacity:1; 
stroke-linecap:round; stroke-linejoin:round;">
</g>
<g style="fill:#000000; fill-opacity:0.0; 
stroke:#000000; stroke-width:629.921; stroke-opacity:1; 
stroke-linecap:round; stroke-linejoin:round;">
<path d="M8023 6617
L8023 6617
" />
<path d="M11023 4617
L11023 4617
" />
<path d="M8023 5617
L8023 5617
" />
<path d="M11023 5617
L11023 5617
" />
<path d="M8023 4617
L8023 4617
" />
<path d="M11023 6617
L11023 6617
" />
<path d="M8023 3617
L8023 3617
" />
</g>
<g >
</g>
<g >
</g>
<g style="fill:#000000; fill-opacity:0.0; 
stroke:#000000; stroke-width:629.921; stroke-opacity:1; 
stroke-linecap:round; stroke-linejoin:round;">
</g>
<g style="fill:#000000; fill-opacity:0.0; 
stroke:#000000; stroke-width:236.22; stroke-opacity:1; 
stroke-linecap:round; stroke-linejoin:round;">
<path d="M3348 8742
L4673 10067
" />
<path d="M3348 6592
L3348 8742
" />
<path d="M4673 10899
L7023 13249
" />
<path d="M4673 10067
L4673 10899
" />
<path d="M9623 9786
L12023 12186
" />
<path d="M9623 9617
L9623 9786
" />
<path d="M2346 12694
L2346 12517
" />
<path d="M2566 15246
L3164 15246
" />
<path d="M1595 14274
L2566 15246
" />
<path d="M2306 12501
L1595 13213
" />
<path d="M1595 13213
L1595 14274
" />
<path d="M15623 12617
L15723 12517
" />
<path d="M11948 15392
L14723 12617
" />
<path d="M6673 15317
L6748 15392
" />
<path d="M14723 12617
L15623 12617
" />
<path d="M6748 15392
L11948 15392
" />
<path d="M6023 9617
L5298 8892
" />
<path d="M7478 9617
L6023 9617
" />
<path d="M6298 1792
L7286 805
" />
<path d="M7286 805
L7223 867
" />
<path d="M17180 14255
L17117 14355
" />
<path d="M16781 4004
L16851 4100
" />
<path d="M16986 4294
L17052 4392
" />
<path d="M17242 14154
L17180 14255
" />
<path d="M17117 14355
L17106 14371
" />
<path d="M17362 4897
L17420 5000
" />
<path d="M17362 13949
L17302 14052
" />
<path d="M17302 14052
L17242 14154
" />
<path d="M17180 4592
L17242 4693
" />
<path d="M16565 3722
L16638 3815
" />
<path d="M17302 4794
L17362 4897
" />
<path d="M17420 13846
L17362 13949
" />
<path d="M16851 4100
L16919 4197
" />
<path d="M16141 15336
L15834 15336
" />
<path d="M17242 4693
L17302 4794
" />
<path d="M17117 4492
L17180 4592
" />
<path d="M17476 13742
L17420 13846
" />
<path d="M17106 14371
L16141 15336
" />
<path d="M18314 7311
L18341 7427
" />
<path d="M17739 13212
L17689 13319
" />
<path d="M18314 11535
L18286 11650
" />
<path d="M18159 12106
L18123 12219
" />
<path d="M18086 12331
L18048 12443
" />
<path d="M15937 3014
L16019 3099
" />
<path d="M17585 5314
L17638 5420
" />
<path d="M15737 2817
L15769 2847
" />
<path d="M17834 5851
L17880 5960
" />
<path d="M18193 11993
L18159 12106
" />
<path d="M18389 7659
L18403 7733
" />
<path d="M18086 6515
L18123 6627
" />
<path d="M18193 6854
L18225 6968
" />
<path d="M18341 7427
L18366 7543
" />
<path d="M17967 12666
L17924 12776
" />
<path d="M18389 11188
L18366 11304
" />
<path d="M17476 5104
L17532 5209
" />
<path d="M17532 5209
L17585 5314
" />
<path d="M18159 6740
L18193 6854
" />
<path d="M17880 5960
L17924 6070
" />
<path d="M18008 6292
L18048 6403
" />
<path d="M18403 7733
L18403 11114
" />
<path d="M18123 12219
L18086 12331
" />
<path d="M18286 11650
L18256 11764
" />
<path d="M17834 12995
L17787 13104
" />
<path d="M17787 13104
L17739 13212
" />
<path d="M18403 11114
L18389 11188
" />
<path d="M18366 11304
L18341 11420
" />
<path d="M16491 3630
L16565 3722
" />
<path d="M17924 12776
L17880 12886
" />
<path d="M16338 3449
L16415 3539
" />
<path d="M16710 3909
L16781 4004
" />
<path d="M16181 3272
L16260 3360
" />
<path d="M17532 13638
L17476 13742
" />
<path d="M17689 5527
L17739 5634
" />
<path d="M17638 5420
L17689 5527
" />
<path d="M16101 3185
L16181 3272
" />
<path d="M16019 3099
L16101 3185
" />
<path d="M16415 3539
L16491 3630
" />
<path d="M16919 4197
L16986 4294
" />
<path d="M17585 13532
L17532 13638
" />
<path d="M18256 7082
L18286 7196
" />
<path d="M18048 12443
L18008 12555
" />
<path d="M18256 11764
L18225 11879
" />
<path d="M15853 2930
L15937 3014
" />
<path d="M18341 11420
L18314 11535
" />
<path d="M17052 4392
L17117 4492
" />
<path d="M15769 2847
L15853 2930
" />
<path d="M17739 5634
L17787 5742
" />
<path d="M18286 7196
L18314 7311
" />
<path d="M18225 6968
L18256 7082
" />
<path d="M18123 6627
L18159 6740
" />
<path d="M17787 5742
L17834 5851
" />
<path d="M17880 12886
L17834 12995
" />
<path d="M16638 3815
L16710 3909
" />
<path d="M17420 5000
L17476 5104
" />
<path d="M18366 7543
L18389 7659
" />
<path d="M18048 6403
L18086 6515
" />
<path d="M18008 12555
L17967 12666
" />
<path d="M16260 3360
L16338 3449
" />
<path d="M17924 6070
L17967 6181
" />
<path d="M18225 11879
L18193 11993
" />
<path d="M17967 6181
L18008 6292
" />
<path d="M17638 13426
L17585 13532
" />
<path d="M17689 13319
L17638 13426
" />
<path d="M8023 3817
L8023 3717
" />
<path d="M8023 2042
L8948 1117
" />
<path d="M8023 3617
L8023 2042
" />
<path d="M16055 14142
L16523 14142
" />
<path d="M15752 14446
L16055 14142
" />
<path d="M15295 14446
L15752 14446
" />
<path d="M14961 14780
L15295 14446
" />
<path d="M14961 16531
L14961 14780
" />
<path d="M14883 16591
L14961 16531
" />
<path d="M14790 16661
L14883 16591
" />
<path d="M14696 16730
L14790 16661
" />
<path d="M14601 16797
L14696 16730
" />
<path d="M14505 16864
L14601 16797
" />
<path d="M8753 18408
L8869 18416
" />
<path d="M8636 18399
L8753 18408
" />
<path d="M8404 18376
L8520 18388
" />
<path d="M13604 17405
L13708 17350
" />
<path d="M7942 18311
L8057 18329
" />
<path d="M7483 18222
L7597 18247
" />
<path d="M4070 16671
L4104 16695
" />
<path d="M7256 18169
L7369 18196
" />
<path d="M5190 17377
L5294 17431
" />
<path d="M7143 18140
L7256 18169
" />
<path d="M13291 17561
L13396 17510
" />
<path d="M6918 18078
L7030 18110
" />
<path d="M8172 18346
L8288 18362
" />
<path d="M6694 18010
L6806 18045
" />
<path d="M7712 18269
L7827 18291
" />
<path d="M6583 17974
L6694 18010
" />
<path d="M6473 17937
L6583 17974
" />
<path d="M6363 17898
L6473 17937
" />
<path d="M4390 16897
L4487 16961
" />
<path d="M5294 17431
L5398 17484
" />
<path d="M10962 18301
L11077 18280
" />
<path d="M6253 17857
L6363 17898
" />
<path d="M12756 17794
L12865 17750
" />
<path d="M5928 17728
L6036 17772
" />
<path d="M4585 17025
L4684 17087
" />
<path d="M4487 16961
L4585 17025
" />
<path d="M13185 17610
L13291 17561
" />
<path d="M4684 17087
L4784 17147
" />
<path d="M11192 18258
L11306 18235
" />
<path d="M7597 18247
L7712 18269
" />
<path d="M7030 18110
L7143 18140
" />
<path d="M4104 16695
L4198 16764
" />
<path d="M5088 17322
L5190 17377
" />
<path d="M10616 18354
L10732 18338
" />
<path d="M4673 16067
L4070 16671
" />
<path d="M14012 17177
L14112 17117
" />
<path d="M8520 18388
L8636 18399
" />
<path d="M4198 16764
L4294 16831
" />
<path d="M13079 17658
L13185 17610
" />
<path d="M5821 17682
L5928 17728
" />
<path d="M12538 17878
L12648 17837
" />
<path d="M7827 18291
L7942 18311
" />
<path d="M4294 16831
L4390 16897
" />
<path d="M9686 18430
L9802 18425
" />
<path d="M4884 17207
L4986 17265
" />
<path d="M4784 17147
L4884 17207
" />
<path d="M14112 17117
L14212 17056
" />
<path d="M4986 17265
L5088 17322
" />
<path d="M9336 18433
L9452 18433
" />
<path d="M8057 18329
L8172 18346
" />
<path d="M5398 17484
L5503 17536
" />
<path d="M11306 18235
L11420 18209
" />
<path d="M6806 18045
L6918 18078
" />
<path d="M5503 17536
L5608 17586
" />
<path d="M11534 18183
L11647 18155
" />
<path d="M8869 18416
L8986 18423
" />
<path d="M5608 17586
L5714 17635
" />
<path d="M11647 18155
L11760 18125
" />
<path d="M5714 17635
L5821 17682
" />
<path d="M9102 18428
L9219 18431
" />
<path d="M7369 18196
L7483 18222
" />
<path d="M6144 17816
L6253 17857
" />
<path d="M8288 18362
L8404 18376
" />
<path d="M6036 17772
L6144 17816
" />
<path d="M8986 18423
L9102 18428
" />
<path d="M9219 18431
L9336 18433
" />
<path d="M9452 18433
L9569 18432
" />
<path d="M9569 18432
L9686 18430
" />
<path d="M9802 18425
L9919 18420
" />
<path d="M9919 18420
L10035 18413
" />
<path d="M10035 18413
L10152 18404
" />
<path d="M10152 18404
L10268 18394
" />
<path d="M10268 18394
L10384 18382
" />
<path d="M10384 18382
L10500 18369
" />
<path d="M10500 18369
L10616 18354
" />
<path d="M10732 18338
L10847 18320
" />
<path d="M10847 18320
L10962 18301
" />
<path d="M11077 18280
L11192 18258
" />
<path d="M11420 18209
L11534 18183
" />
<path d="M13810 17294
L13911 17236
" />
<path d="M11760 18125
L11872 18094
" />
<path d="M14408 16929
L14505 16864
" />
<path d="M11872 18094
L11985 18062
" />
<path d="M13911 17236
L14012 17177
" />
<path d="M11985 18062
L12096 18028
" />
<path d="M12096 18028
L12208 17992
" />
<path d="M12208 17992
L12318 17956
" />
<path d="M12318 17956
L12429 17917
" />
<path d="M12429 17917
L12538 17878
" />
<path d="M12648 17837
L12756 17794
" />
<path d="M12865 17750
L12972 17705
" />
<path d="M12972 17705
L13079 17658
" />
<path d="M13396 17510
L13501 17458
" />
<path d="M13501 17458
L13604 17405
" />
<path d="M13708 17350
L13810 17294
" />
<path d="M14212 17056
L14310 16993
" />
<path d="M14310 16993
L14408 16929
" />
<path d="M4070 16671
L4673 16067
" />
<path d="M4010 16626
L4070 16671
" />
<path d="M3917 16555
L4010 16626
" />
<path d="M3214 15952
L3294 16027
" />
<path d="M3294 16027
L3380 16106
" />
<path d="M3164 15246
L3164 15904
" />
<path d="M3164 15904
L3209 15947
" />
<path d="M3380 16106
L3467 16184
" />
<path d="M3555 16260
L3644 16336
" />
<path d="M3209 15947
L3214 15952
" />
<path d="M3467 16184
L3555 16260
" />
<path d="M3644 16336
L3734 16410
" />
<path d="M3734 16410
L3825 16483
" />
<path d="M3825 16483
L3917 16555
" />
<path d="M6117 16795
L5608 17304
" />
<path d="M5608 17304
L5608 17586
" />
<path d="M17323 7217
L17623 7517
" />
<path d="M17323 6317
L17323 7217
" />
<path d="M17623 7517
L17623 10761
" />
<path d="M9848 2117
L12123 2117
" />
<path d="M8948 1217
L9848 2117
" />
<path d="M15623 5617
L16623 5617
" />
<path d="M12123 2117
L15623 5617
" />
<path d="M16623 5617
L17323 6317
" />
<path d="M16523 13697
L17023 13197
" />
<path d="M16523 14142
L16523 13697
" />
<path d="M17023 11361
L17623 10761
" />
<path d="M17023 13197
L17023 11361
" />
<path d="M10326 458
L10326 917
" />
<path d="M10616 492
L10500 478
" />
<path d="M10962 545
L10847 526
" />
<path d="M11192 588
L11077 566
" />
<path d="M11306 612
L11192 588
" />
<path d="M10847 526
L10732 508
" />
<path d="M11534 664
L11420 637
" />
<path d="M11647 692
L11534 664
" />
<path d="M11760 721
L11647 692
" />
<path d="M11872 752
L11760 721
" />
<path d="M10384 464
L10326 458
" />
<path d="M11985 785
L11872 752
" />
<path d="M11077 566
L10962 545
" />
<path d="M12096 819
L11985 785
" />
<path d="M10732 508
L10616 492
" />
<path d="M12208 854
L12096 819
" />
<path d="M13708 1497
L13604 1442
" />
<path d="M14012 1669
L13911 1610
" />
<path d="M12318 891
L12208 854
" />
<path d="M12429 929
L12318 891
" />
<path d="M14112 1729
L14012 1669
" />
<path d="M13604 1442
L13501 1388
" />
<path d="M13810 1553
L13708 1497
" />
<path d="M12972 1141
L12864 1096
" />
<path d="M13911 1610
L13810 1553
" />
<path d="M13185 1236
L13079 1188
" />
<path d="M13501 1388
L13396 1336
" />
<path d="M11420 637
L11306 612
" />
<path d="M12648 1010
L12538 969
" />
<path d="M13396 1336
L13291 1285
" />
<path d="M12756 1052
L12648 1010
" />
<path d="M13291 1285
L13185 1236
" />
<path d="M13079 1188
L12972 1141
" />
<path d="M10500 478
L10384 464
" />
<path d="M12864 1096
L12756 1052
" />
<path d="M12538 969
L12429 929
" />
<path d="M10268 453
L10326 458
" />
<path d="M8404 471
L8520 458
" />
<path d="M7827 555
L7942 536
" />
<path d="M9919 427
L10036 434
" />
<path d="M8288 485
L8404 471
" />
<path d="M9102 419
L9219 415
" />
<path d="M7461 629
L7483 624
" />
<path d="M7483 624
L7597 600
" />
<path d="M8057 517
L8172 500
" />
<path d="M7942 536
L8057 517
" />
<path d="M8869 430
L8986 424
" />
<path d="M10036 434
L10152 442
" />
<path d="M7597 600
L7712 577
" />
<path d="M10152 442
L10268 453
" />
<path d="M8636 447
L8753 438
" />
<path d="M7286 805
L7461 629
" />
<path d="M9569 414
L9686 417
" />
<path d="M8172 500
L8288 485
" />
<path d="M8986 424
L9102 419
" />
<path d="M7712 577
L7827 555
" />
<path d="M10326 458
L10326 1117
" />
<path d="M8753 438
L8869 430
" />
<path d="M8520 458
L8636 447
" />
<path d="M9219 415
L9336 413
" />
<path d="M9452 413
L9569 414
" />
<path d="M9336 413
L9452 413
" />
<path d="M9686 417
L9802 421
" />
<path d="M9802 421
L9919 427
" />
<path d="M2223 11017
L3323 12117
" />
<path d="M2273 3940
L2223 4006
" />
<path d="M2567 3577
L2492 3666
" />
<path d="M2643 3489
L2567 3577
" />
<path d="M2721 3401
L2643 3489
" />
<path d="M3825 2363
L3734 2436
" />
<path d="M4010 2220
L3917 2291
" />
<path d="M3323 13167
L2373 14117
" />
<path d="M4104 2151
L4010 2220
" />
<path d="M2418 3757
L2345 3848
" />
<path d="M4198 2083
L4104 2151
" />
<path d="M3125 2980
L3042 3062
" />
<path d="M2960 3145
L2879 3230
" />
<path d="M4294 2016
L4198 2083
" />
<path d="M4585 1822
L4487 1885
" />
<path d="M4632 1792
L4585 1822
" />
<path d="M6298 1792
L4632 1792
" />
<path d="M2345 3848
L2273 3940
" />
<path d="M4487 1885
L4390 1950
" />
<path d="M2223 4006
L2223 11017
" />
<path d="M3209 2899
L3125 2980
" />
<path d="M3917 2291
L3825 2363
" />
<path d="M4390 1950
L4294 2016
" />
<path d="M3323 12117
L3323 13167
" />
<path d="M3734 2436
L3644 2510
" />
<path d="M2799 3315
L2721 3401
" />
<path d="M3644 2510
L3555 2586
" />
<path d="M3042 3062
L2960 3145
" />
<path d="M3555 2586
L3467 2663
" />
<path d="M3467 2663
L3380 2740
" />
<path d="M2879 3230
L2799 3315
" />
<path d="M2492 3666
L2418 3757
" />
<path d="M3380 2740
L3294 2819
" />
<path d="M3294 2819
L3209 2899
" />
<path d="M14173 1790
L14112 1729
" />
<path d="M14173 2617
L14173 1790
" />
<path d="M15323 2817
L15737 2817
" />
<path d="M15323 2817
L14173 2817
" />
<path d="M8323 7317
L11023 4617
" />
<path d="M7733 7317
L8323 7317
" />
<path d="M6298 1792
L6233 1858
" />
<path d="M6233 5817
L7733 7317
" />
<path d="M6233 1858
L6233 5817
" />
<path d="M5298 5892
L7323 7917
" />
<path d="M5298 2892
L5298 5892
" />
<path d="M8723 7917
L11023 5617
" />
<path d="M7323 7917
L8723 7917
" />
<path d="M15723 9542
L15723 6517
" />
<path d="M14173 10067
L15198 10067
" />
<path d="M15198 10067
L15723 9542
" />
<path d="M15723 6517
L11796 2590
" />
<path d="M10051 2590
L8023 4617
" />
<path d="M11796 2590
L10051 2590
" />
<path d="M7057 17137
L8176 16017
" />
<path d="M9196 16017
L9696 16517
" />
<path d="M8176 16017
L9196 16017
" />
</g>
<g >
</g>
<g style="fill:#000000; fill-opacity:0.0; 
stroke:#000000; stroke-width:236.22; stroke-opacity:1; 
stroke-linecap:round; stroke-linejoin:round;">
</g>
<g style="fill:#000000; fill-opacity:1.0; 
stroke:#000000; stroke-width:100; stroke-opacity:1; 
stroke-linecap:round; stroke-linejoin:round;">
<path style="fill:#000000; fill-opacity:1.0; 
stroke:#000000; stroke-width:100; stroke-opacity:1; 
stroke-linecap:round; stroke-linejoin:round;fill-rule:evenodd;"
d="M 1819.34,10998
1817.39,11017.8
1819.34,11037.7
1825.2,11097.1
1848.32,11173.3
1874.94,11223.1
1007.44,13306.7
909.77,13103.8
638.131,12397.6
424.958,11671.6
271.671,10930.7
179.288,10179.7
148.426,9423.68
179.288,8667.66
271.671,7916.67
424.958,7175.71
638.131,6449.71
909.77,5743.5
1238.07,5061.79
1620.84,4409.1
1819.34,4126.28
Z" /> 
<path style="fill:#000000; fill-opacity:1.0; 
stroke:#000000; stroke-width:100; stroke-opacity:1; 
stroke-linecap:round; stroke-linejoin:round;fill-rule:evenodd;"
d="M 7014.32,505.371
7014.31,505.372
6131.2,1388.49
4798.45,1388.49
4895.72,1328.75
5570.6,986.611
6271.12,700.623
6992.62,472.686
7063.09,456.602
Z" /> 
<path style="fill:#000000; fill-opacity:1.0; 
stroke:#000000; stroke-width:100; stroke-opacity:1; 
stroke-linecap:round; stroke-linejoin:round;fill-rule:evenodd;"
d="M 4939.31,2220.51
4815.06,2303.53
4709.38,2409.2
4626.36,2533.46
4569.17,2671.53
4540.01,2818.1
4540.01,2967.54
4569.17,3114.12
4626.36,3252.18
4709.38,3376.44
4815.06,3482.11
4894.34,3535.09
4894.34,5872.96
4892.39,5892.82
4900.2,5972.08
4923.32,6048.3
4960.86,6118.54
4993.62,6158.46
5011.39,6180.11
5026.82,6192.77
7023.73,8189.68
7036.39,8205.11
7097.95,8255.64
7168.2,8293.18
7244.41,8316.3
7303.81,8322.15
7303.82,8322.15
7323.67,8324.11
7343.53,8322.15
8703.82,8322.15
8723.68,8324.11
8743.53,8322.15
8743.54,8322.15
8802.94,8316.3
8879.15,8293.18
8949.4,8255.64
9010.96,8205.11
9023.63,8189.68
9098.63,8114.68
13741.2,8114.68
14173.7,8547.11
14606.1,8114.68
14558.9,8002.53
14431.5,7939.2
14294.1,7901.95
14152.1,7892.21
14011,7910.35
13876.1,7955.68
13788.4,8002.53
13741.2,8114.68
9098.63,8114.68
10497.2,6716.15
10475.7,6755.24
10491.7,6808.01
10539,6908.14
10605,6997.12
10687,7071.52
10782,7128.48
10886.3,7165.82
10973.7,7118.07
10973.7,6667.82
11073.7,6667.82
11073.7,7118.07
11161.1,7165.82
11265.4,7128.48
11360.3,7071.52
11442.4,6997.12
11508.3,6908.14
11555.7,6808.01
11571.7,6755.24
11523.6,6667.82
11073.7,6667.82
10973.7,6667.82
10965.8,6667.82
10965.8,6567.82
10973.7,6567.82
10973.7,6559.95
11073.7,6559.95
11073.7,6567.82
11523.6,6567.82
11571.7,6480.41
11555.7,6427.63
11508.3,6327.5
11442.4,6238.53
11360.3,6164.13
11322.3,6141.32
11406.9,6084.79
11490.6,6001.05
11556.4,5902.59
11601.8,5793.18
11624.9,5677.03
11624.9,5558.61
11601.8,5442.46
11556.4,5333.06
11490.6,5234.59
11406.9,5150.85
11357.5,5117.82
11406.9,5084.79
11490.6,5001.05
11556.4,4902.59
11601.8,4793.18
11624.9,4677.03
11624.9,4558.61
11601.8,4442.46
11556.4,4333.06
11490.6,4234.59
11452.5,4196.46
11498.4,4171.92
11542,4136.15
11577.8,4092.57
11604.3,4042.84
11620.7,3988.89
11626.2,3932.78
11626.2,3302.86
11620.7,3246.75
11604.3,3192.8
11577.8,3143.08
11542,3099.49
11498.4,3063.73
11448.7,3037.15
11394.7,3020.78
11338.6,3015.26
10708.7,3015.26
10652.6,3020.78
10598.7,3037.15
10548.9,3063.73
10505.3,3099.49
10469.6,3143.08
10443,3192.8
10426.6,3246.75
10421.1,3302.86
10421.1,3932.78
10426.6,3988.89
10443,4042.84
10469.6,4092.57
10505.3,4136.15
10548.9,4171.92
10594.8,4196.46
10556.7,4234.59
10490.9,4333.06
10445.6,4442.46
10422.5,4558.61
10422.5,4647.19
8605.98,6463.71
8601.75,6442.46
8556.44,6333.06
8490.64,6234.59
8406.91,6150.85
8357.47,6117.82
8406.91,6084.79
8490.64,6001.05
8556.44,5902.59
8601.75,5793.18
8624.86,5677.03
8624.86,5558.61
8601.75,5442.46
8556.44,5333.06
8490.64,5234.59
8406.91,5150.85
8357.47,5117.82
8406.91,5084.79
8490.64,5001.05
8556.44,4902.59
8601.75,4793.18
8624.86,4677.03
8624.86,4588.45
10218.7,2994.6
11628.6,2994.6
14983.6,6349.57
14965,6443.1
14965,6592.54
14994.2,6739.12
15051.4,6877.18
15134.4,7001.44
15240.1,7107.11
15319.3,7160.09
15319.3,9375.34
15031.2,9663.49
14365.9,9663.49
14313,9584.2
14207.3,9478.53
14083,9395.51
13945,9338.32
13798.4,9309.16
13649,9309.16
13502.4,9338.32
13364.3,9395.51
13240.1,9478.53
13134.4,9584.2
13051.4,9708.46
12994.2,9846.53
12965,9993.1
12965,10142.5
12994.2,10289.1
13051.4,10427.2
13134.4,10551.4
13240.1,10657.1
13364.3,10740.1
13502.4,10797.3
13649,10826.5
13798.4,10826.5
13945,10797.3
14083,10740.1
14207.3,10657.1
14313,10551.4
14365.9,10472.2
15178.8,10472.2
15198.7,10474.1
15218.5,10472.2
15218.5,10472.2
15277.9,10466.3
15354.2,10443.2
15424.4,10405.6
15486,10355.1
15498.6,10339.7
15995.5,9842.77
16011,9830.11
16023.6,9814.68
16023.6,9814.68
16061.5,9768.54
16061.5,9768.54
16099,9698.3
16122.2,9622.08
16122.6,9617.82
16124.5,9597.96
16128,9562.68
16128,9562.68
16130,9542.82
16128,9522.96
16128,7160.09
16207.3,7107.11
16313,7001.44
16396,6877.18
16453.2,6739.12
16482.3,6592.54
16482.3,6443.1
16453.2,6296.53
16396,6158.46
16313,6034.2
16300.9,6022.15
16456.2,6022.15
16919.3,6485.3
16919.3,7197.96
16917.4,7217.82
16925.2,7297.08
16948.3,7373.3
16985.9,7443.54
17022.1,7487.67
17036.4,7505.11
17051.8,7517.77
17219.3,7685.3
17219.3,10594.4
16751.8,11061.9
16736.4,11074.5
16723.7,11090
16723.7,11090
16685.9,11136.1
16648.3,11206.4
16625.2,11282.6
16617.4,11361.8
16619.3,11381.7
16619.3,13029.9
16251.8,13397.5
16236.4,13410.1
16223.7,13425.5
16223.7,13425.5
16185.9,13471.7
16148.3,13541.9
16125.2,13618.1
16117.4,13697.4
16117.5,13698.8
16077.8,13738.5
16075.2,13738.5
16055.4,13736.5
16035.5,13738.5
16035.5,13738.5
15983.3,13743.6
15976.1,13744.3
15899.9,13767.5
15829.6,13805
15783.5,13842.9
15783.5,13842.9
15768.1,13855.5
15755.4,13871
15584.5,14041.8
15315.2,14041.8
15295.3,14039.9
15275.5,14041.8
15275.5,14041.8
15216.1,14047.7
15139.8,14070.8
15069.6,14108.4
15008,14158.9
14995.4,14174.3
14689.4,14480.3
14673.9,14493
14661.3,14508.4
14661.3,14508.4
14623.4,14554.6
14585.9,14624.8
14562.7,14701
14554.9,14780.3
14556.9,14800.1
14556.9,16331
14549.5,16336.6
14459.6,16402.4
14368.7,16467
14277.1,16530.5
14270,16535.2
14312.1,16487
14382.5,16364.2
14427.7,16230
14381.9,16117.8
13773.7,16117.8
13773.7,16725.9
13885.8,16771.8
13920,16761.4
13902.4,16772.4
13806.8,16829.8
13710.5,16885.9
13613.5,16940.8
13515.8,16994.5
13417.4,17046.8
13318.3,17097.9
13218.5,17147.8
13118.1,17196.3
13017.2,17243.5
12915.5,17289.4
12813.4,17333.9
12710.6,17377.2
12607.3,17419.1
12503.5,17459.7
12399.1,17498.9
12294.2,17536.8
12188.9,17573.3
12083.1,17608.4
11976.8,17642.2
11870.1,17674.6
11763,17705.6
11655.5,17735.2
11547.7,17763.4
11439.5,17790.2
11330.9,17815.6
11222,17839.6
11112.8,17862.2
11003.4,17883.4
10893.7,17903.1
10783.7,17921.5
10673.5,17938.4
10563.1,17953.9
10452.5,17967.9
10341.7,17980.5
10230.8,17991.7
10119.7,18001.4
10008.5,18009.7
9897.27,18016.6
9785.9,18022
9674.48,18026
9562.99,18028.5
9451.56,18029.6
9340.09,18029.2
9228.58,18027.4
9117.15,18024.2
9005.77,18019.5
8894.44,18013.3
8783.24,18005.8
8672.1,17996.7
8561.08,17986.3
8450.25,17974.4
8385.01,17966.5
8392.53,17961.5
8479.01,17875
8546.96,17773.3
8593.76,17660.3
8617.62,17540.4
8617.62,17418.1
8593.76,17298.1
8546.96,17185.2
8479.01,17083.5
8392.53,16997
8290.84,16929
8177.85,16882.2
8057.9,16858.4
7935.6,16858.4
7900.79,16865.3
8343.94,16422.2
8821.2,16422.2
8819.34,16431.5
8819.34,16604.2
8853.04,16773.6
8919.13,16933.1
9015.08,17076.7
9137.21,17198.9
9280.81,17294.8
9440.37,17360.9
9609.76,17394.6
9782.47,17394.6
9951.86,17360.9
10111.4,17294.8
10255,17198.9
10377.1,17076.7
10382,17069.5
10381.9,17108.4
10386.7,17157.4
10401,17204.5
10424.3,17247.9
10455.5,17286
10493.6,17317.2
10537,17340.5
10584.1,17354.8
10633.1,17359.6
11111.2,17358.4
11173.7,17295.9
11173.7,16567.8
11273.7,16567.8
11273.7,17295.9
11336.2,17358.4
11814.2,17359.6
11863.2,17354.8
11910.4,17340.5
11953.8,17317.2
11991.9,17286
12023.1,17247.9
12046.3,17204.5
12060.6,17157.4
12065.4,17108.4
12064.2,16630.3
12001.7,16567.8
11273.7,16567.8
11173.7,16567.8
11165.8,16567.8
11165.8,16467.8
11173.7,16467.8
11173.7,16459.9
11273.7,16459.9
11273.7,16467.8
12001.7,16467.8
12064.2,16405.3
12064.7,16230
13019.7,16230
13064.8,16364.2
13135.3,16487
13228.4,16593.8
13340.5,16680.3
13467.4,16743.3
13561.5,16771.8
13673.7,16725.9
13673.7,16117.8
13065.5,16117.8
13019.7,16230
12064.7,16230
12065.4,15927.3
12063.3,15905.7
13019.7,15905.7
13065.5,16017.8
13673.7,16017.8
13673.7,15409.8
13773.7,15409.8
13773.7,16017.8
14381.9,16017.8
14427.7,15905.7
14382.5,15771.5
14312.1,15648.6
14219,15541.9
14106.8,15455.4
13980,15392.4
13885.8,15363.8
13773.7,15409.8
13673.7,15409.8
13561.5,15363.8
13467.4,15392.4
13340.5,15455.4
13228.4,15541.9
13135.3,15648.6
13064.8,15771.5
13019.7,15905.7
12063.3,15905.7
12060.6,15878.3
12046.3,15831.1
12025.2,15791.6
12027.9,15791.3
12104.2,15768.2
12174.4,15730.6
12236,15680.1
12248.6,15664.7
14891.2,13022.2
15155.1,13022.2
15240.1,13107.1
15364.3,13190.1
15502.4,13247.3
15649,13276.5
15798.4,13276.5
15945,13247.3
16083,13190.1
16207.3,13107.1
16313,13001.4
16396,12877.2
16453.2,12739.1
16482.3,12592.5
16482.3,12443.1
16453.2,12296.5
16396,12158.5
16313,12034.2
16207.3,11928.5
16083,11845.5
15945,11788.3
15798.4,11759.2
15649,11759.2
15502.4,11788.3
15364.3,11845.5
15240.1,11928.5
15134.4,12034.2
15051.4,12158.5
15028.6,12213.5
14743.5,12213.5
14723.7,12211.5
14703.8,12213.5
14703.8,12213.5
14644.4,12219.3
14568.2,12242.5
14498,12280
14436.4,12330.5
14423.7,12346
11781.2,14988.5
7401.05,14988.5
7380.88,14939.8
7293.55,14809.1
7182.39,14698
7051.69,14610.6
6906.45,14550.5
6752.27,14519.8
6595.08,14519.8
6440.9,14550.5
6295.67,14610.6
6164.96,14698
6053.8,14809.1
5966.47,14939.8
5906.31,15085
5875.64,15239.2
5875.64,15396.4
5906.31,15550.6
5966.47,15695.8
6053.8,15826.5
6164.96,15937.7
6295.67,16025
6440.9,16085.2
6595.08,16115.9
6752.27,16115.9
6906.45,16085.2
7051.69,16025
7182.39,15937.7
7293.55,15826.5
7313.18,15797.2
7825.32,15797.2
7106.12,16516.4
6995.91,16516.4
6875.96,16540.2
6830.26,16559.1
6825.65,16526.8
6806.95,16473.6
6778.22,16425.1
6740.59,16383.2
6695.49,16349.3
6644.65,16324.9
6015.73,16096
5961.11,16082
5904.81,16079
5849,16086.9
5795.81,16105.6
5747.29,16134.3
5705.31,16172
5671.48,16217.1
5647.1,16267.9
5418.19,16896.8
5409.32,16931.4
5341.26,16999.5
5282.63,16967.8
5185.25,16913.5
5088.53,16858
4992.65,16801.2
4949.32,16774.8
5033.04,16740.1
5157.29,16657.1
5262.97,16551.4
5345.99,16427.2
5403.18,16289.1
5432.34,16142.5
5432.34,15993.1
5403.18,15846.5
5345.99,15708.5
5262.97,15584.2
5157.29,15478.5
5033.04,15395.5
4894.97,15338.3
4748.4,15309.2
4598.95,15309.2
4452.38,15338.3
4314.31,15395.5
4190.06,15478.5
4084.38,15584.2
4001.36,15708.5
3944.17,15846.5
3915.01,15993.1
3915.01,16035.4
3903.76,16026.1
3818.69,15954.1
3734.56,15880.9
3651.4,15806.7
3569.16,15731.4
3568.37,15730.6
3568.37,15692.4
3631,15629.8
3696.8,15531.3
3742.11,15421.9
3765.22,15305.8
3765.22,15187.4
3742.11,15071.2
3696.8,14961.8
3631,14863.3
3547.27,14779.6
3448.8,14713.8
3339.39,14668.5
3223.25,14645.4
3104.83,14645.4
2988.68,14668.5
2879.27,14713.8
2780.81,14779.6
2726.2,14834.2
2576.51,14684.5
2658.44,14650.6
2756.91,14584.8
2840.64,14501.1
2906.44,14402.6
2951.75,14293.2
2974.86,14177
2974.86,14088.5
3595.54,13467.8
3610.96,13455.1
3661.49,13393.5
3699.04,13323.3
3722.16,13247.1
3728.01,13187.7
3728.01,13187.7
3729.96,13167.8
3728.01,13148
3728.01,12137.7
3729.96,12117.8
3728.01,12098
3728.01,12098
3722.16,12038.6
3721.28,12035.7
3715.14,12015.4
3699.04,11962.3
3661.49,11892.1
3651.44,11879.9
3623.63,11846
3623.62,11846
3610.96,11830.5
3595.54,11817.9
2628.01,10850.3
2628.01,6835.45
2676.36,6952.18
2759.38,7076.44
2865.06,7182.11
2944.34,7235.09
2944.34,8722.96
2942.39,8742.82
2944.34,8762.68
2950.2,8822.08
2973.32,8898.3
3010.86,8968.54
3061.39,9030.11
3076.82,9042.77
3933.62,9899.57
3915.01,9993.1
3915.01,10142.5
3944.17,10289.1
4001.36,10427.2
4084.38,10551.4
4190.06,10657.1
4269.34,10710.1
4269.34,10879.5
4267.39,10899.3
4275.2,10978.6
4298.32,11054.8
4335.86,11125
4339.47,11129.4
4386.39,11186.6
4401.82,11199.3
6047.09,12844.5
6047.09,13780.8
6052.62,13836.9
6068.99,13890.9
6095.56,13940.6
6131.33,13984.2
6174.91,14019.9
6224.64,14046.5
6278.59,14062.9
6334.7,14068.4
7712.65,14068.4
7768.76,14062.9
7822.71,14046.5
7872.44,14019.9
7916.02,13984.2
7951.79,13940.6
7978.36,13890.9
7994.73,13836.9
8000.26,13780.8
8000.26,12717.8
7994.73,12661.7
7978.36,12607.8
7963.06,12579.1
8115.41,12579.1
8115.41,12856.5
8169.53,13128.6
8275.68,13384.9
8429.8,13615.5
8625.96,13811.7
8856.61,13965.8
9112.9,14072
9384.97,14126.1
9662.38,14126.1
9934.45,14072
10190.7,13965.8
10421.4,13811.7
10617.5,13615.5
10771.7,13384.9
10877.8,13128.6
10931.9,12856.5
10931.9,12579.1
10877.8,12307
10771.7,12050.8
10617.5,11820.1
10421.4,11623.9
10190.7,11469.8
9934.45,11363.7
9662.38,11309.6
9384.97,11309.6
9112.9,11363.7
8856.61,11469.8
8625.96,11623.9
8429.8,11820.1
8275.68,12050.8
8169.53,12307
8115.41,12579.1
7963.06,12579.1
7951.79,12558
7916.02,12514.5
7872.44,12478.7
7822.71,12452.1
7768.76,12435.7
7712.65,12430.2
6776.38,12430.2
5078.01,10731.8
5078.01,10710.1
5157.29,10657.1
5262.97,10551.4
5345.99,10427.2
5403.18,10289.1
5432.34,10142.5
5432.34,9993.1
5403.18,9846.53
5345.99,9708.46
5307.92,9651.48
5373.4,9651.48
5466.92,9632.88
5723.73,9889.68
5736.39,9905.11
5797.95,9955.64
5868.2,9993.18
5944.41,10016.3
6003.81,10022.2
6003.82,10022.2
6023.67,10024.1
6043.53,10022.2
6699.66,10022.2
6699.66,10049.8
6710.92,10164.1
6755.43,10310.8
6827.7,10446
6924.97,10564.6
7043.49,10661.8
7178.7,10734.1
7325.42,10778.6
7478.01,10793.6
7630.59,10778.6
7777.31,10734.1
7912.52,10661.8
8031.04,10564.6
8128.31,10446
8200.58,10310.8
8245.09,10164.1
8256.35,10049.8
8256.35,10049.8
8845.33,10049.8
8856.59,10164.1
8901.1,10310.8
8973.37,10446
9070.64,10564.6
9189.16,10661.8
9324.37,10734.1
9471.09,10778.6
9623.68,10793.6
9776.26,10778.6
9922.98,10734.1
9972.94,10707.4
11047.1,11781.6
11047.1,12717.8
11052.6,12773.9
11069,12827.9
11095.6,12877.6
11131.3,12921.2
11174.9,12957
11224.6,12983.5
11278.6,12999.9
11334.7,13005.4
12712.7,13005.4
12768.8,12999.9
12822.7,12983.5
12872.4,12957
12916,12921.2
12951.8,12877.6
12978.4,12827.9
12994.7,12773.9
13000.3,12717.8
13000.3,11654.8
12994.7,11598.7
12978.4,11544.8
12951.8,11495
12916,11451.5
12872.4,11415.7
12822.7,11389.1
12768.8,11372.8
12712.7,11367.2
11776.4,11367.2
10912.8,10503.6
11026,10503.6
11030.8,10552.7
11045.1,10599.8
11068.3,10643.2
11099.6,10681.3
11137.7,10712.5
11181.1,10735.7
11228.2,10750
11277.2,10754.9
11656.8,10753.6
11719.3,10691.1
11719.3,9667.82
11819.3,9667.82
11819.3,10691.1
11881.8,10753.6
12261.5,10754.9
12310.5,10750
12357.6,10735.7
12401,10712.5
12439.1,10681.3
12470.3,10643.2
12493.6,10599.8
12507.9,10552.7
12512.7,10503.6
12511.5,9730.32
12449,9667.82
11819.3,9667.82
11719.3,9667.82
11089.7,9667.82
11027.2,9730.32
11026,10503.6
10912.8,10503.6
10402,9992.86
10402,9185.89
10390.8,9071.54
10346.3,8924.82
10274,8789.6
10226.7,8732
11026,8732
11027.2,9505.32
11089.7,9567.82
11719.3,9567.82
11719.3,8544.5
11819.3,8544.5
11819.3,9567.82
12449,9567.82
12511.5,9505.32
12512.1,9120.96
13741.2,9120.96
13788.4,9233.11
13915.9,9296.44
14053.2,9333.7
14195.2,9343.44
14336.4,9325.3
14471.2,9279.97
14558.9,9233.11
14606.1,9120.96
14173.7,8688.53
13741.2,9120.96
12512.1,9120.96
12512.7,8732
12507.9,8682.99
12494.6,8639.35
13448.1,8639.35
13466.2,8780.5
13511.5,8915.39
13558.4,9003.05
13670.5,9050.25
14103,8617.82
14244.4,8617.82
14676.8,9050.25
14789,9003.05
14852.3,8875.61
14889.5,8738.27
14899.3,8596.29
14881.1,8455.15
14835.8,8320.25
14789,8232.59
14676.8,8185.39
14244.4,8617.82
14103,8617.82
13670.5,8185.39
13558.4,8232.59
13495.1,8360.03
13457.8,8497.38
13448.1,8639.35
12494.6,8639.35
12493.6,8635.86
12470.3,8592.43
12439.1,8554.36
12401,8523.12
12357.6,8499.91
12310.5,8485.61
12261.5,8480.79
11881.8,8482
11819.3,8544.5
11719.3,8544.5
11656.8,8482
11277.2,8480.79
11228.2,8485.61
11181.1,8499.91
11137.7,8523.12
11099.6,8554.36
11068.3,8592.43
11045.1,8635.86
11030.8,8682.99
11026,8732
10226.7,8732
10176.7,8671.08
10058.2,8573.82
9922.98,8501.54
9776.26,8457.04
9623.68,8442.01
9471.09,8457.04
9324.37,8501.54
9189.16,8573.82
9070.64,8671.08
8973.37,8789.6
8901.1,8924.82
8856.59,9071.54
8845.33,9185.89
8845.33,10049.8
8256.35,10049.8
8256.35,9185.89
8245.09,9071.54
8200.58,8924.82
8128.31,8789.6
8031.04,8671.08
7912.52,8573.82
7777.31,8501.54
7630.59,8457.04
7478.01,8442.01
7325.42,8457.04
7178.7,8501.54
7043.49,8573.82
6924.97,8671.08
6827.7,8789.6
6755.43,8924.82
6710.92,9071.54
6699.66,9185.89
6699.66,9213.49
6191.15,9213.49
6038.73,9061.07
6057.34,8967.54
6057.34,8818.1
6028.18,8671.53
5970.99,8533.46
5887.97,8409.2
5782.29,8303.53
5658.04,8220.51
5519.97,8163.32
5373.4,8134.16
5223.95,8134.16
5077.38,8163.32
4939.31,8220.51
4815.06,8303.53
4709.38,8409.2
4626.36,8533.46
4569.17,8671.53
4540.01,8818.1
4540.01,8967.54
4569.17,9114.12
4626.36,9252.18
4664.43,9309.16
4598.95,9309.16
4505.43,9327.76
3753.01,8575.34
3753.01,7235.09
3832.29,7182.11
3937.97,7076.44
4020.99,6952.18
4078.18,6814.12
4107.34,6667.54
4107.34,6518.1
4078.18,6371.53
4020.99,6233.46
3937.97,6109.2
3832.29,6003.53
3708.04,5920.51
3569.97,5863.32
3423.4,5834.16
3273.95,5834.16
3127.38,5863.32
2989.31,5920.51
2865.06,6003.53
2759.38,6109.2
2676.36,6233.46
2628.01,6350.19
2628.01,4143.72
2663.12,4098.54
2732.69,4011.38
2803.34,3925.19
2875.14,3839.87
2948.04,3755.49
3022.01,3672.08
3097.05,3589.64
3173.15,3508.17
3250.33,3427.68
3328.5,3348.23
3407.75,3269.75
3487.93,3192.37
3569.16,3116
3651.4,3040.65
3734.56,2966.42
3818.69,2893.26
3903.74,2821.21
3989.76,2750.24
4076.66,2680.41
4164.47,2611.71
4253.19,2544.12
4342.73,2477.73
4433.11,2412.51
4524.36,2348.44
4616.43,2285.57
4709.34,2223.87
4750.72,2197.15
4995.69,2197.15
Z" /> 
<path style="fill:#000000; fill-opacity:1.0; 
stroke:#000000; stroke-width:100; stroke-opacity:1; 
stroke-linecap:round; stroke-linejoin:round;fill-rule:evenodd;"
d="M 15597.6,3363.76
16382.9,4247.2
16912.2,5167.82
15869.1,5167.82
14403.3,3725.98
15109,3270.68
Z" /> 
<path style="fill:#000000; fill-opacity:1.0; 
stroke:#000000; stroke-width:100; stroke-opacity:1; 
stroke-linecap:round; stroke-linejoin:round;fill-rule:evenodd;"
d="M 12107,1265.19
13366.1,1846.33
13194.8,2617.16
12423.6,1845.96
12411,1830.53
12389.4,1812.84
12259,1682.47
12251.5,1676.25
12242.8,1671.63
12233.4,1668.78
12223.7,1667.82
11173.7,1667.82
11173.7,1067.82
11317.5,1067.82
Z" /> 
<path style="fill:#000000; fill-opacity:1.0; 
stroke:#000000; stroke-width:100; stroke-opacity:1; 
stroke-linecap:round; stroke-linejoin:round;fill-rule:evenodd;"
d="M 9552.96,2417.82
8718.98,3251.8
8428.01,3033.57
8428.01,2210.3
8670.49,1967.82
9102.96,1967.82
Z" /> 
<path style="fill:#000000; fill-opacity:1.0; 
stroke:#000000; stroke-width:100; stroke-opacity:1; 
stroke-linecap:round; stroke-linejoin:round;fill-rule:evenodd;"
d="M 8122.71,1136.87
7591.67,1579.41
7584.79,1586.39
7579.4,1594.58
7575.72,1603.67
7573.68,1617.82
7573.68,2891.06
7295.94,3076.22
7288.36,3082.43
7282.13,3090
7277.5,3098.64
7274.65,3108.02
7273.68,3117.82
7273.68,6286.56
6673.68,5686.56
6673.68,2064.53
7786.09,1024.66
Z" /> 
<path style="fill:#000000; fill-opacity:1.0; 
stroke:#000000; stroke-width:100; stroke-opacity:1; 
stroke-linecap:round; stroke-linejoin:round;fill-rule:evenodd;"
d="M 17996.4,11093.1
17993.2,11110.2
17970.6,11221.1
17946.6,11331.7
17921.2,11441.9
17894.3,11551.8
17866,11661.4
17836.3,11770.6
17805.2,11879.4
17772.7,11987.7
17738.8,12095.7
17703.5,12203.2
17666.8,12310.2
17628.7,12416.8
17589.2,12522.8
17548.4,12628.3
17506.2,12733.3
17462.6,12837.8
17428,12917.9
17428,11529.3
17895.5,11061.8
17911,11049.1
17917.9,11040.7
Z" /> 
</g>
</g>
<g style="fill:#FFFFFF; fill-opacity:1.0; 
stroke:#FFFFFF; stroke-width:100; stroke-opacity:1; 
stroke-linecap:round; stroke-linejoin:round;">
</g>
<g style="fill:#FFFFFF; fill-opacity:1.0; 
stroke:#FFFFFF; stroke-width:0; stroke-opacity:1; 
stroke-linecap:round; stroke-linejoin:round;">
<circle cx="6117.37" cy="16795.2" r="196.85" /> 
</g>
<g style="fill:#FFFFFF; fill-opacity:1.0; 
stroke:#FFFFFF; stroke-width:98.4252; stroke-opacity:1; 
stroke-linecap:round; stroke-linejoin:round;">
</g>
<g style="fill:#FFFFFF; fill-opacity:1.0; 
stroke:#FFFFFF; stroke-width:0; stroke-opacity:1; 
stroke-linecap:round; stroke-linejoin:round;">
<circle cx="7057.06" cy="17137.2" r="196.85" /> 
</g>
<g style="fill:#FFFFFF; fill-opacity:1.0; 
stroke:#FFFFFF; stroke-width:98.4252; stroke-opacity:1; 
stroke-linecap:round; stroke-linejoin:round;">
</g>
<g style="fill:#FFFFFF; fill-opacity:1.0; 
stroke:#FFFFFF; stroke-width:0; stroke-opacity:1; 
stroke-linecap:round; stroke-linejoin:round;">
<circle cx="7996.75" cy="17479.2" r="196.85" /> 
</g>
<g style="fill:#FFFFFF; fill-opacity:1.0; 
stroke:#FFFFFF; stroke-width:98.4252; stroke-opacity:1; 
stroke-linecap:round; stroke-linejoin:round;">
</g>
<g style="fill:#FFFFFF; fill-opacity:1.0; 
stroke:#FFFFFF; stroke-width:0; stroke-opacity:1; 
stroke-linecap:round; stroke-linejoin:round;">
<circle cx="8948.68" cy="1217.82" r="157.48" /> 
</g>
<g style="fill:#FFFFFF; fill-opacity:1.0; 
stroke:#FFFFFF; stroke-width:98.4252; stroke-opacity:1; 
stroke-linecap:round; stroke-linejoin:round;">
</g>
<g style="fill:#FFFFFF; fill-opacity:1.0; 
stroke:#FFFFFF; stroke-width:0; stroke-opacity:1; 
stroke-linecap:round; stroke-linejoin:round;">
<circle cx="10326.6" cy="1217.82" r="157.48" /> 
</g>
<g style="fill:#FFFFFF; fill-opacity:1.0; 
stroke:#FFFFFF; stroke-width:98.4252; stroke-opacity:1; 
stroke-linecap:round; stroke-linejoin:round;">
</g>
<g style="fill:#FFFFFF; fill-opacity:1.0; 
stroke:#FFFFFF; stroke-width:0; stroke-opacity:1; 
stroke-linecap:round; stroke-linejoin:round;">
<circle cx="2306.79" cy="12501.7" r="236.22" /> 
</g>
<g style="fill:#FFFFFF; fill-opacity:1.0; 
stroke:#FFFFFF; stroke-width:98.4252; stroke-opacity:1; 
stroke-linecap:round; stroke-linejoin:round;">
</g>
<g style="fill:#FFFFFF; fill-opacity:1.0; 
stroke:#FFFFFF; stroke-width:0; stroke-opacity:1; 
stroke-linecap:round; stroke-linejoin:round;">
<circle cx="3348.68" cy="6592.82" r="236.22" /> 
</g>
<g style="fill:#FFFFFF; fill-opacity:1.0; 
stroke:#FFFFFF; stroke-width:98.4252; stroke-opacity:1; 
stroke-linecap:round; stroke-linejoin:round;">
</g>
<g style="fill:#FFFFFF; fill-opacity:1.0; 
stroke:#FFFFFF; stroke-width:0; stroke-opacity:1; 
stroke-linecap:round; stroke-linejoin:round;">
<circle cx="11223.7" cy="16517.8" r="344.488" /> 
</g>
<g style="fill:#FFFFFF; fill-opacity:1.0; 
stroke:#FFFFFF; stroke-width:98.4252; stroke-opacity:1; 
stroke-linecap:round; stroke-linejoin:round;">
</g>
<g style="fill:#FFFFFF; fill-opacity:1.0; 
stroke:#FFFFFF; stroke-width:0; stroke-opacity:1; 
stroke-linecap:round; stroke-linejoin:round;">
<circle cx="9696.12" cy="16517.8" r="344.488" /> 
</g>
<g style="fill:#FFFFFF; fill-opacity:1.0; 
stroke:#FFFFFF; stroke-width:98.4252; stroke-opacity:1; 
stroke-linecap:round; stroke-linejoin:round;">
</g>
<g style="fill:#FFFFFF; fill-opacity:1.0; 
stroke:#FFFFFF; stroke-width:0; stroke-opacity:1; 
stroke-linecap:round; stroke-linejoin:round;">
<circle cx="6673.68" cy="15317.8" r="255.906" /> 
</g>
<g style="fill:#FFFFFF; fill-opacity:1.0; 
stroke:#FFFFFF; stroke-width:98.4252; stroke-opacity:1; 
stroke-linecap:round; stroke-linejoin:round;">
</g>
<g style="fill:#FFFFFF; fill-opacity:1.0; 
stroke:#FFFFFF; stroke-width:0; stroke-opacity:1; 
stroke-linecap:round; stroke-linejoin:round;">
<circle cx="11769.3" cy="9617.82" r="295.276" /> 
</g>
<g style="fill:#FFFFFF; fill-opacity:1.0; 
stroke:#FFFFFF; stroke-width:98.4252; stroke-opacity:1; 
stroke-linecap:round; stroke-linejoin:round;">
</g>
<g style="fill:#FFFFFF; fill-opacity:1.0; 
stroke:#FFFFFF; stroke-width:0; stroke-opacity:1; 
stroke-linecap:round; stroke-linejoin:round;">
<circle cx="9623.68" cy="9617.82" r="295.276" /> 
</g>
<g style="fill:#FFFFFF; fill-opacity:1.0; 
stroke:#FFFFFF; stroke-width:98.4252; stroke-opacity:1; 
stroke-linecap:round; stroke-linejoin:round;">
</g>
<g style="fill:#FFFFFF; fill-opacity:1.0; 
stroke:#FFFFFF; stroke-width:0; stroke-opacity:1; 
stroke-linecap:round; stroke-linejoin:round;">
<circle cx="7478.01" cy="9617.82" r="295.276" /> 
</g>
<g style="fill:#FFFFFF; fill-opacity:1.0; 
stroke:#FFFFFF; stroke-width:98.4252; stroke-opacity:1; 
stroke-linecap:round; stroke-linejoin:round;">
</g>
<g style="fill:#FFFFFF; fill-opacity:1.0; 
stroke:#FFFFFF; stroke-width:0; stroke-opacity:1; 
stroke-linecap:round; stroke-linejoin:round;">
<circle cx="15834.7" cy="15336.2" r="157.48" /> 
</g>
<g style="fill:#FFFFFF; fill-opacity:1.0; 
stroke:#FFFFFF; stroke-width:98.4252; stroke-opacity:1; 
stroke-linecap:round; stroke-linejoin:round;">
</g>
<g style="fill:#FFFFFF; fill-opacity:1.0; 
stroke:#FFFFFF; stroke-width:0; stroke-opacity:1; 
stroke-linecap:round; stroke-linejoin:round;">
<circle cx="16523.7" cy="14142.8" r="157.48" /> 
</g>
<g style="fill:#FFFFFF; fill-opacity:1.0; 
stroke:#FFFFFF; stroke-width:98.4252; stroke-opacity:1; 
stroke-linecap:round; stroke-linejoin:round;">
</g>
<g style="fill:#FFFFFF; fill-opacity:1.0; 
stroke:#FFFFFF; stroke-width:0; stroke-opacity:1; 
stroke-linecap:round; stroke-linejoin:round;">
<circle cx="14173.7" cy="2617.82" r="236.22" /> 
</g>
<g style="fill:#FFFFFF; fill-opacity:1.0; 
stroke:#FFFFFF; stroke-width:98.4252; stroke-opacity:1; 
stroke-linecap:round; stroke-linejoin:round;">
</g>
<g style="fill:#FFFFFF; fill-opacity:1.0; 
stroke:#FFFFFF; stroke-width:0; stroke-opacity:1; 
stroke-linecap:round; stroke-linejoin:round;">
<circle cx="14173.7" cy="8617.82" r="236.22" /> 
</g>
<g style="fill:#FFFFFF; fill-opacity:1.0; 
stroke:#FFFFFF; stroke-width:98.4252; stroke-opacity:1; 
stroke-linecap:round; stroke-linejoin:round;">
</g>
<g style="fill:#FFFFFF; fill-opacity:1.0; 
stroke:#FFFFFF; stroke-width:0; stroke-opacity:1; 
stroke-linecap:round; stroke-linejoin:round;">
<circle cx="3164.04" cy="15246.6" r="157.48" /> 
</g>
<g style="fill:#FFFFFF; fill-opacity:1.0; 
stroke:#FFFFFF; stroke-width:98.4252; stroke-opacity:1; 
stroke-linecap:round; stroke-linejoin:round;">
</g>
<g style="fill:#FFFFFF; fill-opacity:1.0; 
stroke:#FFFFFF; stroke-width:0; stroke-opacity:1; 
stroke-linecap:round; stroke-linejoin:round;">
<circle cx="2373.68" cy="14117.8" r="157.48" /> 
</g>
<g style="fill:#FFFFFF; fill-opacity:1.0; 
stroke:#FFFFFF; stroke-width:98.4252; stroke-opacity:1; 
stroke-linecap:round; stroke-linejoin:round;">
</g>
<g style="fill:#FFFFFF; fill-opacity:1.0; 
stroke:#FFFFFF; stroke-width:0; stroke-opacity:1; 
stroke-linecap:round; stroke-linejoin:round;">
<circle cx="5298.68" cy="8892.82" r="236.22" /> 
</g>
<g style="fill:#FFFFFF; fill-opacity:1.0; 
stroke:#FFFFFF; stroke-width:98.4252; stroke-opacity:1; 
stroke-linecap:round; stroke-linejoin:round;">
</g>
<g style="fill:#FFFFFF; fill-opacity:1.0; 
stroke:#FFFFFF; stroke-width:0; stroke-opacity:1; 
stroke-linecap:round; stroke-linejoin:round;">
<circle cx="5298.68" cy="2892.82" r="236.22" /> 
</g>
<g style="fill:#FFFFFF; fill-opacity:1.0; 
stroke:#FFFFFF; stroke-width:98.4252; stroke-opacity:1; 
stroke-linecap:round; stroke-linejoin:round;">
</g>
<g style="fill:#FFFFFF; fill-opacity:1.0; 
stroke:#FFFFFF; stroke-width:0; stroke-opacity:1; 
stroke-linecap:round; stroke-linejoin:round;">
<circle cx="4673.68" cy="10067.8" r="236.22" /> 
</g>
<g style="fill:#FFFFFF; fill-opacity:1.0; 
stroke:#FFFFFF; stroke-width:98.4252; stroke-opacity:1; 
stroke-linecap:round; stroke-linejoin:round;">
</g>
<g style="fill:#FFFFFF; fill-opacity:1.0; 
stroke:#FFFFFF; stroke-width:0; stroke-opacity:1; 
stroke-linecap:round; stroke-linejoin:round;">
<circle cx="4673.68" cy="16067.8" r="236.22" /> 
</g>
<g style="fill:#FFFFFF; fill-opacity:1.0; 
stroke:#FFFFFF; stroke-width:98.4252; stroke-opacity:1; 
stroke-linecap:round; stroke-linejoin:round;">
</g>
<g style="fill:#FFFFFF; fill-opacity:1.0; 
stroke:#FFFFFF; stroke-width:0; stroke-opacity:1; 
stroke-linecap:round; stroke-linejoin:round;">
<circle cx="15723.7" cy="12517.8" r="236.22" /> 
</g>
<g style="fill:#FFFFFF; fill-opacity:1.0; 
stroke:#FFFFFF; stroke-width:98.4252; stroke-opacity:1; 
stroke-linecap:round; stroke-linejoin:round;">
</g>
<g style="fill:#FFFFFF; fill-opacity:1.0; 
stroke:#FFFFFF; stroke-width:0; stroke-opacity:1; 
stroke-linecap:round; stroke-linejoin:round;">
<circle cx="15723.7" cy="6517.82" r="236.22" /> 
</g>
<g style="fill:#FFFFFF; fill-opacity:1.0; 
stroke:#FFFFFF; stroke-width:98.4252; stroke-opacity:1; 
stroke-linecap:round; stroke-linejoin:round;">
</g>
<g style="fill:#FFFFFF; fill-opacity:1.0; 
stroke:#FFFFFF; stroke-width:0; stroke-opacity:1; 
stroke-linecap:round; stroke-linejoin:round;">
<circle cx="13723.7" cy="16067.8" r="236.22" /> 
</g>
<g style="fill:#FFFFFF; fill-opacity:1.0; 
stroke:#FFFFFF; stroke-width:98.4252; stroke-opacity:1; 
stroke-linecap:round; stroke-linejoin:round;">
</g>
<g style="fill:#FFFFFF; fill-opacity:1.0; 
stroke:#FFFFFF; stroke-width:0; stroke-opacity:1; 
stroke-linecap:round; stroke-linejoin:round;">
<circle cx="13723.7" cy="10067.8" r="236.22" /> 
</g>
<g style="fill:#FFFFFF; fill-opacity:1.0; 
stroke:#FFFFFF; stroke-width:98.4252; stroke-opacity:1; 
stroke-linecap:round; stroke-linejoin:round;">
</g>
<g style="fill:#FFFFFF; fill-opacity:1.0; 
stroke:#FFFFFF; stroke-width:0; stroke-opacity:1; 
stroke-linecap:round; stroke-linejoin:round;">
<circle cx="11023.7" cy="3617.82" r="157.48" /> 
</g>
<g style="fill:#FFFFFF; fill-opacity:1.0; 
stroke:#FFFFFF; stroke-width:98.4252; stroke-opacity:1; 
stroke-linecap:round; stroke-linejoin:round;">
</g>
<g style="fill:#FFFFFF; fill-opacity:1.0; 
stroke:#FFFFFF; stroke-width:0; stroke-opacity:1; 
stroke-linecap:round; stroke-linejoin:round;">
<circle cx="8023.68" cy="6617.82" r="157.48" /> 
</g>
<g style="fill:#FFFFFF; fill-opacity:1.0; 
stroke:#FFFFFF; stroke-width:98.4252; stroke-opacity:1; 
stroke-linecap:round; stroke-linejoin:round;">
</g>
<g style="fill:#FFFFFF; fill-opacity:1.0; 
stroke:#FFFFFF; stroke-width:0; stroke-opacity:1; 
stroke-linecap:round; stroke-linejoin:round;">
<circle cx="11023.7" cy="4617.82" r="157.48" /> 
</g>
<g style="fill:#FFFFFF; fill-opacity:1.0; 
stroke:#FFFFFF; stroke-width:98.4252; stroke-opacity:1; 
stroke-linecap:round; stroke-linejoin:round;">
</g>
<g style="fill:#FFFFFF; fill-opacity:1.0; 
stroke:#FFFFFF; stroke-width:0; stroke-opacity:1; 
stroke-linecap:round; stroke-linejoin:round;">
<circle cx="8023.68" cy="5617.82" r="157.48" /> 
</g>
<g style="fill:#FFFFFF; fill-opacity:1.0; 
stroke:#FFFFFF; stroke-width:98.4252; stroke-opacity:1; 
stroke-linecap:round; stroke-linejoin:round;">
</g>
<g style="fill:#FFFFFF; fill-opacity:1.0; 
stroke:#FFFFFF; stroke-width:0; stroke-opacity:1; 
stroke-linecap:round; stroke-linejoin:round;">
<circle cx="11023.7" cy="5617.82" r="157.48" /> 
</g>
<g style="fill:#FFFFFF; fill-opacity:1.0; 
stroke:#FFFFFF; stroke-width:98.4252; stroke-opacity:1; 
stroke-linecap:round; stroke-linejoin:round;">
</g>
<g style="fill:#FFFFFF; fill-opacity:1.0; 
stroke:#FFFFFF; stroke-width:0; stroke-opacity:1; 
stroke-linecap:round; stroke-linejoin:round;">
<circle cx="8023.68" cy="4617.82" r="157.48" /> 
</g>
<g style="fill:#FFFFFF; fill-opacity:1.0; 
stroke:#FFFFFF; stroke-width:98.4252; stroke-opacity:1; 
stroke-linecap:round; stroke-linejoin:round;">
</g>
<g style="fill:#FFFFFF; fill-opacity:1.0; 
stroke:#FFFFFF; stroke-width:0; stroke-opacity:1; 
stroke-linecap:round; stroke-linejoin:round;">
<circle cx="11023.7" cy="6617.82" r="157.48" /> 
</g>
<g style="fill:#FFFFFF; fill-opacity:1.0; 
stroke:#FFFFFF; stroke-width:98.4252; stroke-opacity:1; 
stroke-linecap:round; stroke-linejoin:round;">
</g>
<g style="fill:#FFFFFF; fill-opacity:1.0; 
stroke:#FFFFFF; stroke-width:0; stroke-opacity:1; 
stroke-linecap:round; stroke-linejoin:round;">
<circle cx="8023.68" cy="3617.82" r="157.48" /> 
</g>
<g style="fill:#FFFFFF; fill-opacity:1.0; 
stroke:#FFFFFF; stroke-width:98.4252; stroke-opacity:1; 
stroke-linecap:round; stroke-linejoin:round;">
</g>
<g style="fill:#000000; fill-opacity:1.0; 
stroke:#000000; stroke-width:98.4252; stroke-opacity:1; 
stroke-linecap:round; stroke-linejoin:round;">
</g>
<g style="fill:#000000; fill-opacity:0.0; 
stroke:#000000; stroke-width:59.0551; stroke-opacity:1; 
stroke-linecap:round; stroke-linejoin:round;">
<circle cx="9423.68" cy="9423.68" r="9394.15" /> 
<g >
</g>
<g >
</g>
<g >
</g>
<g >
</g>
<g >
</g>
<g >
</g>
<g >
</g>
<g >
</g>
<g >
</g>
<g >
</g>
<g >
</g>
<g >
</g>
<g >
</g>
<g >
</g>
<g >
</g>
<g >
</g>
</g> 
</svg>
